<svg width="164" height="199" viewBox="0 0 164 199" fill="none" xmlns="http://www.w3.org/2000/svg">
<path d="M82.0697 160.84C37.7397 160.84 1.67969 124.91 1.67969 80.7598C1.67969 36.6098 37.7397 0.679688 82.0697 0.679688C126.4 0.679688 162.46 36.6098 162.46 80.7598C162.46 124.91 126.4 160.84 82.0697 160.84ZM82.0697 1.63977C38.2797 1.63977 2.64969 37.1298 2.64969 80.7498C2.64969 124.37 38.2797 159.86 82.0697 159.86C125.86 159.86 161.49 124.37 161.49 80.7498C161.49 37.1298 125.86 1.63977 82.0697 1.63977Z" fill="url(#paint0_linear_825_3224)"/>
<path d="M82.0698 3.55957C39.5998 3.55957 5.0498 37.9695 5.0498 80.2795C5.0498 122.59 39.5998 156.99 82.0598 156.99C124.52 156.99 159.07 122.57 159.07 80.2795C159.07 37.9895 124.53 3.55957 82.0598 3.55957H82.0698ZM82.0698 6.99963C122.63 6.99963 155.64 39.8795 155.64 80.2795C155.64 95.4995 150.96 109.65 142.95 121.39C142.61 120.84 142.28 120.3 141.92 119.8C139.48 116.33 136.95 112.94 134.32 109.62C130.62 112.5 126.98 115.41 123.05 117.99C122.81 118.15 122.55 118.33 122.45 118.6C122.37 118.83 122.42 119.08 122.4 119.32C122.34 120.08 121.64 120.6 121 121.02L113.6 125.85C113.23 126.09 112.19 127.05 111.76 127.02C111.29 126.99 110.95 126.26 110.67 125.97C109.93 125.2 109.13 124.98 107.98 124.83C107.33 124.65 106.54 124.71 106.07 124.15C104.16 122.4 102.08 120.79 100.48 118.75C98.9898 120.19 97.5398 122.33 95.7398 123.35C94.2898 124.18 92.3698 124.38 90.7598 124.78C90.6098 124.82 90.4498 124.85 90.2998 124.8C90.1798 124.75 90.0998 124.64 90.0198 124.54C88.4798 122.52 87.0098 120.44 85.6098 118.32C79.3698 122.18 73.4798 126.51 67.0898 130.14C66.5998 130.42 66.0898 130.69 65.5298 130.73C64.1798 130.81 63.9898 129.2 63.3998 128.3C63.3598 128.25 63.2998 128.24 63.2498 128.26C62.1198 127.78 60.8798 127.49 59.7298 127.05C57.9798 126.46 56.2798 125.7 54.5198 125.15C52.0498 122 49.4798 118.94 46.8898 115.89C46.3298 116.01 45.7298 116.41 45.1598 116.3C45.0098 116.24 44.9098 116.1 44.8098 115.97C43.3798 113.96 41.9498 111.94 40.5198 109.93C36.2098 113.36 32.3298 117.31 28.3998 121.16C28.0698 120.9 27.7398 120.64 27.4098 120.38C26.1098 121.77 24.7998 123.17 23.5098 124.57C14.1198 112.26 8.52979 96.9196 8.52979 80.2996C8.50979 39.8796 41.5098 7.00964 82.0798 7.00964L82.0698 6.99963ZM90.8598 153.04C89.0698 153.13 87.2698 152.93 85.6398 152.22C84.2798 151.45 83.9798 149.44 83.3798 148.12C83.3498 148.05 83.2898 148.02 83.2198 148.02C78.3198 144.51 73.4198 140.94 68.4098 137.58C67.6798 136.32 66.8498 135.04 66.9898 133.52C67.1598 132.73 67.5698 131.84 68.1998 131.33C69.9398 130.18 71.7098 129.07 73.4698 127.96C73.4698 127.74 75.2298 126.87 75.4698 126.72C76.1798 126.31 76.8398 125.67 77.7198 125.95C77.8198 126.02 77.8198 126.17 77.8098 126.3C77.7698 126.91 77.6298 127.44 77.6298 127.94C77.6298 129.13 76.5698 130.01 75.5998 130.71C75.3198 130.92 75.2398 131.3 75.1798 131.64C74.8298 133.82 74.4898 135.99 74.1398 138.16C74.7698 136.18 75.0098 134.02 76.0298 132.2C76.9998 130.69 78.4898 129.86 78.4198 127.89C78.0798 124.86 80.9598 123.37 83.2398 122.15C83.5798 121.96 84.5998 121.13 84.9898 121.53C85.6198 122.55 85.2498 123.74 85.1198 124.88C85.0498 125.9 84.7598 126.93 84.8498 127.94C84.9198 128.24 85.1398 128.44 85.3998 128.59C85.9298 128.91 86.4898 129.2 87.0298 129.49C86.1798 129.65 84.8898 129.25 84.5998 129.97C84.3198 130.67 85.1598 132.83 85.3098 133.6C85.3698 134.25 85.7598 134.76 86.3398 135.07C87.3398 135.71 88.3598 136.35 89.4398 136.85C87.5398 136.16 85.5898 135.6 83.6098 135.17C84.5398 136.77 85.2598 138.5 85.7098 140.3C85.7998 140.64 85.8798 141 86.0998 141.28C86.2998 141.54 86.5898 141.72 86.8698 141.89C89.2198 143.28 91.5598 144.68 93.9098 146.08C92.5798 146.2 91.2198 146.1 89.9198 145.8C90.2798 145.88 91.1098 147.66 91.3498 148.01C91.8798 148.79 92.4398 149.55 93.0498 150.27C93.4198 150.7 95.1498 151.81 94.4898 152.39C94.3998 152.47 94.2898 152.53 94.1698 152.57C93.0598 152.75 91.9398 152.92 90.8198 153.05L90.8398 153.03L90.8598 153.04ZM33.4898 134.06C33.4398 133.87 33.3798 133.66 33.2298 133.53C32.9498 133.28 32.4698 133.41 32.1698 133.18C32.0098 133.06 31.9298 132.86 31.8698 132.67C31.4498 131.5 31.0298 130.33 30.6098 129.16C30.1798 127.97 29.7598 126.76 29.7298 125.5C29.6898 123.4 31.4098 121.18 32.6998 119.61C34.3898 117.56 36.3498 115.71 38.6298 114.34C40.0298 113.49 40.9298 113.49 41.2898 115.02C41.6798 116.68 42.2198 118.25 42.5798 119.92C42.6298 120.18 42.6898 120.45 42.8398 120.68C44.4598 122.23 46.3998 123.45 48.2598 124.7C45.7998 123.64 43.3498 122.57 40.8898 121.51C41.9098 123.48 42.7898 125.51 43.5298 127.6C46.0598 128.04 48.5498 128.72 50.9598 129.62C48.5598 129.09 46.1698 128.55 43.7798 127.99C45.2898 129.54 46.5798 131.29 47.6298 133.18C47.7598 133.42 47.8998 133.68 48.1298 133.84C49.2998 134.4 50.5998 134.68 51.8398 135.05C50.6798 134.81 49.4698 134.67 48.4998 134.9C48.6898 136.2 50.3098 137.59 51.0598 138.65C51.3698 138.4 51.8198 138.51 52.2098 138.63C54.2898 139.29 56.3698 139.96 58.4498 140.62C54.4598 140.33 50.4798 140.04 46.4898 139.74C48.0798 141.63 49.6698 143.53 51.2598 145.43C51.5698 145.9 52.0798 146.09 52.6298 146.06C54.1898 146.09 55.7898 146.12 57.2698 146.6C55.0098 146.66 52.7498 146.62 50.5098 146.47C44.4798 143.61 38.8998 139.95 33.9098 135.63C33.7698 135.11 33.6298 134.58 33.4898 134.05V134.06ZM94.9398 132.81C94.1898 131.83 93.4398 130.84 92.7098 129.85C92.0798 129 91.1398 128.07 90.8198 127.06C90.7498 126.9 90.7998 126.73 90.9198 126.62C91.4698 126.01 92.0598 125.9 92.8298 125.68C94.3998 125.3 95.8898 124.51 97.5298 124.57C97.4498 125.4 97.4698 126.29 97.1698 127.06C96.9898 127.33 96.5998 127.38 96.3998 127.62C95.9998 128.51 95.9398 129.61 95.6798 130.57C96.0498 129.41 96.5098 128.15 97.5698 127.55C97.7498 127.45 97.9498 127.36 98.0498 127.17C98.1198 127.02 98.0998 126.84 98.0898 126.68C98.0298 125.53 97.8798 124.13 98.8498 123.31C99.2698 122.88 99.6798 122.43 100.1 122.01C100.32 121.79 101.47 121.05 101.49 120.77C101.44 120.99 101.58 121.19 101.63 121.39C102.19 122.93 102.71 124.49 103.14 126.07C103.28 126.58 103.4 127.1 103.54 127.61C103.58 127.75 103.7 127.79 103.81 127.76C104.27 128.03 104.84 128.05 105.34 128.24C106.36 128.55 108.22 129.33 107.77 130.8C107.69 131.08 107.45 131.29 107.22 131.48C104.82 133.5 102.32 135.4 99.7298 137.17C99.5298 137.31 99.3098 137.45 99.0598 137.48C97.9098 137.59 95.6098 133.64 94.9498 132.78V132.8L94.9398 132.81ZM26.9598 128.78C26.7198 127.95 26.4598 127.12 26.1998 126.3C26.0998 125.98 25.6398 126.11 25.6898 126.44C25.7498 126.82 25.8298 127.19 25.8998 127.57C25.2998 126.87 24.7198 126.16 24.1498 125.44C25.3698 123.85 26.9298 122.37 27.8298 125.15C28.5998 127.49 29.3698 129.83 30.1498 132.17C29.0498 131.08 27.9898 129.95 26.9498 128.79L26.9598 128.78ZM134.12 132.02C134.12 132.02 134.06 131.97 134.04 131.94C133.39 131.19 133.24 130.08 133.03 129.14C132.21 125.38 131.71 121.55 130.89 117.79C130.86 117.63 130.58 117.67 130.6 117.83C130.92 120.51 131.41 123.18 131.85 125.85C132.07 127.19 132.28 128.53 132.45 129.87C132.56 130.81 132.8 131.93 133.5 132.63C127.5 138.49 120.49 143.33 112.76 146.88C112.43 146.3 112.11 145.7 111.82 145.1C111.64 144.62 111.27 144.3 110.77 144.18C107.7 143.14 104.75 141.73 102.01 140C103.85 143.01 105.69 146.03 107.53 149.04H107.51C104.99 145.44 102.37 141.92 99.5498 138.55C103.16 136.13 106.53 133.32 110.22 131.04C109.4 133.48 108.37 135.85 107.14 138.11C108.85 136.27 109.89 135.01 111.33 133.18C112.73 131.44 113.92 129.54 115.38 127.89C116.41 126.72 117.36 125.37 118.76 124.67C119.52 124.29 120.63 124.01 121.16 123.32C121.13 124.46 121 125.62 120.86 126.75C121.98 127.28 122.03 128.7 121.95 129.78C121.8 133.13 121.77 136.49 121.84 139.84C122.16 136.22 123 132.66 123.57 129.06C123.67 128.71 123.57 128.38 123.31 128.14C122.61 127.27 122.94 126.16 123.06 125.16C123.21 123.88 123.36 122.6 123.51 121.32C123.57 120.69 123.69 120.03 124.18 119.59C127.37 117.42 130.55 115.21 133.51 112.73C133.96 115.27 134.88 117.83 135.54 120.32C135.63 120.87 135.98 121.29 136.45 121.58C137.84 122.57 139.16 123.66 140.43 124.79C140.34 124.91 140.25 125.03 140.16 125.15C138.21 124.25 136.27 123.33 134.32 122.43C135.11 122.8 135.75 124.77 136.27 125.47C136.86 126.27 137.3 127.19 137.71 128.12C136.55 129.45 135.35 130.74 134.1 132L134.12 132.02Z" fill="url(#paint1_linear_825_3224)"/>
<path d="M46.9798 144.07C45.4698 141.89 43.9798 139.7 42.4898 137.5C43.3798 137.56 45.8498 137.8 44.9898 136.24C44.4998 135.23 44.0498 134.2 43.5798 133.18C42.3398 130.49 41.1398 127.78 39.9298 125.08C39.5798 124.31 39.2298 123.54 38.9098 122.76C38.6998 122.25 38.5098 121.68 38.0898 121.31C38.4498 119.73 38.7998 118.16 39.0898 116.57C39.1498 116.23 38.6598 116.08 38.5598 116.43C38.0698 118.07 37.6498 119.72 37.2398 121.37C37.1898 121.58 37.3098 121.81 37.5198 121.87C37.9798 122 38.1898 122.73 38.3798 123.11C40.3298 127.26 42.2298 131.44 44.0998 135.63C44.2498 135.96 44.4498 136.31 44.5398 136.66C44.5698 136.8 44.5398 136.82 44.3898 136.85C43.5398 136.92 42.6598 136.85 41.8198 136.7C41.5398 136.65 41.2098 136.95 41.4098 137.23C43.1098 139.6 44.8798 141.93 46.5898 144.3C46.7598 144.53 47.1498 144.32 46.9798 144.07Z" fill="url(#paint2_linear_825_3224)"/>
<path d="M102.52 131.03C102.84 130.98 103.17 130.84 103.5 130.87C103.78 130.89 104.14 131.02 104.09 131.36C104.06 131.6 104.47 131.66 104.52 131.42C104.64 130.81 104.08 130.42 103.54 130.31C102.91 130.19 102.02 130.65 101.6 130.01C101.4 129.71 101.39 129.23 101.34 128.89C101.12 127.44 100.99 125.98 100.75 124.54C100.71 124.28 100.25 124.34 100.28 124.6C100.4 126.02 100.63 127.43 100.77 128.85C100.83 130.07 100.93 131.32 102.53 131.04L102.52 131.03Z" fill="url(#paint3_linear_825_3224)"/>
<path d="M84.8 143.47C83.89 141.6 83.55 139.52 82.78 137.59C82.39 136.58 81.85 135.619 81.6 134.559C81.63 133.909 81.6 133.439 81.58 132.799C81.62 131.909 81.8 131.049 81.98 130.179C82.4 128.139 82.87 126.109 83.19 124.049C83.24 123.789 82.86 123.68 82.79 123.94C82.53 124.87 82.27 125.79 82.04 126.72C81.61 128.55 81.06 130.37 80.79 132.24C80.73 132.88 80.6401 133.57 80.8101 134.2C80.9501 134.42 81.03 134.649 81.08 134.909C81.32 135.739 81.7301 136.509 82.0901 137.299C82.9401 139.279 83.48 141.37 84.33 143.35C84.9 144.74 85.77 145.99 87.01 146.87C87.15 146.97 87.34 146.74 87.2 146.62C86.11 145.78 85.4101 144.67 84.8101 143.46L84.8 143.47Z" fill="url(#paint4_linear_825_3224)"/>
<path d="M107.15 138.09C106.86 138.46 106.64 138.78 106.64 138.99C106.81 138.69 106.98 138.39 107.15 138.09Z" fill="url(#paint5_linear_825_3224)"/>
<path d="M56.8697 56.8098C56.8697 55.0798 58.2797 53.6798 60.0197 53.6798V53.6598C58.2797 53.6598 56.8697 52.2598 56.8697 50.5298H56.8497C56.8497 52.2598 55.4397 53.6598 53.6997 53.6598V53.6798C55.4397 53.6798 56.8497 55.0798 56.8497 56.8098H56.8697Z" fill="url(#paint6_linear_825_3224)"/>
<path d="M56.8697 95.5098H56.8497C56.8497 97.2398 55.4397 98.6398 53.6997 98.6398V98.6597C55.4397 98.6597 56.8497 100.06 56.8497 101.79H56.8697C56.8697 100.06 58.2797 98.6597 60.0197 98.6597V98.6398C58.2797 98.6398 56.8697 97.2398 56.8697 95.5098Z" fill="url(#paint7_linear_825_3224)"/>
<path d="M124.39 65.5195H124.37C124.37 67.2495 122.96 68.6494 121.22 68.6494V68.6694C122.96 68.6694 124.37 70.0694 124.37 71.7994H124.39C124.39 70.0694 125.8 68.6694 127.54 68.6694V68.6494C125.8 68.6494 124.39 67.2495 124.39 65.5195Z" fill="url(#paint8_linear_825_3224)"/>
<path d="M88.42 35.5095H88.44C88.44 33.7795 89.85 32.3795 91.59 32.3795V32.3595C89.85 32.3595 88.44 30.9595 88.44 29.2295H88.42C88.42 30.9595 87.01 32.3595 85.27 32.3595V32.3795C87.01 32.3795 88.42 33.7795 88.42 35.5095Z" fill="url(#paint9_linear_825_3224)"/>
<path d="M117.51 85.6995C116.02 85.6995 114.74 86.5795 114.15 87.8395L96.7701 85.8495C96.5301 84.7295 95.78 83.7994 94.76 83.3094L95.2 80.1794C96.49 79.8694 97.45 78.7195 97.45 77.3495C97.45 76.5395 97.11 75.7995 96.57 75.2695L101.34 64.1295C101.43 64.1295 101.52 64.1494 101.61 64.1494C103.65 64.1494 105.3 62.5095 105.3 60.4995C105.3 59.8995 105.15 59.3295 104.89 58.8195L115.73 47.7095C116.05 47.8295 116.4 47.8994 116.77 47.8994C118.4 47.8994 119.72 46.5895 119.72 44.9795C119.72 44.4295 119.57 43.9195 119.3 43.4895L121.28 40.7695C121.64 40.8895 122.03 40.9495 122.43 40.9495C124.46 40.9495 126.12 39.3094 126.12 37.2994C126.12 35.2894 124.47 33.6494 122.43 33.6494C120.39 33.6494 118.74 35.2894 118.74 37.2994C118.74 38.0794 118.99 38.7995 119.41 39.3895L117.41 42.1295C117.2 42.0895 116.98 42.0594 116.76 42.0594C115.88 42.0594 115.09 42.4494 114.55 43.0494L111.84 42.2195C111.79 40.2395 110.17 38.6494 108.16 38.6494C106.15 38.6494 104.47 40.2894 104.47 42.2994C104.47 44.3094 106.12 45.9495 108.16 45.9495C109.39 45.9495 110.48 45.3494 111.15 44.4294L113.83 45.2495C113.86 45.5495 113.93 45.8395 114.04 46.0995L103.21 57.2095C102.72 56.9795 102.18 56.8395 101.61 56.8395C99.58 56.8395 97.92 58.4795 97.92 60.4895C97.92 61.5895 98.4101 62.5695 99.1801 63.2395L94.39 74.4294C92.81 74.4794 91.54 75.7595 91.54 77.3495C91.54 78.3795 92.08 79.2794 92.89 79.7994L92.44 83.0095C91.61 83.1695 90.88 83.6095 90.35 84.2195L71.5 76.5995C71.5 76.5295 71.5 76.4495 71.5 76.3695C71.5 75.5295 71.21 74.7595 70.73 74.1395L74.6801 68.3295C76.2001 68.2195 77.4001 66.9594 77.4001 65.4194C77.4001 64.6194 77.07 63.8895 76.55 63.3695L76.6501 58.2695C78.1301 57.7895 79.2101 56.4194 79.2101 54.7894C79.2101 52.7694 77.5601 51.1395 75.5201 51.1395C74.9001 51.1395 74.32 51.2894 73.8 51.5594L63.35 41.5795C63.46 41.2695 63.53 40.9295 63.53 40.5895C63.53 38.9795 62.21 37.6694 60.58 37.6694C59.47 37.6694 58.5 38.2794 58 39.1794L48.1501 38.3295C47.7901 36.6895 46.31 35.4595 44.55 35.4595C42.52 35.4595 40.86 37.0995 40.86 39.1095C40.86 41.1195 42.51 42.7595 44.55 42.7595C46.04 42.7595 47.3101 41.8895 47.9001 40.6295L57.78 41.4795C58.16 42.6595 59.2701 43.5095 60.5901 43.5095C61.0101 43.5095 61.4 43.4295 61.76 43.2695L72.2 53.2295C71.97 53.7095 71.8401 54.2294 71.8401 54.7894C71.8401 56.3894 72.88 57.7495 74.33 58.2395L74.2401 62.5095C72.7101 62.6195 71.51 63.8794 71.51 65.4194C71.51 66.2494 71.86 66.9994 72.42 67.5294L68.8 72.8595C68.49 72.7795 68.16 72.7295 67.82 72.7295C66.94 72.7295 66.13 73.0394 65.5 73.5494L50.47 64.0995C50.49 63.9495 50.51 63.7895 50.51 63.6295C50.51 62.0195 49.1901 60.7095 47.5601 60.7095C46.5701 60.7095 45.6901 61.1995 45.1501 61.9495L35.89 60.0795C35.68 58.2595 34.12 56.8395 32.23 56.8395C30.19 56.8395 28.54 58.4795 28.54 60.4895C28.54 62.4995 30.19 64.1395 32.23 64.1395C33.58 64.1395 34.7601 63.4195 35.4001 62.3495L44.67 64.2195C44.94 65.5495 46.1301 66.5594 47.5601 66.5594C48.1701 66.5594 48.7401 66.3794 49.2101 66.0594L64.25 75.5095C64.18 75.7895 64.14 76.0895 64.14 76.3895C64.14 78.4095 65.79 80.0394 67.83 80.0394C69 80.0394 70.04 79.4994 70.72 78.6594L89.48 86.3795C89.48 86.4595 89.48 86.5395 89.48 86.6195C89.48 88.2895 90.6101 89.6895 92.1501 90.1195L92.69 100.529C91.68 100.989 90.97 101.999 90.97 103.179C90.97 103.569 91.0401 103.93 91.1801 104.26L90.2701 105.109C89.7401 104.819 89.13 104.649 88.48 104.649C86.45 104.649 84.79 106.289 84.79 108.299C84.79 110.309 86.44 111.949 88.48 111.949C90.52 111.949 92.17 110.309 92.17 108.299C92.17 107.769 92.06 107.269 91.85 106.809L92.8401 105.89C93.1701 106.02 93.54 106.089 93.92 106.089C95.55 106.089 96.8701 104.779 96.8701 103.169C96.8701 101.939 96.1001 100.889 95.0201 100.459L94.48 90.0095C95.37 89.6695 96.1 88.9994 96.5 88.1494L113.9 90.1395C114.27 91.7795 115.74 92.9995 117.5 92.9995C119.53 92.9995 121.19 91.3595 121.19 89.3495C121.19 87.3395 119.54 85.6995 117.5 85.6995H117.52H117.51Z" fill="url(#paint10_linear_825_3224)"/>
<path d="M13.1598 171.88L18.9698 185.21C19.1398 185.61 19.5398 185.86 19.9698 185.86H22.0298C22.8098 185.86 23.3498 185.06 23.0298 184.34L14.5898 165C14.4198 164.6 14.0198 164.35 13.5898 164.35H10.6998C10.2598 164.35 9.86983 164.61 9.69983 165L1.25983 184.35C0.949825 185.07 1.46983 185.87 2.25983 185.87H4.31982C4.75982 185.87 5.14982 185.61 5.31982 185.22L11.1498 171.88C11.5298 171.01 12.7698 171.01 13.1498 171.88H13.1598Z" fill="url(#paint11_linear_825_3224)"/>
<path d="M33.6899 169.37C31.2499 169.37 29.5399 170.57 28.6299 171.86L28.4999 169.72H25.46L25.4799 169.99C25.5699 171.2 25.61 172.46 25.61 174.21V185.88H28.96V176.22C28.96 175.74 29.02 175.29 29.14 174.96C29.56 173.6 30.84 172.22 32.74 172.22C35.54 172.22 36.14 174.6 36.14 176.6V185.87H39.49V176.27C39.49 169.69 34.65 169.36 33.68 169.36L33.6899 169.37Z" fill="url(#paint12_linear_825_3224)"/>
<path d="M49.4901 186.23C51.6701 186.23 53.6001 185.26 54.7101 183.65L54.8101 185.88H57.8901L57.8701 185.61C57.7601 184.38 57.7401 182.56 57.7401 181.59V162.42H54.3801V171.31C53.3901 170.09 51.7401 169.38 49.8101 169.38C47.8801 169.38 46.2401 170.1 44.9401 171.41C43.3601 173 42.4901 175.36 42.5101 178.04C42.5101 182.8 45.4401 186.24 49.4901 186.24V186.23ZM45.9001 177.9C45.9001 174.43 47.7001 172.1 50.3701 172.1C52.5501 172.1 53.9001 173.66 54.2601 175.22C54.3401 175.5 54.3801 175.92 54.3801 176.35V179.07C54.3801 179.54 54.3401 179.9 54.2601 180.24C53.7901 182.16 52.2101 183.45 50.3001 183.45C47.0501 183.45 45.9001 180.46 45.9001 177.91V177.9Z" fill="url(#paint13_linear_825_3224)"/>
<path d="M61.9898 174.86V185.88H65.3098V177.29C65.3098 176.83 65.3698 176.38 65.4298 176.01C65.8098 173.91 67.2198 172.56 69.0198 172.56C69.3798 172.56 69.6498 172.59 69.9398 172.65L70.2398 172.71V169.53L70.0498 169.49C69.7498 169.42 69.4998 169.39 69.1798 169.39C67.3898 169.39 65.7898 170.47 64.9098 172.21L64.8298 169.75H61.8198L61.8398 170.01C61.9298 171.35 61.9698 172.85 61.9698 174.88L61.9898 174.86Z" fill="url(#paint14_linear_825_3224)"/>
<path d="M87.0297 177.67C87.0297 172.71 83.8797 169.37 79.2097 169.37C74.5397 169.37 71.1597 172.81 71.1597 177.93C71.1597 183.05 74.3697 186.23 78.9497 186.23C82.9697 186.23 87.0297 183.59 87.0297 177.67ZM79.0797 183.6C76.4597 183.6 74.5497 181.17 74.5497 177.83C74.5497 174.93 75.9697 172 79.1497 172C82.3297 172 83.6197 174.99 83.6197 177.77C83.6197 181.15 81.7097 183.6 79.0897 183.6H79.0797Z" fill="url(#paint15_linear_825_3224)"/>
<path d="M83.8999 162.97H80.0699L76.8999 168.09H79.5099L83.8999 162.97Z" fill="url(#paint16_linear_825_3224)"/>
<path d="M109.81 176.76V185.87H113.1V176.4C113.1 171.21 110.3 169.36 107.68 169.36C106.23 169.36 105.1 169.72 104.05 170.51C103.43 170.97 102.88 171.57 102.44 172.26C101.61 170.46 99.91 169.36 97.92 169.36C95.93 169.36 94.26 170.2 93.1 171.85L92.99 169.72H89.98L90 169.99C90.09 171.2 90.13 172.46 90.13 174.21V185.88H93.42V176.19C93.42 175.69 93.49 175.25 93.64 174.88C94.05 173.59 95.26 172.21 96.95 172.21C98.85 172.21 99.99 173.73 99.99 176.26V185.89H103.28V175.97C103.28 175.52 103.36 175.03 103.49 174.63C103.91 173.42 105.05 172.21 106.64 172.21C109.26 172.21 109.81 174.7 109.81 176.78V176.76Z" fill="url(#paint17_linear_825_3224)"/>
<path d="M129.63 185.12L129.03 182.6L128.76 182.71C127.79 183.12 126.6 183.5 124.5 183.5C121.41 183.5 119.51 181.66 119.36 178.56H130.38L130.42 178.2C130.45 177.9 130.5 177.49 130.5 176.98C130.5 173.46 128.73 169.36 123.75 169.36C119.26 169.36 116.12 172.93 116.12 178.05C116.12 183.17 119.26 186.19 124.11 186.19C126.7 186.19 128.44 185.65 129.44 185.2L129.63 185.12ZM123.52 171.9C124.58 171.9 125.44 172.23 126.07 172.86C127.05 173.85 127.22 175.34 127.24 176.03H119.42C119.69 174.38 120.81 171.9 123.52 171.9Z" fill="url(#paint18_linear_825_3224)"/>
<path d="M147.64 181.58V162.41H144.28V171.3C143.29 170.08 141.64 169.37 139.71 169.37C137.78 169.37 136.14 170.09 134.84 171.4C133.26 172.99 132.39 175.35 132.41 178.03C132.41 182.79 135.34 186.23 139.39 186.23C141.57 186.23 143.5 185.26 144.61 183.64L144.72 185.87H147.8L147.78 185.6C147.67 184.37 147.65 182.56 147.65 181.58H147.64ZM144.28 176.34V179.06C144.28 179.53 144.24 179.89 144.16 180.23C143.69 182.15 142.11 183.44 140.21 183.44C136.96 183.44 135.81 180.45 135.81 177.9C135.81 174.43 137.61 172.1 140.28 172.1C142.46 172.1 143.81 173.66 144.17 175.22C144.24 175.5 144.29 175.92 144.29 176.35L144.28 176.34Z" fill="url(#paint19_linear_825_3224)"/>
<path d="M152.13 177.78C151.15 178.75 150.65 180 150.65 181.49C150.65 183.85 152.39 186.23 155.71 186.23C157.59 186.23 159.32 185.47 160.43 184.17L160.62 185.87H163.74L163.69 185.58C163.52 184.64 163.43 183.43 163.43 181.87V176.02C163.43 172.98 162.35 169.37 157.2 169.37C155.23 169.37 153.3 169.89 151.9 170.8L151.74 170.9L152.56 173.26L152.82 173.09C153.92 172.39 155.39 171.96 156.78 171.96C158.99 171.96 160.11 173.1 160.11 175.34V175.41C156.43 175.43 153.67 176.24 152.13 177.77V177.78ZM156.45 183.63C155.26 183.63 154 182.98 154 181.16C154 180.36 154.25 179.73 154.77 179.23C155.69 178.33 157.44 177.88 159.96 177.88H160.18V180.35C160.18 180.6 160.13 180.89 160.03 181.18C159.64 182.31 158.47 183.63 156.46 183.63H156.45Z" fill="url(#paint20_linear_825_3224)"/>
<path d="M7.1199 196.36V188.3H5.40988V191.77C4.95988 191.39 4.3299 191.18 3.6199 191.18C2.7899 191.18 2.0099 191.5 1.4299 192.08C0.749901 192.76 0.379883 193.76 0.379883 194.89C0.379883 196.94 1.67989 198.42 3.47989 198.42C4.30989 198.42 5.04991 198.11 5.55991 197.58L5.5899 198.27H7.18988L7.16989 198C7.11989 197.5 7.1199 196.75 7.1199 196.35V196.36ZM5.40988 194.19V195.31C5.40988 195.49 5.38989 195.63 5.35989 195.76C5.17989 196.49 4.5599 196.98 3.8299 196.98C2.5599 196.98 2.10989 195.87 2.10989 194.83C2.10989 193.46 2.78989 192.58 3.85989 192.58C4.70989 192.58 5.2299 193.17 5.3699 193.76C5.3999 193.88 5.41989 194.06 5.41989 194.19H5.40988Z" fill="url(#paint21_linear_825_3224)"/>
<path d="M11.6999 191.17C9.60989 191.17 8.1499 192.68 8.1499 194.85C8.1499 197.02 9.5599 198.42 11.5899 198.42C13.3099 198.42 15.1499 197.27 15.1499 194.74C15.1499 192.64 13.7299 191.17 11.6999 191.17ZM11.6499 197.05C10.6199 197.05 9.8699 196.11 9.8699 194.81C9.8699 193.68 10.4299 192.55 11.6699 192.55C13.0499 192.55 13.4199 194.01 13.4199 194.79C13.4199 196.1 12.6799 197.05 11.6399 197.05H11.6499Z" fill="url(#paint22_linear_825_3224)"/>
<path d="M19.7599 191.17C18.8599 191.17 18.1799 191.54 17.7399 191.98L17.6999 191.32H16.1299L16.1499 191.59C16.1899 192.08 16.1999 192.6 16.1999 193.32V198.28H17.9099V194.15C17.9099 193.97 17.9299 193.8 17.9799 193.68C18.1299 193.19 18.6399 192.65 19.3699 192.65C20.2299 192.65 20.6699 193.21 20.6699 194.31V198.29H22.3799V194.18C22.3799 191.97 20.9799 191.18 19.7799 191.18L19.7599 191.17Z" fill="url(#paint23_linear_825_3224)"/>
<path d="M30.0798 196.36V188.3H28.3698V191.77C27.9198 191.39 27.2898 191.18 26.5798 191.18C25.7498 191.18 24.9698 191.5 24.3898 192.08C23.7098 192.76 23.3398 193.76 23.3498 194.89C23.3498 196.94 24.6498 198.42 26.4498 198.42C27.2798 198.42 28.0198 198.11 28.5298 197.58L28.5598 198.27H30.1498L30.1298 198C30.0798 197.5 30.0798 196.75 30.0798 196.35V196.36ZM28.3698 194.19V195.31C28.3698 195.49 28.3498 195.63 28.3198 195.76C28.1398 196.49 27.5198 196.98 26.7898 196.98C25.5198 196.98 25.0698 195.87 25.0698 194.83C25.0698 193.46 25.7498 192.58 26.8198 192.58C27.6698 192.58 28.1898 193.17 28.3298 193.76C28.3698 193.88 28.3798 194.06 28.3798 194.19H28.3698Z" fill="url(#paint24_linear_825_3224)"/>
<path d="M34.4799 191.17C32.4999 191.17 31.1099 192.71 31.1099 194.9C31.1099 197.09 32.4999 198.4 34.6299 198.4C35.7499 198.4 36.5099 198.17 36.9499 197.98L37.1399 197.9L36.8199 196.57L36.5499 196.68C36.1499 196.84 35.6699 197 34.7999 197C34.2299 197 32.9298 196.82 32.7798 195.25H37.4199L37.4499 194.98C37.4699 194.85 37.4799 194.68 37.4799 194.46C37.4799 192.82 36.5499 191.17 34.4799 191.17ZM34.3899 192.5C34.8099 192.5 35.1399 192.62 35.3799 192.87C35.6899 193.19 35.7799 193.63 35.8099 193.92H32.8299C32.9799 193.3 33.4299 192.51 34.3899 192.51V192.5Z" fill="url(#paint25_linear_825_3224)"/>
<path d="M43.3496 189.39L41.6696 189.83V191.32H40.6396V192.71H41.6696V195.99C41.6696 196.89 41.8396 197.47 42.1996 197.84C42.5396 198.22 43.0496 198.42 43.6896 198.42C44.1496 198.42 44.5696 198.36 44.8596 198.24L45.0296 198.18L44.9496 196.82L44.6596 196.9C44.5396 196.93 44.3197 196.97 44.0197 196.97C43.7197 196.97 43.3596 196.89 43.3596 195.96V192.72H45.0897V191.33H43.3596V189.4L43.3496 189.39Z" fill="url(#paint26_linear_825_3224)"/>
<path d="M52.0199 196.27V191.32H50.3099V195.53C50.3099 195.71 50.2699 195.89 50.2199 196.03C50.0399 196.46 49.5699 196.95 48.8499 196.95C48.3199 196.95 47.6099 196.76 47.6099 195.14V191.31H45.8999V195.34C45.8999 198.12 47.6799 198.42 48.4499 198.42C49.4299 198.42 50.0799 197.99 50.4699 197.6L50.5099 198.27H52.0799L52.0599 198C52.0199 197.55 52.0099 196.99 52.0099 196.25L52.0199 196.27Z" fill="url(#paint27_linear_825_3224)"/>
<path d="M56.0198 194.04C55.1498 193.72 54.9098 193.53 54.9098 193.17C54.9098 192.78 55.2498 192.54 55.7798 192.54C56.3898 192.54 56.8498 192.78 57.0098 192.88L57.2698 193.04L57.7398 191.71L57.5598 191.61C57.0898 191.34 56.4298 191.17 55.7998 191.17C54.3298 191.17 53.2498 192.07 53.2498 193.32C53.2498 193.96 53.5798 194.83 55.1798 195.38C56.0798 195.7 56.2598 195.96 56.2598 196.33C56.2598 196.78 55.8798 197.05 55.2098 197.05C54.6698 197.05 54.0798 196.83 53.7498 196.62L53.4798 196.45L53.0098 197.83L53.1898 197.93C53.7198 198.23 54.4498 198.41 55.1798 198.41C56.8398 198.41 57.9198 197.55 57.9198 196.23C57.9198 194.91 56.8998 194.38 56.0098 194.05L56.0198 194.04Z" fill="url(#paint28_linear_825_3224)"/>
<path d="M63.6099 191.32H61.8999V198.28H63.6099V191.32Z" fill="url(#paint29_linear_825_3224)"/>
<path d="M62.7598 188.77C62.1898 188.77 61.7598 189.19 61.7598 189.75C61.7598 190.31 62.1798 190.719 62.7398 190.719C63.0398 190.719 63.3198 190.609 63.4998 190.419C63.6698 190.239 63.7598 190.01 63.7498 189.75C63.7498 189.18 63.3298 188.77 62.7598 188.77Z" fill="url(#paint30_linear_825_3224)"/>
<path d="M71.3699 196.36V188.3H69.6598V191.77C69.2098 191.39 68.5799 191.18 67.8699 191.18C67.0399 191.18 66.2599 191.5 65.6799 192.08C64.9999 192.76 64.6298 193.76 64.6398 194.89C64.6398 196.94 65.9399 198.42 67.7399 198.42C68.5699 198.42 69.3098 198.11 69.8198 197.58L69.8498 198.27H71.4498L71.4299 198C71.3799 197.5 71.3798 196.75 71.3798 196.35L71.3699 196.36ZM69.6598 194.19V195.31C69.6598 195.49 69.6398 195.63 69.6098 195.76C69.4298 196.49 68.8098 196.98 68.0798 196.98C66.8098 196.98 66.3598 195.87 66.3598 194.83C66.3598 193.46 67.0398 192.58 68.1098 192.58C68.9598 192.58 69.4799 193.17 69.6199 193.76C69.6499 193.88 69.6698 194.06 69.6698 194.19H69.6598Z" fill="url(#paint31_linear_825_3224)"/>
<path d="M75.7699 191.17C73.7899 191.17 72.3999 192.71 72.3999 194.9C72.3999 197.09 73.7799 198.4 75.9199 198.4C77.0399 198.4 77.7999 198.17 78.2399 197.98L78.4299 197.9L78.1099 196.57L77.8399 196.68C77.4399 196.84 76.9599 197 76.0899 197C75.5199 197 74.2199 196.82 74.0699 195.25H78.7099L78.7399 194.98C78.7599 194.85 78.7799 194.68 78.7799 194.46C78.7799 192.82 77.8499 191.17 75.7799 191.17H75.7699ZM75.6799 192.5C76.0999 192.5 76.4299 192.62 76.6699 192.87C76.9799 193.19 77.0699 193.63 77.0999 193.92H74.1199C74.2699 193.3 74.7199 192.51 75.6799 192.51V192.5Z" fill="url(#paint32_linear_825_3224)"/>
<path d="M84.9498 196.48V194.06C84.9498 192.2 83.9598 191.17 82.1698 191.17C81.3098 191.17 80.4698 191.39 79.8498 191.78L79.6798 191.88L80.1298 193.13L80.3898 192.97C80.8298 192.69 81.4298 192.53 81.9898 192.53C82.7998 192.53 83.2198 192.9 83.2598 193.67C81.6998 193.69 80.5698 194.05 79.9098 194.7C79.4798 195.13 79.2598 195.67 79.2598 196.32C79.2598 197.36 80.0398 198.42 81.5398 198.42C82.2598 198.42 82.9398 198.17 83.4298 197.74L83.4898 198.28H85.1098L85.0598 197.99C84.9898 197.61 84.9598 197.12 84.9598 196.49L84.9498 196.48ZM81.8498 197.06C81.6398 197.06 80.9598 197 80.9598 196.19C80.9598 195.91 81.0498 195.69 81.2298 195.51C81.5798 195.17 82.2898 194.99 83.2798 194.98V195.85C83.2798 195.93 83.2598 196.04 83.2298 196.14C83.0798 196.56 82.6298 197.05 81.8598 197.05L81.8498 197.06Z" fill="url(#paint33_linear_825_3224)"/>
<path d="M88.8997 194.04C88.0297 193.72 87.7896 193.53 87.7896 193.17C87.7896 192.78 88.1296 192.54 88.6596 192.54C89.2796 192.54 89.7296 192.78 89.8896 192.88L90.1497 193.04L90.6197 191.71L90.4396 191.61C89.9696 191.34 89.3097 191.17 88.6797 191.17C87.2097 191.17 86.1296 192.07 86.1296 193.32C86.1296 193.96 86.4597 194.83 88.0597 195.38C88.9597 195.7 89.1396 195.96 89.1396 196.33C89.1396 196.78 88.7597 197.05 88.0897 197.05C87.5497 197.05 86.9596 196.83 86.6296 196.62L86.3596 196.45L85.8896 197.83L86.0696 197.93C86.5996 198.23 87.3297 198.41 88.0597 198.41C89.7197 198.41 90.7997 197.55 90.7997 196.23C90.7997 194.91 89.7796 194.38 88.8896 194.05L88.8997 194.04Z" fill="url(#paint34_linear_825_3224)"/>
<path d="M96.7398 189.39L95.0598 189.83V191.32H94.0298V192.71H95.0598V195.99C95.0598 196.89 95.2298 197.47 95.5898 197.84C95.9298 198.22 96.4398 198.42 97.0798 198.42C97.5398 198.42 97.9598 198.36 98.2498 198.24L98.4198 198.18L98.3398 196.82L98.0498 196.9C97.9298 196.93 97.7098 196.97 97.4098 196.97C97.1098 196.97 96.7498 196.89 96.7498 195.96V192.72H98.4798V191.33H96.7498V189.4L96.7398 189.39Z" fill="url(#paint35_linear_825_3224)"/>
<path d="M102.32 191.17C100.23 191.17 98.77 192.68 98.77 194.85C98.77 197.02 100.18 198.42 102.21 198.42C103.93 198.42 105.77 197.27 105.77 194.74C105.77 192.64 104.35 191.17 102.32 191.17ZM102.27 197.05C101.24 197.05 100.49 196.11 100.49 194.81C100.49 193.68 101.05 192.55 102.29 192.55C103.67 192.55 104.04 194.01 104.04 194.79C104.04 196.1 103.3 197.05 102.26 197.05H102.27Z" fill="url(#paint36_linear_825_3224)"/>
<path d="M114.38 191.17C113.73 191.17 113.23 191.32 112.76 191.67C112.55 191.82 112.35 192.02 112.18 192.24C111.78 191.57 111.07 191.17 110.25 191.17C109.43 191.17 108.83 191.44 108.33 191.97L108.3 191.32H106.74L106.76 191.59C106.8 192.08 106.81 192.6 106.81 193.32V198.28H108.49V194.13C108.49 193.95 108.52 193.78 108.57 193.63C108.73 193.15 109.19 192.63 109.84 192.63C110.87 192.63 110.98 193.7 110.98 194.16V198.28H112.66V194.04C112.66 193.87 112.69 193.68 112.74 193.54C112.9 193.09 113.34 192.64 113.94 192.64C114.73 192.64 115.14 193.23 115.14 194.39V198.3H116.82V194.25C116.82 192 115.51 191.2 114.38 191.2H114.4L114.38 191.17Z" fill="url(#paint37_linear_825_3224)"/>
<path d="M123.46 196.48V194.06C123.46 192.2 122.47 191.17 120.68 191.17C119.82 191.17 118.98 191.39 118.36 191.78L118.19 191.88L118.64 193.13L118.9 192.97C119.34 192.69 119.94 192.53 120.5 192.53C121.31 192.53 121.73 192.9 121.76 193.67C120.2 193.69 119.08 194.05 118.41 194.7C117.98 195.13 117.76 195.67 117.76 196.32C117.76 197.36 118.54 198.42 120.04 198.42C120.77 198.42 121.44 198.17 121.93 197.74L121.99 198.28H123.61L123.56 197.99C123.49 197.61 123.46 197.12 123.46 196.49V196.48ZM120.36 197.06C120.15 197.06 119.47 197 119.47 196.19C119.47 195.91 119.56 195.69 119.74 195.51C120.09 195.17 120.8 194.99 121.79 194.98V195.85C121.79 195.93 121.77 196.04 121.74 196.14C121.59 196.56 121.14 197.05 120.37 197.05L120.36 197.06Z" fill="url(#paint38_linear_825_3224)"/>
<path d="M128.48 191.17C127.58 191.17 126.9 191.54 126.46 191.98L126.41 191.32H124.84L124.86 191.59C124.9 192.08 124.91 192.6 124.91 193.32V198.28H126.62V194.15C126.62 193.97 126.64 193.8 126.69 193.68C126.84 193.19 127.34 192.65 128.08 192.65C128.94 192.65 129.38 193.21 129.38 194.31V198.29H131.09V194.18C131.09 191.97 129.69 191.18 128.49 191.18L128.48 191.17Z" fill="url(#paint39_linear_825_3224)"/>
<path d="M139.76 191.32L138.41 195.11C138.28 195.45 138.17 195.77 138.07 196.06C137.98 195.77 137.87 195.46 137.74 195.11L136.38 191.31H134.55L137.27 198.27H138.76L141.57 191.31H139.76V191.32Z" fill="url(#paint40_linear_825_3224)"/>
<path d="M147.21 196.48V194.06C147.21 192.2 146.22 191.17 144.43 191.17C143.57 191.17 142.73 191.39 142.11 191.78L141.94 191.88L142.39 193.13L142.65 192.97C143.09 192.69 143.69 192.53 144.25 192.53C145.06 192.53 145.48 192.9 145.51 193.67C143.95 193.69 142.83 194.05 142.16 194.7C141.73 195.13 141.51 195.67 141.51 196.32C141.51 197.36 142.29 198.42 143.79 198.42C144.51 198.42 145.19 198.17 145.68 197.74L145.74 198.28H147.36L147.31 197.99C147.24 197.61 147.21 197.12 147.21 196.49V196.48ZM144.11 197.06C143.9 197.06 143.22 197 143.22 196.19C143.22 195.91 143.31 195.69 143.49 195.51C143.84 195.17 144.55 194.99 145.54 194.98V195.85C145.54 195.93 145.52 196.04 145.49 196.14C145.34 196.56 144.89 197.05 144.12 197.05L144.11 197.06Z" fill="url(#paint41_linear_825_3224)"/>
<path d="M150.38 188.3H148.67V198.28H150.38V188.3Z" fill="url(#paint42_linear_825_3224)"/>
<path d="M154.99 191.17C152.9 191.17 151.44 192.68 151.44 194.85C151.44 197.02 152.85 198.42 154.88 198.42C156.6 198.42 158.44 197.27 158.44 194.74C158.44 192.64 157.02 191.17 154.99 191.17ZM154.94 197.05C153.91 197.05 153.16 196.11 153.16 194.81C153.16 193.68 153.72 192.55 154.96 192.55C156.35 192.55 156.71 194.01 156.71 194.79C156.71 196.1 155.97 197.05 154.93 197.05H154.94Z" fill="url(#paint43_linear_825_3224)"/>
<path d="M160.99 192.02L160.97 191.32H159.41L159.43 191.58C159.47 192.13 159.48 192.75 159.48 193.58V198.28H161.17V194.59C161.17 194.41 161.19 194.24 161.22 194.08C161.37 193.28 161.9 192.77 162.6 192.77C162.74 192.77 162.85 192.78 162.96 192.81L163.26 192.87V191.26L163.07 191.22C162.32 191.04 161.5 191.37 160.99 192.02Z" fill="url(#paint44_linear_825_3224)"/>
<defs>
<linearGradient id="paint0_linear_825_3224" x1="1.67969" y1="80.7597" x2="162.46" y2="80.7597" gradientUnits="userSpaceOnUse">
<stop stop-color="#45414F"/>
<stop offset="0.48" stop-color="#242229"/>
</linearGradient>
<linearGradient id="paint1_linear_825_3224" x1="5.0598" y1="80.2696" x2="159.08" y2="80.2696" gradientUnits="userSpaceOnUse">
<stop stop-color="#45414F"/>
<stop offset="0.48" stop-color="#242229"/>
</linearGradient>
<linearGradient id="paint2_linear_825_3224" x1="37.2298" y1="130.31" x2="47.0198" y2="130.31" gradientUnits="userSpaceOnUse">
<stop stop-color="#45414F"/>
<stop offset="0.48" stop-color="#242229"/>
</linearGradient>
<linearGradient id="paint3_linear_825_3224" x1="100.27" y1="127.96" x2="104.53" y2="127.96" gradientUnits="userSpaceOnUse">
<stop stop-color="#45414F"/>
<stop offset="0.48" stop-color="#242229"/>
</linearGradient>
<linearGradient id="paint4_linear_825_3224" x1="80.72" y1="135.35" x2="87.25" y2="135.35" gradientUnits="userSpaceOnUse">
<stop stop-color="#45414F"/>
<stop offset="0.48" stop-color="#242229"/>
</linearGradient>
<linearGradient id="paint5_linear_825_3224" x1="106.65" y1="138.55" x2="107.15" y2="138.55" gradientUnits="userSpaceOnUse">
<stop stop-color="#45414F"/>
<stop offset="0.48" stop-color="#242229"/>
</linearGradient>
<linearGradient id="paint6_linear_825_3224" x1="53.7097" y1="53.6598" x2="60.0197" y2="53.6598" gradientUnits="userSpaceOnUse">
<stop stop-color="#45414F"/>
<stop offset="0.48" stop-color="#242229"/>
</linearGradient>
<linearGradient id="paint7_linear_825_3224" x1="53.7097" y1="98.6597" x2="60.0197" y2="98.6597" gradientUnits="userSpaceOnUse">
<stop stop-color="#45414F"/>
<stop offset="0.48" stop-color="#242229"/>
</linearGradient>
<linearGradient id="paint8_linear_825_3224" x1="121.22" y1="68.6595" x2="127.53" y2="68.6595" gradientUnits="userSpaceOnUse">
<stop stop-color="#45414F"/>
<stop offset="0.48" stop-color="#242229"/>
</linearGradient>
<linearGradient id="paint9_linear_825_3224" x1="85.28" y1="32.3695" x2="91.59" y2="32.3695" gradientUnits="userSpaceOnUse">
<stop stop-color="#45414F"/>
<stop offset="0.48" stop-color="#242229"/>
</linearGradient>
<linearGradient id="paint10_linear_825_3224" x1="28.56" y1="72.7994" x2="126.14" y2="72.7994" gradientUnits="userSpaceOnUse">
<stop stop-color="#45414F"/>
<stop offset="0.48" stop-color="#242229"/>
</linearGradient>
<linearGradient id="paint11_linear_825_3224" x1="1.16983" y1="175.11" x2="23.1198" y2="175.11" gradientUnits="userSpaceOnUse">
<stop stop-color="#45414F"/>
<stop offset="0.48" stop-color="#242229"/>
</linearGradient>
<linearGradient id="paint12_linear_825_3224" x1="25.45" y1="177.62" x2="39.49" y2="177.62" gradientUnits="userSpaceOnUse">
<stop stop-color="#45414F"/>
<stop offset="0.48" stop-color="#242229"/>
</linearGradient>
<linearGradient id="paint13_linear_825_3224" x1="42.5001" y1="174.32" x2="57.8801" y2="174.32" gradientUnits="userSpaceOnUse">
<stop stop-color="#45414F"/>
<stop offset="0.48" stop-color="#242229"/>
</linearGradient>
<linearGradient id="paint14_linear_825_3224" x1="61.8398" y1="177.63" x2="70.2598" y2="177.63" gradientUnits="userSpaceOnUse">
<stop stop-color="#45414F"/>
<stop offset="0.48" stop-color="#242229"/>
</linearGradient>
<linearGradient id="paint15_linear_825_3224" x1="71.1597" y1="177.8" x2="87.0297" y2="177.8" gradientUnits="userSpaceOnUse">
<stop stop-color="#45414F"/>
<stop offset="0.48" stop-color="#242229"/>
</linearGradient>
<linearGradient id="paint16_linear_825_3224" x1="76.9099" y1="165.53" x2="83.8999" y2="165.53" gradientUnits="userSpaceOnUse">
<stop stop-color="#45414F"/>
<stop offset="0.48" stop-color="#242229"/>
</linearGradient>
<linearGradient id="paint17_linear_825_3224" x1="89.99" y1="177.62" x2="113.1" y2="177.62" gradientUnits="userSpaceOnUse">
<stop stop-color="#45414F"/>
<stop offset="0.48" stop-color="#242229"/>
</linearGradient>
<linearGradient id="paint18_linear_825_3224" x1="116.13" y1="177.78" x2="130.51" y2="177.78" gradientUnits="userSpaceOnUse">
<stop stop-color="#45414F"/>
<stop offset="0.48" stop-color="#242229"/>
</linearGradient>
<linearGradient id="paint19_linear_825_3224" x1="132.41" y1="174.32" x2="147.79" y2="174.32" gradientUnits="userSpaceOnUse">
<stop stop-color="#45414F"/>
<stop offset="0.48" stop-color="#242229"/>
</linearGradient>
<linearGradient id="paint20_linear_825_3224" x1="150.65" y1="177.8" x2="163.75" y2="177.8" gradientUnits="userSpaceOnUse">
<stop stop-color="#45414F"/>
<stop offset="0.48" stop-color="#242229"/>
</linearGradient>
<linearGradient id="paint21_linear_825_3224" x1="0.389883" y1="193.36" x2="7.19988" y2="193.36" gradientUnits="userSpaceOnUse">
<stop stop-color="#45414F"/>
<stop offset="0.48" stop-color="#242229"/>
</linearGradient>
<linearGradient id="paint22_linear_825_3224" x1="8.1499" y1="194.8" x2="15.1599" y2="194.8" gradientUnits="userSpaceOnUse">
<stop stop-color="#45414F"/>
<stop offset="0.48" stop-color="#242229"/>
</linearGradient>
<linearGradient id="paint23_linear_825_3224" x1="16.1099" y1="194.72" x2="22.3599" y2="194.72" gradientUnits="userSpaceOnUse">
<stop stop-color="#45414F"/>
<stop offset="0.48" stop-color="#242229"/>
</linearGradient>
<linearGradient id="paint24_linear_825_3224" x1="23.3498" y1="193.36" x2="30.1598" y2="193.36" gradientUnits="userSpaceOnUse">
<stop stop-color="#45414F"/>
<stop offset="0.48" stop-color="#242229"/>
</linearGradient>
<linearGradient id="paint25_linear_825_3224" x1="31.1099" y1="194.79" x2="37.4799" y2="194.79" gradientUnits="userSpaceOnUse">
<stop stop-color="#45414F"/>
<stop offset="0.48" stop-color="#242229"/>
</linearGradient>
<linearGradient id="paint26_linear_825_3224" x1="40.6396" y1="193.9" x2="45.0897" y2="193.9" gradientUnits="userSpaceOnUse">
<stop stop-color="#45414F"/>
<stop offset="0.48" stop-color="#242229"/>
</linearGradient>
<linearGradient id="paint27_linear_825_3224" x1="45.9099" y1="194.87" x2="52.0899" y2="194.87" gradientUnits="userSpaceOnUse">
<stop stop-color="#45414F"/>
<stop offset="0.48" stop-color="#242229"/>
</linearGradient>
<linearGradient id="paint28_linear_825_3224" x1="53.0198" y1="194.78" x2="57.9298" y2="194.78" gradientUnits="userSpaceOnUse">
<stop stop-color="#45414F"/>
<stop offset="0.48" stop-color="#242229"/>
</linearGradient>
<linearGradient id="paint29_linear_825_3224" x1="61.8999" y1="194.8" x2="63.6099" y2="194.8" gradientUnits="userSpaceOnUse">
<stop stop-color="#45414F"/>
<stop offset="0.48" stop-color="#242229"/>
</linearGradient>
<linearGradient id="paint30_linear_825_3224" x1="61.7498" y1="189.74" x2="63.7498" y2="189.74" gradientUnits="userSpaceOnUse">
<stop stop-color="#45414F"/>
<stop offset="0.48" stop-color="#242229"/>
</linearGradient>
<linearGradient id="paint31_linear_825_3224" x1="64.6498" y1="193.36" x2="71.4598" y2="193.36" gradientUnits="userSpaceOnUse">
<stop stop-color="#45414F"/>
<stop offset="0.48" stop-color="#242229"/>
</linearGradient>
<linearGradient id="paint32_linear_825_3224" x1="72.3999" y1="194.79" x2="78.7699" y2="194.79" gradientUnits="userSpaceOnUse">
<stop stop-color="#45414F"/>
<stop offset="0.48" stop-color="#242229"/>
</linearGradient>
<linearGradient id="paint33_linear_825_3224" x1="79.2598" y1="194.79" x2="85.1198" y2="194.79" gradientUnits="userSpaceOnUse">
<stop stop-color="#45414F"/>
<stop offset="0.48" stop-color="#242229"/>
</linearGradient>
<linearGradient id="paint34_linear_825_3224" x1="85.8896" y1="194.78" x2="90.8097" y2="194.78" gradientUnits="userSpaceOnUse">
<stop stop-color="#45414F"/>
<stop offset="0.48" stop-color="#242229"/>
</linearGradient>
<linearGradient id="paint35_linear_825_3224" x1="94.0298" y1="193.9" x2="98.4698" y2="193.9" gradientUnits="userSpaceOnUse">
<stop stop-color="#45414F"/>
<stop offset="0.48" stop-color="#242229"/>
</linearGradient>
<linearGradient id="paint36_linear_825_3224" x1="98.77" y1="194.8" x2="105.77" y2="194.8" gradientUnits="userSpaceOnUse">
<stop stop-color="#45414F"/>
<stop offset="0.48" stop-color="#242229"/>
</linearGradient>
<linearGradient id="paint37_linear_825_3224" x1="106.73" y1="194.72" x2="116.8" y2="194.72" gradientUnits="userSpaceOnUse">
<stop stop-color="#45414F"/>
<stop offset="0.48" stop-color="#242229"/>
</linearGradient>
<linearGradient id="paint38_linear_825_3224" x1="117.77" y1="194.79" x2="123.63" y2="194.79" gradientUnits="userSpaceOnUse">
<stop stop-color="#45414F"/>
<stop offset="0.48" stop-color="#242229"/>
</linearGradient>
<linearGradient id="paint39_linear_825_3224" x1="124.84" y1="194.72" x2="131.08" y2="194.72" gradientUnits="userSpaceOnUse">
<stop stop-color="#45414F"/>
<stop offset="0.48" stop-color="#242229"/>
</linearGradient>
<linearGradient id="paint40_linear_825_3224" x1="134.54" y1="194.8" x2="141.57" y2="194.8" gradientUnits="userSpaceOnUse">
<stop stop-color="#45414F"/>
<stop offset="0.48" stop-color="#242229"/>
</linearGradient>
<linearGradient id="paint41_linear_825_3224" x1="141.52" y1="194.79" x2="147.38" y2="194.79" gradientUnits="userSpaceOnUse">
<stop stop-color="#45414F"/>
<stop offset="0.48" stop-color="#242229"/>
</linearGradient>
<linearGradient id="paint42_linear_825_3224" x1="148.67" y1="193.29" x2="150.38" y2="193.29" gradientUnits="userSpaceOnUse">
<stop stop-color="#45414F"/>
<stop offset="0.48" stop-color="#242229"/>
</linearGradient>
<linearGradient id="paint43_linear_825_3224" x1="151.44" y1="194.8" x2="158.44" y2="194.8" gradientUnits="userSpaceOnUse">
<stop stop-color="#45414F"/>
<stop offset="0.48" stop-color="#242229"/>
</linearGradient>
<linearGradient id="paint44_linear_825_3224" x1="159.4" y1="194.72" x2="163.26" y2="194.72" gradientUnits="userSpaceOnUse">
<stop stop-color="#45414F"/>
<stop offset="0.48" stop-color="#242229"/>
</linearGradient>
</defs>
</svg>
