<?xml version="1.0" encoding="UTF-8"?>
<svg id="Capa_2" data-name="Capa 2" xmlns="http://www.w3.org/2000/svg" viewBox="0 0 433.17 100">
  <defs>
    <style>
      .cls-1 {
        fill: #45414f;
        stroke-width: 0px;
      }
    </style>
  </defs>
  <g id="Marca_fondo_blanco" data-name="Marca fondo blanco">
    <g id="Logo">
      <g id="Tipografia">
        <g>
          <polygon class="cls-1" points="122.56 16.07 103.6 59.64 112.57 59.64 126.95 26.67 141.27 59.64 150.25 59.64 131.29 16.07 122.56 16.07"/>
          <path class="cls-1" d="m170.44,26.22c-4.93,0-8.38,2.43-10.23,5.05l-.27-4.33h-6.13l.04.54c.18,2.44.26,4.99.26,8.54v23.62h6.78v-19.56c0-.96.13-1.88.37-2.54.85-2.76,3.42-5.54,7.27-5.54,5.67,0,6.86,4.82,6.86,8.87v18.77h6.78v-19.43c0-13.32-9.77-13.99-11.73-13.99Z"/>
          <path class="cls-1" d="m219.02,50.95V12.14h-6.78v18c-1.99-2.48-5.33-3.92-9.22-3.92s-7.22,1.46-9.85,4.11c-3.19,3.21-4.94,7.98-4.9,13.42,0,9.62,5.93,16.61,14.1,16.61,4.41,0,8.32-1.97,10.54-5.23l.22,4.51h6.21l-.05-.55c-.23-2.48-.26-6.17-.26-8.14Zm-6.78-10.61v5.5c0,.95-.08,1.68-.25,2.37-.94,3.88-4.15,6.49-7.99,6.49-6.56,0-8.89-6.05-8.89-11.22,0-7.03,3.63-11.75,9.03-11.75,4.41,0,7.13,3.16,7.86,6.31.15.56.25,1.42.25,2.29Z"/>
          <path class="cls-1" d="m242.16,26.22c-3.62,0-6.86,2.19-8.62,5.71l-.16-4.99h-6.08l.04.53c.18,2.71.26,5.75.26,9.86v22.31h6.71v-17.4c0-.95.13-1.85.25-2.59.77-4.25,3.62-6.99,7.26-6.99.72,0,1.28.06,1.86.19l.61.13v-6.45l-.38-.09c-.61-.15-1.1-.21-1.76-.21Z"/>
          <path class="cls-1" d="m262.39,26.22c-9.73,0-16.27,6.96-16.27,17.33s6.47,16.81,15.74,16.81c8.13,0,16.33-5.36,16.33-17.33,0-10.05-6.35-16.81-15.81-16.81Zm-.26,28.82c-5.31,0-9.16-4.91-9.16-11.68,0-5.88,2.87-11.81,9.29-11.81s9.02,6.06,9.02,11.68c0,6.84-3.85,11.81-9.16,11.81Z"/>
          <polygon class="cls-1" points="271.89 13.25 264.15 13.25 257.75 23.62 263.02 23.62 271.89 13.25"/>
          <path class="cls-1" d="m319.93,26.22c-2.94,0-5.2.72-7.33,2.33-1.24.93-2.35,2.14-3.24,3.54-1.68-3.64-5.11-5.87-9.13-5.87s-7.4,1.69-9.75,5.04l-.22-4.31h-6.07l.04.54c.18,2.44.26,4.99.26,8.54v23.62h6.65v-19.62c0-1.01.14-1.9.44-2.66.83-2.61,3.28-5.42,6.68-5.42,3.84,0,6.13,3.07,6.13,8.21v19.49h6.65v-20.08c0-.91.16-1.9.43-2.72.85-2.44,3.15-4.9,6.36-4.9,5.29,0,6.4,5.03,6.4,9.26v18.44h6.65v-19.17c0-10.51-5.65-14.25-10.94-14.25Z"/>
          <path class="cls-1" d="m352.38,26.22c-9.07,0-15.41,7.23-15.41,17.59s6.33,16.48,16.13,16.48c5.22,0,8.75-1.09,10.78-2.01l.38-.17-1.22-5.1-.54.23c-1.96.83-4.36,1.6-8.61,1.6-6.24,0-10.09-3.73-10.39-10h22.27l.08-.71c.07-.61.17-1.43.17-2.48,0-7.12-3.57-15.43-13.64-15.43Zm-.46,5.13c2.15,0,3.89.66,5.16,1.95,1.98,2.02,2.31,5.01,2.35,6.41h-15.8c.55-3.35,2.81-8.37,8.29-8.37Z"/>
          <path class="cls-1" d="m400.63,50.95V12.14h-6.78v18c-1.99-2.48-5.33-3.92-9.22-3.92s-7.22,1.46-9.85,4.11c-3.19,3.21-4.94,7.98-4.9,13.42,0,9.62,5.93,16.61,14.1,16.61,4.41,0,8.32-1.97,10.54-5.23l.22,4.51h6.21l-.05-.55c-.23-2.48-.26-6.17-.26-8.14Zm-6.78-10.61v5.5c0,.95-.08,1.68-.25,2.37-.94,3.88-4.15,6.49-7.99,6.49-6.56,0-8.89-6.05-8.89-11.22,0-7.03,3.63-11.75,9.02-11.75,4.41,0,7.13,3.16,7.86,6.31.15.56.25,1.42.25,2.29Z"/>
          <path class="cls-1" d="m433.06,59.05c-.35-1.91-.52-4.37-.52-7.51v-11.85c0-6.14-2.18-13.47-12.59-13.47-3.97,0-7.88,1.06-10.72,2.9l-.33.21,1.65,4.77.54-.35c2.21-1.43,5.2-2.28,8.01-2.28,4.46,0,6.73,2.3,6.73,6.83v.16c-7.44.03-13.01,1.68-16.13,4.79-1.98,1.97-2.99,4.5-2.99,7.5,0,4.77,3.51,9.6,10.22,9.6,3.79,0,7.29-1.54,9.54-4.17l.4,3.45h6.3l-.11-.59Zm-14.61-3.95c-2.39,0-4.95-1.31-4.95-5,0-1.61.51-2.89,1.55-3.91,1.86-1.82,5.38-2.74,10.48-2.74.14,0,.29,0,.44,0v5.01c0,.5-.11,1.09-.3,1.67-.78,2.29-3.14,4.97-7.21,4.97Z"/>
        </g>
        <g>
          <path class="cls-1" d="m117.92,84.22v-16.32h-3.44v7.02c-.9-.77-2.17-1.21-3.61-1.21-1.67,0-3.24.65-4.42,1.83-1.37,1.38-2.12,3.41-2.11,5.7,0,4.14,2.63,7.15,6.25,7.15,1.67,0,3.18-.62,4.2-1.69l.07,1.39h3.22l-.05-.55c-.1-1.01-.11-2.52-.11-3.33Zm-3.44-4.38v2.27c0,.37-.03.64-.1.91-.37,1.47-1.61,2.46-3.1,2.46-2.56,0-3.47-2.24-3.47-4.34,0-2.77,1.38-4.56,3.52-4.56,1.71,0,2.76,1.19,3.04,2.39.07.25.09.61.09.87Z"/>
          <path class="cls-1" d="m127.16,73.71c-4.22,0-7.16,3.06-7.16,7.45s2.85,7.23,6.94,7.23c3.46,0,7.19-2.33,7.19-7.45,0-4.26-2.86-7.23-6.97-7.23Zm-.11,11.9c-2.07,0-3.58-1.91-3.58-4.53,0-2.28,1.12-4.58,3.64-4.58,2.79,0,3.52,2.96,3.52,4.53,0,2.66-1.51,4.58-3.58,4.58Z"/>
          <path class="cls-1" d="m143.39,73.71c-1.83,0-3.19.74-4.08,1.64l-.09-1.34h-3.17l.04.54c.08,1,.11,2.04.11,3.5v10.04h3.44v-8.37c0-.36.05-.7.14-.96.33-1.04,1.32-2.08,2.8-2.08,1.73,0,2.61,1.13,2.61,3.37v8.04h3.44v-8.31c0-4.48-2.83-6.07-5.25-6.07Z"/>
          <path class="cls-1" d="m164.21,84.22v-16.32h-3.44v7.02c-.9-.77-2.17-1.21-3.61-1.21-1.67,0-3.24.65-4.42,1.83-1.37,1.38-2.12,3.41-2.11,5.7,0,4.14,2.63,7.15,6.25,7.15,1.67,0,3.18-.62,4.2-1.69l.07,1.39h3.22l-.05-.55c-.1-1.01-.11-2.52-.11-3.33Zm-3.44-4.38v2.27c0,.37-.03.64-.1.91-.37,1.47-1.61,2.46-3.1,2.46-2.56,0-3.47-2.24-3.47-4.34,0-2.77,1.38-4.56,3.52-4.56,1.71,0,2.76,1.19,3.04,2.39.07.25.09.61.09.87Z"/>
          <path class="cls-1" d="m173.09,73.71c-4,0-6.8,3.11-6.8,7.56s2.79,7.1,7.11,7.1c2.26,0,3.79-.46,4.67-.85l.38-.17-.65-2.68-.54.22c-.8.33-1.79.64-3.53.64-1.16,0-3.77-.36-4.08-3.54h9.35l.06-.55c.03-.25.07-.61.07-1.06,0-3.32-1.87-6.67-6.05-6.67Zm-.19,2.7c.84,0,1.51.25,2,.74.63.64.81,1.54.87,2.12h-6.02c.31-1.26,1.21-2.87,3.15-2.87Z"/>
          <path class="cls-1" d="m190.99,70.11l-3.39.88v3.02h-2.08v2.81h2.08v6.64c0,1.81.35,3,1.07,3.74.69.76,1.73,1.17,3.01,1.17.94,0,1.77-.13,2.35-.36l.33-.13-.17-2.75-.59.16c-.25.07-.68.15-1.29.15-.64,0-1.33-.16-1.33-2.04v-6.56h3.5v-2.81h-3.5v-3.91Z"/>
          <path class="cls-1" d="m208.47,84.03v-10.02h-3.44v8.53c0,.36-.07.73-.18,1.02-.36.86-1.3,1.86-2.76,1.86-1.07,0-2.5-.38-2.5-3.66v-7.75h-3.44v8.15c0,5.62,3.59,6.23,5.14,6.23,1.99,0,3.29-.86,4.08-1.66l.09,1.36h3.18l-.04-.54c-.08-.92-.11-2.04-.11-3.53Z"/>
          <path class="cls-1" d="m216.53,79.53c-1.75-.65-2.23-1.03-2.23-1.75,0-.78.69-1.28,1.75-1.28,1.24,0,2.15.48,2.49.68l.53.32.96-2.71-.36-.21c-.95-.55-2.28-.88-3.55-.88-2.98,0-5.14,1.83-5.14,4.34,0,1.29.67,3.06,3.88,4.17,1.82.66,2.17,1.19,2.17,1.94,0,.92-.77,1.45-2.11,1.45-1.1,0-2.27-.44-2.95-.87l-.54-.34-.95,2.81.36.2c1.06.61,2.53.96,4.02.96,3.36,0,5.52-1.74,5.52-4.42s-2.06-3.75-3.85-4.42Z"/>
          <path class="cls-1" d="m230.11,68.85c-1.16,0-2.03.85-2.03,1.99s.85,1.96,1.97,1.96c.61,0,1.16-.22,1.54-.61.35-.36.53-.84.51-1.36,0-1.15-.84-1.98-2-1.98Z"/>
          <rect class="cls-1" x="228.39" y="74.01" width="3.44" height="14.09"/>
          <path class="cls-1" d="m247.49,84.22v-16.32h-3.44v7.02c-.9-.77-2.17-1.21-3.61-1.21-1.67,0-3.24.65-4.42,1.83-1.37,1.38-2.12,3.41-2.11,5.7,0,4.14,2.63,7.15,6.25,7.15,1.67,0,3.18-.62,4.2-1.69l.07,1.39h3.22l-.05-.55c-.1-1.01-.11-2.52-.11-3.33Zm-3.44-4.38v2.27c0,.37-.03.64-.1.91-.37,1.47-1.61,2.46-3.1,2.46-2.56,0-3.47-2.24-3.47-4.34,0-2.77,1.38-4.56,3.52-4.56,1.71,0,2.76,1.19,3.04,2.39.07.25.09.61.09.87Z"/>
          <path class="cls-1" d="m256.37,73.71c-4,0-6.8,3.11-6.8,7.56s2.79,7.1,7.11,7.1c2.26,0,3.79-.46,4.67-.85l.38-.17-.65-2.68-.54.22c-.8.33-1.79.64-3.53.64-1.16,0-3.77-.36-4.08-3.54h9.35l.06-.55c.03-.25.07-.61.07-1.06,0-3.32-1.87-6.67-6.05-6.67Zm-.19,2.7c.84,0,1.51.25,2,.74.63.64.81,1.54.87,2.12h-6.02c.31-1.26,1.21-2.87,3.15-2.87Z"/>
          <path class="cls-1" d="m274.88,84.46v-4.89c0-3.78-1.99-5.85-5.61-5.85-1.73,0-3.44.45-4.68,1.24l-.34.21.9,2.53.53-.33c.89-.56,2.1-.9,3.23-.9,1.64,0,2.48.75,2.55,2.3-3.14.05-5.41.76-6.76,2.09-.87.87-1.31,1.97-1.31,3.27,0,2.12,1.58,4.26,4.61,4.26,1.46,0,2.82-.5,3.81-1.38l.13,1.09h3.27l-.11-.59c-.14-.76-.21-1.78-.21-3.04Zm-6.25,1.18c-.42,0-1.8-.13-1.8-1.77,0-.57.18-1.02.55-1.38.7-.69,2.13-1.05,4.14-1.07v1.78c0,.17-.04.38-.11.59-.3.86-1.21,1.86-2.78,1.86Z"/>
          <path class="cls-1" d="m282.82,79.53c-1.75-.65-2.23-1.03-2.23-1.75,0-.78.69-1.28,1.75-1.28,1.24,0,2.15.48,2.49.68l.53.32.96-2.71-.36-.21c-.95-.55-2.28-.88-3.55-.88-2.98,0-5.14,1.83-5.14,4.34,0,1.29.67,3.06,3.88,4.17,1.82.66,2.17,1.19,2.17,1.94,0,.92-.77,1.45-2.11,1.45-1.1,0-2.27-.44-2.95-.87l-.54-.34-.95,2.81.36.2c1.06.61,2.53.96,4.02.96,3.36,0,5.52-1.74,5.52-4.42s-2.06-3.75-3.85-4.42Z"/>
          <path class="cls-1" d="m298.63,70.11l-3.39.88v3.02h-2.08v2.81h2.08v6.64c0,1.81.35,3,1.07,3.74.69.76,1.73,1.17,3.01,1.17.94,0,1.77-.13,2.35-.36l.33-.13-.17-2.75-.59.16c-.25.07-.68.15-1.29.15-.64,0-1.33-.16-1.33-2.04v-6.56h3.5v-2.81h-3.5v-3.91Z"/>
          <path class="cls-1" d="m309.9,73.71c-4.22,0-7.16,3.06-7.16,7.45s2.85,7.23,6.94,7.23c3.46,0,7.19-2.33,7.19-7.45,0-4.26-2.86-7.23-6.97-7.23Zm-.11,11.9c-2.07,0-3.58-1.91-3.58-4.53,0-2.28,1.12-4.58,3.64-4.58,2.79,0,3.52,2.96,3.52,4.53,0,2.66-1.51,4.58-3.58,4.58Z"/>
          <path class="cls-1" d="m334.21,73.71c-1.31,0-2.31.31-3.26,1.02-.43.32-.83.71-1.17,1.15-.81-1.36-2.24-2.17-3.89-2.17s-2.87.54-3.87,1.61l-.07-1.31h-3.15l.04.54c.08,1,.11,2.04.11,3.5v10.04h3.39v-8.4c0-.38.06-.71.17-1.01.32-.98,1.25-2.03,2.55-2.03,2.08,0,2.3,2.17,2.3,3.1v8.34h3.39v-8.58c0-.34.06-.72.17-1.02.33-.91,1.2-1.83,2.42-1.83,1.6,0,2.41,1.19,2.41,3.53v7.91h3.39v-8.21c0-4.56-2.65-6.18-4.91-6.18Z"/>
          <path class="cls-1" d="m352.53,84.46v-4.89c0-3.78-1.99-5.85-5.61-5.85-1.73,0-3.44.45-4.68,1.24l-.34.21.9,2.53.53-.33c.89-.56,2.1-.9,3.23-.9,1.64,0,2.48.75,2.55,2.3-3.14.05-5.41.76-6.76,2.09-.87.87-1.31,1.97-1.31,3.27,0,2.12,1.58,4.26,4.61,4.26,1.46,0,2.82-.5,3.81-1.38l.13,1.09h3.27l-.11-.59c-.14-.76-.21-1.78-.21-3.04Zm-6.25,1.18c-.42,0-1.8-.13-1.8-1.77,0-.57.18-1.02.55-1.38.7-.69,2.13-1.05,4.14-1.07v1.78c0,.17-.04.38-.11.59-.3.86-1.21,1.86-2.78,1.86Z"/>
          <path class="cls-1" d="m362.65,73.71c-1.83,0-3.19.74-4.08,1.64l-.09-1.34h-3.17l.04.54c.08,1,.11,2.04.11,3.5v10.04h3.44v-8.37c0-.36.05-.7.14-.96.33-1.04,1.32-2.08,2.8-2.08,1.73,0,2.61,1.13,2.61,3.37v8.04h3.44v-8.31c0-4.48-2.83-6.07-5.25-6.07Z"/>
          <path class="cls-1" d="m385.39,74.01l-2.72,7.68c-.26.7-.49,1.33-.69,1.93-.19-.59-.41-1.23-.67-1.92l-2.76-7.69h-3.69l5.5,14.09h3.01l5.68-14.09h-3.65Z"/>
          <path class="cls-1" d="m400.42,84.46v-4.89c0-3.78-1.99-5.85-5.61-5.85-1.73,0-3.44.45-4.68,1.24l-.34.21.9,2.53.53-.33c.89-.56,2.1-.9,3.23-.9,1.64,0,2.48.75,2.55,2.3-3.14.05-5.41.76-6.76,2.09-.87.87-1.31,1.97-1.31,3.27,0,2.12,1.58,4.26,4.61,4.26,1.46,0,2.82-.5,3.81-1.38l.13,1.09h3.27l-.11-.59c-.14-.76-.21-1.78-.21-3.04Zm-6.25,1.18c-.42,0-1.8-.13-1.8-1.77,0-.57.18-1.02.55-1.38.7-.69,2.13-1.05,4.14-1.07v1.78c0,.17-.04.38-.11.59-.3.86-1.21,1.86-2.78,1.86Z"/>
          <rect class="cls-1" x="403.36" y="67.9" width="3.44" height="20.2"/>
          <path class="cls-1" d="m416.1,73.71c-4.22,0-7.16,3.06-7.16,7.45s2.85,7.23,6.94,7.23c3.46,0,7.19-2.33,7.19-7.45,0-4.26-2.87-7.23-6.97-7.23Zm-.11,11.9c-2.07,0-3.58-1.91-3.58-4.53,0-2.28,1.12-4.58,3.64-4.58,2.79,0,3.52,2.96,3.52,4.53,0,2.66-1.51,4.58-3.58,4.58Z"/>
          <path class="cls-1" d="m432.4,73.81c-1.53-.37-3.17.3-4.19,1.61l-.05-1.41h-3.16l.04.53c.08,1.12.11,2.37.11,4.05v9.5h3.41v-7.48c0-.37.05-.72.1-1.02.3-1.63,1.37-2.65,2.78-2.65.28,0,.5.02.73.07l.61.13v-3.26l-.38-.09Z"/>
        </g>
      </g>
      <g id="Logo-2" data-name="Logo">
        <g id="Estrellas">
          <rect class="cls-1" x="31.31" y="30.35" width="4.15" height="4.15" rx="2.08" ry="2.08"/>
          <rect class="cls-1" x="31.31" y="60.06" width="4.15" height="4.15" rx="2.08" ry="2.08"/>
          <rect class="cls-1" x="75.08" y="40.26" width="4.15" height="4.15" rx="2.08" ry="2.08"/>
          <rect class="cls-1" x="51.76" y="16.61" width="4.15" height="4.15" rx="2.08" ry="2.08"/>
        </g>
        <path id="Constelacion" class="cls-1" d="m75.89,19.4c-1.32,0-2.4,1.07-2.4,2.4,0,.51.16.98.43,1.37l-1.3,1.8c-.14-.03-.28-.05-.42-.05-.57,0-1.08.25-1.44.65l-1.76-.54c-.03-1.3-1.09-2.35-2.39-2.35s-2.4,1.07-2.4,2.4,1.07,2.4,2.4,2.4c.8,0,1.51-.39,1.94-1l1.74.53c.02.2.07.39.14.56l-7.04,7.29c-.31-.15-.67-.24-1.04-.24-1.32,0-2.4,1.07-2.4,2.4,0,.72.32,1.36.82,1.8l-3.11,7.34c-1.03.04-1.85.88-1.85,1.91,0,.68.35,1.27.88,1.61l-.29,2.11c-.54.11-1.01.39-1.36.8l-12.24-5c0-.05,0-.1,0-.15,0-.55-.19-1.06-.5-1.46l2.57-3.82c.99-.08,1.77-.9,1.77-1.91,0-.52-.21-1-.55-1.35l.07-3.35c.96-.31,1.66-1.21,1.66-2.28,0-1.32-1.07-2.4-2.4-2.4-.4,0-.78.1-1.11.28l-6.79-6.55c.07-.2.12-.42.12-.65,0-1.06-.86-1.92-1.92-1.92-.72,0-1.35.4-1.68.99l-6.4-.56c-.23-1.08-1.19-1.88-2.34-1.88-1.32,0-2.4,1.07-2.4,2.4s1.07,2.4,2.4,2.4c.97,0,1.8-.57,2.18-1.4l6.41.56c.25.77.97,1.33,1.83,1.33.27,0,.53-.06.76-.16l6.78,6.54c-.15.31-.23.66-.23,1.02,0,1.05.68,1.94,1.62,2.26l-.06,2.8c-.99.07-1.77.9-1.77,1.91,0,.54.23,1.03.59,1.38l-2.35,3.5c-.2-.06-.41-.09-.63-.09-.57,0-1.1.2-1.51.54l-9.77-6.2c.02-.1.03-.21.03-.31,0-1.06-.86-1.92-1.92-1.92-.65,0-1.22.32-1.56.81l-6.02-1.23c-.13-1.2-1.15-2.13-2.38-2.13-1.32,0-2.4,1.07-2.4,2.4s1.07,2.4,2.4,2.4c.88,0,1.64-.47,2.06-1.18l6.02,1.23c.18.88.95,1.54,1.88,1.54.4,0,.77-.12,1.07-.33l9.77,6.2c-.05.19-.07.38-.07.58,0,1.32,1.07,2.4,2.4,2.4.76,0,1.44-.36,1.88-.91l12.19,5.06c0,.05,0,.11,0,.16,0,1.09.73,2.01,1.73,2.3l.35,6.83c-.66.3-1.11.97-1.11,1.74,0,.25.05.49.14.71l-.59.56c-.34-.19-.74-.3-1.16-.3-1.32,0-2.4,1.07-2.4,2.4s1.07,2.4,2.4,2.4,2.4-1.07,2.4-2.4c0-.35-.08-.68-.21-.98l.64-.61c.22.09.45.13.7.13,1.06,0,1.92-.86,1.92-1.92,0-.81-.5-1.49-1.2-1.78l-.35-6.86c.58-.22,1.05-.66,1.32-1.22l11.31,1.31c.24,1.07,1.19,1.88,2.34,1.88,1.32,0,2.4-1.07,2.4-2.4s-1.07-2.4-2.4-2.4c-.97,0-1.8.58-2.18,1.41l-11.29-1.3c-.15-.74-.65-1.35-1.31-1.66l.28-2.05c.84-.21,1.46-.96,1.46-1.86,0-.53-.22-1.02-.57-1.36l3.1-7.31c.06,0,.12,0,.18,0,1.32,0,2.4-1.07,2.4-2.4,0-.4-.1-.77-.27-1.1l7.04-7.29c.21.08.44.12.68.12,1.06,0,1.92-.86,1.92-1.92,0-.36-.1-.69-.27-.98l1.29-1.78c.24.08.49.12.75.12,1.32,0,2.4-1.07,2.4-2.4s-1.07-2.4-2.4-2.4Z"/>
        <g>
          <path class="cls-1" d="m63.35,83.37c.21-.04.42-.13.64-.11.19.02.41.1.38.32-.02.16.25.2.28.04.08-.4-.29-.66-.64-.73-.41-.08-.99.22-1.27-.2-.13-.2-.14-.51-.17-.74-.14-.95-.23-1.91-.38-2.86-.03-.17-.32-.13-.31.04.08.93.23,1.86.32,2.79.04.8.1,1.63,1.15,1.44Z"/>
          <path class="cls-1" d="m66.38,88.01c-.19.24-.33.46-.33.59.11-.2.22-.39.33-.59Z"/>
          <path class="cls-1" d="m51.78,91.55c-.59-1.23-.82-2.6-1.32-3.87-.25-.66-.61-1.29-.77-1.99.02-.43,0-.74-.01-1.16.02-.58.14-1.15.26-1.72.28-1.34.58-2.67.79-4.03.03-.17-.21-.24-.26-.07-.17.61-.34,1.22-.49,1.83-.28,1.21-.64,2.4-.81,3.63-.04.42-.1.88,0,1.29.09.14.14.3.17.46.16.55.43,1.05.66,1.57.55,1.3.91,2.68,1.46,3.98.37.91.94,1.74,1.75,2.31.09.07.22-.09.12-.16-.71-.55-1.17-1.28-1.56-2.08Z"/>
          <path class="cls-1" d="m50,0C22.43,0,0,22.43,0,50s22.43,50,50,50,50-22.43,50-50S77.57,0,50,0ZM13.76,81.08c-.08-.28-.17-.55-.26-.83-.07-.21-.37-.12-.33.09,0,.02,0,.03,0,.05-.27-.32-.53-.65-.79-.98.76-.92,1.65-1.58,2.19.09.42,1.28.84,2.57,1.26,3.85-.72-.73-1.41-1.49-2.08-2.26Zm16.1,11.75c.21.31.54.44.9.41,1.02.02,2.06.04,3.04.36-1.12.03-2.24.02-3.36-.03-1.17-.53-2.31-1.1-3.42-1.71-.97-1.41-1.92-2.82-2.87-4.24.58.04,2.19.2,1.63-.83-.32-.66-.61-1.34-.92-2.01-.81-1.77-1.59-3.55-2.38-5.33-.23-.51-.46-1.01-.67-1.53-.14-.33-.26-.71-.54-.95.24-1.04.47-2.07.66-3.12.04-.22-.28-.32-.35-.1-.32,1.07-.59,2.16-.86,3.25-.03.14.04.29.19.33.3.08.44.56.56.81,1.27,2.73,2.51,5.47,3.73,8.23.1.22.23.44.29.68.02.1,0,.1-.1.12-.56.05-1.13,0-1.68-.1-.19-.03-.4.16-.27.35.98,1.37,1.98,2.71,2.96,4.07-2.88-1.64-5.57-3.58-8.03-5.76-.03-.13-.07-.27-.1-.4-.03-.13-.07-.26-.17-.35-.19-.16-.5-.08-.69-.23-.11-.08-.15-.21-.2-.34-.27-.77-.55-1.54-.82-2.31-.28-.78-.56-1.58-.58-2.4-.03-1.38,1.1-2.84,1.94-3.87,1.1-1.35,2.39-2.56,3.88-3.47.91-.56,1.5-.55,1.74.45.25,1.09.61,2.12.84,3.23.04.17.08.35.17.5,1.06,1.02,2.33,1.82,3.54,2.64-1.6-.7-3.21-1.4-4.81-2.1.67,1.29,1.24,2.63,1.73,4,1.65.29,3.28.74,4.85,1.33-1.56-.35-3.13-.71-4.69-1.07.98,1.02,1.83,2.17,2.51,3.41.09.16.18.33.32.44.76.37,1.61.55,2.42.8-.76-.16-1.55-.25-2.18-.1.13.85,1.18,1.77,1.67,2.47.2-.17.5-.09.75-.01,1.36.44,2.72.87,4.07,1.31-2.6-.19-5.21-.38-7.81-.57,1.04,1.25,2.08,2.49,3.11,3.74Zm23.51,4.81c-.36-.08-.71-.2-1.04-.35-.89-.5-1.08-1.83-1.48-2.7-.02-.05-.06-.06-.1-.07-3.2-2.31-6.4-4.66-9.67-6.86-.48-.83-1.02-1.67-.93-2.67.11-.52.38-1.11.79-1.44,1.14-.76,2.29-1.49,3.45-2.22,0-.14,1.15-.72,1.31-.81.46-.27.9-.69,1.47-.51.07.05.07.15.06.23-.03.4-.12.75-.12,1.08,0,.78-.69,1.36-1.33,1.82-.19.14-.24.39-.27.61-.23,1.43-.45,2.86-.68,4.29.41-1.3.57-2.72,1.24-3.92.63-.99,1.61-1.54,1.56-2.83-.22-1.99,1.66-2.97,3.15-3.77.22-.13.89-.67,1.14-.41.41.67.17,1.46.09,2.2-.05.67-.23,1.34-.18,2.01.05.19.19.33.36.43.35.21.71.4,1.07.59-.56.1-1.4-.16-1.59.32-.18.46.36,1.88.46,2.39.04.43.29.76.67.96.66.42,1.32.84,2.03,1.17-1.24-.45-2.51-.82-3.8-1.11.61,1.05,1.08,2.19,1.38,3.37.06.23.11.46.25.65.13.17.32.29.5.4,1.53.92,3.07,1.83,4.6,2.75-.87.08-1.76.02-2.61-.18.24.06.78,1.22.93,1.45.35.51.71,1.01,1.11,1.48.18.21.85.67,1.01,1.05-1.58.28-3.19.47-4.83.59Zm5.03-13.11c-.49-.64-.98-1.29-1.46-1.95-.41-.56-1.02-1.17-1.23-1.84-.05-.11-.01-.21.07-.29.36-.4.75-.47,1.25-.62,1.03-.25,2-.77,3.07-.73-.05.54-.04,1.13-.23,1.64-.12.17-.37.21-.5.37-.26.58-.3,1.31-.47,1.94.24-.76.54-1.59,1.23-1.98.12-.07.25-.13.31-.25.05-.1.04-.22.02-.32-.04-.75-.14-1.67.5-2.21.27-.28.54-.57.81-.85.14-.15.9-.63.91-.82-.03.14.06.27.09.41.36,1.02.71,2.04.98,3.08.09.34.17.68.26,1.02.02.09.1.12.18.1.3.18.67.19,1,.32.67.2,1.88.72,1.59,1.68-.06.19-.21.32-.36.45-1.57,1.32-3.2,2.57-4.89,3.74-.13.09-.27.19-.44.2-.75.07-2.26-2.53-2.69-3.09Zm29.25-5.17c-1.17-.55-2.34-1.1-3.51-1.64.52.24.94,1.54,1.27,2,.31.43.56.91.79,1.4-.77.9-1.58,1.77-2.42,2.61-.29-.48-.38-1.09-.5-1.62-.54-2.47-.86-4.99-1.4-7.46-.02-.1-.2-.08-.19.03.21,1.76.53,3.52.82,5.27.14.88.28,1.76.39,2.65.06.51.17,1.09.46,1.54-3.91,3.83-8.48,6.99-13.52,9.3-.15-.27-.29-.55-.42-.83-.12-.31-.36-.53-.68-.61-2.01-.69-3.93-1.61-5.72-2.75,1.13,1.87,2.27,3.73,3.4,5.6-.01,0-.03.01-.04.02-1.57-2.25-3.21-4.45-4.96-6.56,2.36-1.59,4.56-3.44,6.97-4.94-.53,1.6-1.21,3.16-2.01,4.65,1.12-1.21,1.8-2.04,2.74-3.24.91-1.14,1.69-2.39,2.65-3.48.67-.77,1.29-1.66,2.21-2.12.5-.25,1.22-.43,1.57-.89-.02.75-.11,1.51-.2,2.26.73.35.76,1.28.71,2-.1,2.2-.12,4.41-.07,6.61.21-2.38.76-4.72,1.13-7.08.06-.23,0-.44-.17-.61-.46-.57-.24-1.3-.16-1.96.1-.84.2-1.68.3-2.52.04-.41.12-.85.44-1.14,2.08-1.42,4.16-2.88,6.09-4.51.29,1.67.89,3.35,1.33,4.99.06.36.29.64.59.83.82.59,1.6,1.22,2.36,1.89-.08.1-.16.21-.24.31Zm1.43-3.4c-1.59-2.28-3.25-4.51-4.97-6.69-2.42,1.89-4.79,3.81-7.36,5.5-.16.11-.33.22-.39.4-.05.15-.02.32-.03.47-.04.5-.5.84-.92,1.11l-4.83,3.17c-.24.16-.92.79-1.2.77-.3-.02-.53-.5-.71-.69-.49-.51-1.01-.65-1.76-.75-.43-.12-.94-.08-1.25-.45-1.25-1.15-2.6-2.21-3.65-3.55-.98.95-1.92,2.35-3.1,3.03-.95.54-2.2.68-3.25.94-.1.02-.2.05-.3,0-.08-.03-.13-.1-.19-.17-1.01-1.33-1.97-2.69-2.88-4.09-4.07,2.53-7.92,5.39-12.1,7.77-.32.18-.65.37-1.02.39-.88.05-1.01-1.01-1.39-1.6-.02-.03-.06-.04-.1-.03-.74-.31-1.55-.51-2.3-.8-1.14-.39-2.25-.89-3.4-1.25-1.61-2.07-3.29-4.08-4.98-6.09-.37.08-.76.34-1.13.27-.1-.04-.17-.13-.23-.22-.93-1.32-1.87-2.65-2.8-3.97-2.82,2.25-5.35,4.85-7.92,7.38-.22-.17-.43-.34-.65-.51-.78.83-1.55,1.67-2.32,2.51-6.09-8.02-9.72-18.01-9.72-28.84C2.24,23.66,23.66,2.24,50,2.24s47.76,21.43,47.76,47.76c0,9.89-3.02,19.08-8.19,26.71-.16-.26-.33-.52-.49-.75Z"/>
        </g>
      </g>
    </g>
  </g>
</svg>