<?xml version="1.0" encoding="utf-8"?>
<!-- Generator: Adobe Illustrator 27.9.0, SVG Export Plug-In . SVG Version: 6.00 Build 0)  -->
<svg version="1.1" id="Capa_1" xmlns="http://www.w3.org/2000/svg" xmlns:xlink="http://www.w3.org/1999/xlink" x="0px" y="0px"
	 viewBox="0 0 128.1 44" style="enable-background:new 0 0 128.1 44;" xml:space="preserve">
<style type="text/css">
	.st0{fill:#242122;}
	.st1{fill:#0A01E5;}
</style>
<path id="Vector" class="st0" d="M126.1,15.6c-1,0-1.9-0.8-1.9-1.9s0.8-1.9,1.9-1.9s1.9,0.8,1.9,1.9S127.2,15.6,126.1,15.6z
	 M126.1,12.2c-0.9,0-1.6,0.7-1.6,1.5c0,0.8,0.7,1.5,1.6,1.5c0.9,0,1.6-0.7,1.6-1.5C127.7,12.9,127,12.2,126.1,12.2z"/>
<path id="Vector_2" class="st0" d="M125.6,13.6h0.6c0.1,0,0.2,0,0.3,0c0.1,0,0.1-0.1,0.2-0.1c0-0.1,0.1-0.1,0.1-0.2
	c0-0.1,0-0.2-0.1-0.2c-0.1-0.1-0.2-0.1-0.3-0.1h-0.7V13.6L125.6,13.6z M125.3,14.7v-2.1h0.9c0.2,0,0.3,0,0.4,0.1
	c0.1,0,0.2,0.1,0.2,0.2c0.1,0.1,0.1,0.2,0.1,0.3c0,0.2,0,0.3-0.2,0.4c-0.1,0.1-0.3,0.2-0.5,0.2c0.1,0,0.1,0.1,0.2,0.1
	c0.1,0.1,0.2,0.2,0.2,0.3l0.4,0.6h-0.4l-0.3-0.4c-0.1-0.1-0.1-0.2-0.2-0.3c-0.1-0.1-0.1-0.1-0.1-0.1c-0.1,0-0.1-0.1-0.1-0.1
	c0,0-0.1,0-0.2,0h-0.3v0.9L125.3,14.7L125.3,14.7z"/>
<path id="Vector_3" class="st1" d="M122.4,28.1c0-3.1-1-5.6-3-7.5c-2-2-4.6-2.9-7.7-2.9H99v20.7h12.7c3.1,0,5.6-1,7.7-2.8
	C121.3,33.6,122.4,31.2,122.4,28.1z M128,27.6c0,4.7-1.5,8.6-4.6,11.6c-3.1,3.1-7,4.6-11.7,4.6H93.5V12.1h18.2
	c4.8,0,8.7,1.4,11.7,4.3C126.5,19.2,128,23,128,27.6z M88.6,33.5c0,2.9-1.1,6.2-3.2,8c-2,1.6-4.6,2.5-7.6,2.5l-24,0.1v-6.4h24
	c1.5,0,2.8-0.3,3.9-1c1.3-0.8,1.9-1.9,1.9-3.3c0-1.4-0.7-2.5-1.9-3.2c-1.1-0.6-2.4-1-3.9-1H63c-2.7,0-5-0.7-6.8-2.2
	c-2-1.6-3-3.7-3-6.3s1-4.7,3-6.3c1.8-1.5,4.1-2.2,6.8-2.2h30.6l1,5.4l-31.6,0c-1,0-1.9,0.3-2.7,0.9c-0.7,0.6-1.1,1.3-1.1,2.3
	c0,1,0.4,1.8,1.1,2.3c0.7,0.5,1.6,0.8,2.7,0.8h14.8c3,0,5.6,0.9,7.6,2.6C87.5,28.1,88.6,30.5,88.6,33.5 M57.9,43.9h-9.7L41,31.1
	H20.6l4.5-7.3h11.4l-7.5-12.2L9.7,44H0L23.4,4.8c0.6-1,1.4-1.9,2.5-2.7c1.3-1,2.4-1.4,3.4-1.4c1.1,0,2.2,0.5,3.4,1.4
	c1,0.8,1.8,1.7,2.5,2.8L57.9,43.9L57.9,43.9z"/>
<path id="Vector_4" class="st0" d="M126.7,4.2c0-0.8-0.3-1.4-0.8-2s-1.2-0.8-2-0.8h-2.3c-0.8,0-1.5,0.3-2,0.8
	c-0.5,0.5-0.8,1.2-0.8,2c0,0.8,0.3,1.4,0.8,1.9c0.5,0.5,1.2,0.7,2,0.7h2.3c0.8,0,1.5-0.2,2-0.7C126.4,5.6,126.7,4.9,126.7,4.2z
	 M128.1,4c0,1.2-0.4,2.2-1.2,3c-0.8,0.8-1.8,1.2-3,1.2h-2.3c-1.2,0-2.2-0.4-3-1.2c-0.8-0.8-1.2-1.8-1.2-3s0.4-2.2,1.2-2.9
	c0.8-0.7,1.8-1.1,3-1.1h2.3c1.2,0,2.3,0.4,3,1.1C127.7,1.9,128.1,2.8,128.1,4z M108.4,3c0,0.9-0.3,1.6-1,2.2
	c-0.6,0.5-1.4,0.8-2.3,0.8h-3.7V4.5h3.9c0.5,0,0.9-0.1,1.2-0.4c0.3-0.3,0.5-0.7,0.5-1.1c0-0.5-0.2-0.8-0.5-1.1
	c-0.3-0.3-0.7-0.4-1.2-0.4h-4.8v6.8H99V0h6c0.9,0,1.7,0.3,2.3,0.8C108.1,1.3,108.4,2.1,108.4,3 M88.7,4.6c0,1.3-0.4,2.3-1.2,2.9
	c-0.7,0.5-1.8,0.8-3.2,0.8h-0.5c-1.4,0-2.5-0.3-3.2-0.8c-0.8-0.6-1.2-1.6-1.2-2.9V0h1.5v4.5c0,1,0.4,1.6,1,2
	c0.5,0.2,1.2,0.3,2.4,0.3c0.9,0,1.6-0.1,2.1-0.4c0.6-0.4,0.8-1,0.8-1.9V0h1.5V4.6z M68.9,8.3h-2.2l-2.3-2.3h-3.2V4.5h3.9
	c0.5,0,1-0.1,1.4-0.4C67,3.9,67.2,3.5,67.2,3c0-1-0.7-1.5-2-1.5h-4.8v6.8H59V0h6c1.1,0,1.9,0.2,2.6,0.7C68.3,1.2,68.7,2,68.7,3
	c0,0.7-0.2,1.3-0.7,1.8c-0.4,0.5-1,0.8-1.7,1L68.9,8.3z M49.4,8.3h-5.3c-1.2,0-2.2-0.4-3-1.2c-0.8-0.8-1.2-1.8-1.2-3
	s0.4-2.2,1.2-2.9c0.8-0.7,1.8-1.1,3-1.1h4.7v1.4h-4.7c-0.8,0-1.5,0.3-2,0.8c-0.5,0.5-0.8,1.2-0.8,2c0,0.8,0.3,1.4,0.8,1.9
	c0.5,0.5,1.2,0.7,2,0.7H48V5h-4V3.7h5.4V8.3L49.4,8.3z"/>
</svg>
