<?xml version="1.0" encoding="utf-8"?>
<!-- Generator: Adobe Illustrator 27.5.0, SVG Export Plug-In . SVG Version: 6.00 Build 0)  -->
<svg version="1.1" id="Capa_1" xmlns="http://www.w3.org/2000/svg" xmlns:xlink="http://www.w3.org/1999/xlink" x="0px" y="0px"
	 viewBox="0 0 1323 683.1" style="enable-background:new 0 0 1323 683.1;" xml:space="preserve">
<style type="text/css">
	.st0{fill-opacity:0.23;}
</style>
<path class="st0" d="M136.1,136.2c0-6.3,5.2-11.5,11.5-11.5v-0.1c-6.4,0-11.5-5.1-11.5-11.5H136c0,6.4-5.2,11.5-11.5,11.5v0.1
	C130.9,124.7,136,129.9,136.1,136.2L136.1,136.2z"/>
<path class="st0" d="M136.1,278.2L136.1,278.2c-0.1,6.4-5.2,11.5-11.6,11.5v0.1c6.4,0,11.5,5.1,11.5,11.5h0.1
	c0-6.4,5.2-11.5,11.5-11.5v-0.1C141.3,289.7,136.1,284.6,136.1,278.2z"/>
<path class="st0" d="M383.9,168.2L383.9,168.2c-0.1,6.3-5.2,11.5-11.6,11.5v0.1c6.4,0,11.6,5.2,11.6,11.5h0.1
	c0-6.3,5.2-11.5,11.6-11.5v-0.1C389,179.7,383.9,174.5,383.9,168.2z"/>
<path class="st0" d="M251.9,58.1L251.9,58.1c0.1-6.4,5.2-11.5,11.6-11.5v-0.1c-6.4,0-11.6-5.2-11.6-11.5h-0.1
	c0,6.3-5.2,11.5-11.6,11.5v0.1C246.7,46.6,251.9,51.7,251.9,58.1z"/>
<path class="st0" d="M487.4,12.4c6.4,0,11.5,5.2,11.5,11.5h0.1c0-6.4,5.1-11.5,11.5-11.5v-0.1c-6.4,0-11.5-5.2-11.5-11.5h-0.1
	C498.9,7.1,493.7,12.3,487.4,12.4L487.4,12.4z"/>
<path class="st0" d="M345.3,12.4L345.3,12.4c-6.4-0.1-11.5-5.2-11.5-11.6h-0.1c0,6.4-5.1,11.5-11.5,11.5v0.1
	c6.4,0,11.5,5.2,11.5,11.5h0.1C333.8,17.5,339,12.4,345.3,12.4z"/>
<path class="st0" d="M455.4,260.1L455.4,260.1c-6.4-0.1-11.5-5.2-11.5-11.6h-0.1c0,6.4-5.1,11.6-11.5,11.6v0.1
	c6.4,0,11.5,5.2,11.5,11.6h0.1C443.9,265.3,449.1,260.1,455.4,260.1z"/>
<path class="st0" d="M565.5,128.1L565.5,128.1c6.3,0.1,11.5,5.2,11.5,11.6h0.1c0-6.4,5.1-11.5,11.5-11.5v-0.1
	c-6.4,0-11.5-5.2-11.5-11.6H577C577,123,571.9,128.1,565.5,128.1z"/>
<g>
	<path class="st0" d="M323.1,672.5c2.1,3.5,4.1,7.1,6.2,10.6h3.7C329.6,679.6,326.3,676,323.1,672.5z"/>
	<path class="st0" d="M245.8,667.9c1.9,5.1,3.8,10.1,5.8,15.2h9.6C256.4,677.6,252.4,670.9,245.8,667.9z"/>
	<path class="st0" d="M69.4,683.1c7.5-12,15.6-23.7,24.3-34.9c-3.3-0.9-6.6-1.9-9.9-2.8c29.9-30.2,58.8-61.6,88.3-92.4
		c10.5,14,22,26.5,30.6,42.1c2.1,3.8,4.1,8,3.6,12.3c11,13,22,26.1,33,39.1c-13.8-24.6-26.4-49.9-37.9-75.7c-1.1-2.5-2.3-5.3-1.9-8
		c0.4-2.8,2.3-5.1,4.1-7.2l31.1-37c5.2-6.2,16.8-27.2,26.5-25.1c4.9,1,7.2,6.5,8.7,11.2c6.3,19.3,12.7,38.7,19,58
		c1.8,5.6,3.7,11.2,7.2,16c8,10.9,19.6,26.6,19.8,40.9c0.1,5.1-1.8,10.6,0.7,15.1c4.5,8.2,13.3,16.2,19.3,23.5
		c7.1,8.6,14.5,17,22.4,24.9h0.4c-10.1-17.5-20.2-35-30.3-52.6c-4.8-8.4-6-16.7-8.5-25.8c-3.2-11.6-6.2-23.3-9.2-35
		c-0.4-1.4-0.8-2.9-1.9-3.9c-2.1-1.8-5.5-0.9-7.7-2.5c-1.2-0.9-1.7-2.4-2.2-3.7c-3-8.5-6.1-17.1-9.1-25.6
		c-3.1-8.7-6.2-17.5-6.4-26.7c-0.3-15.3,12.2-31.5,21.5-42.9c12.2-15,26.5-28.4,43-38.5c10.1-6.2,16.7-6.2,19.2,4.9
		c2.8,12.1,6.8,23.5,9.3,35.8c0.4,1.9,0.8,3.9,1.9,5.5c0.9,1.3,2.1,2.3,3.3,3.3c11.5,9.3,23.5,18,36,26
		c-17.8-7.8-35.6-15.5-53.4-23.2c7.4,14.3,13.8,29.2,19.2,44.4c18.3,3.3,36.4,8.2,53.8,14.7c-17.3-3.9-34.7-7.8-52-11.9
		c10.9,11.3,20.3,24.1,27.8,37.8c1,1.8,2,3.6,3.6,4.8c1,0.8,2.3,1.2,3.5,1.6c7.7,2.7,15.5,5.1,23.3,7.2c-8.4-1.7-17.2-2.7-24.2-1.1
		c1.4,9.5,13.1,19.6,18.6,27.3c2.2-1.8,5.5-1,8.3-0.2c15,4.8,30.1,9.7,45.2,14.5c-28.9-2.1-57.7-4.2-86.6-6.4
		c11.5,13.8,23,27.6,34.5,41.4v0c1.1,1.3,2.2,2.6,3.7,3.4c1.9,1,4.1,1.1,6.3,1.1c11.3,0.2,22.9,0.5,33.6,4
		c-22.6,0.6-45.3-0.2-67.9-2.6c5.5,6.4,12.1,11.9,17.1,18.7c0.9,1.2,2.4,3.4,4.1,5.8h239.8c-1.3-3.8-2.6-7.7-4-10.9
		c-0.2-0.5-0.7-0.7-1.1-0.7c-13.6-10.2-27.5-20-41.3-29.8c-13.9-9.9-27.8-19.8-41.7-29.7c-3.9-2.8-7.8-5.6-11.8-8.3
		c-3.9-2.8-7.8-5.7-11.9-8.1c-0.1-0.1-0.3-0.1-0.4-0.1c-2.4-4.3-4.9-8.6-7.2-13c-2-3.8-2.6-8-3-12.2c-0.2-1.5-0.3-2.9-0.1-4.4
		c0.3-2.4,1.3-4.7,2.4-6.9c1.7-3.5,3.2-6.8,6.4-9.1c3.2-2.3,6.7-4.3,10-6.5c9.4-6.1,18.8-12.1,28.2-18.1c0-1.6,12.7-7.9,14.5-9
		c2.6-1.6,5.2-3.3,7.8-4.8c2.5-1.4,3.9-1.2,6.8-1.2c0.6,0,1.2,0,1.6,0.4c0.7,0.5,0.8,1.6,0.7,2.5c-0.3,4.5-1.3,8.3-1.3,11.9
		c0,8.7-7.7,15.1-14.7,20.2c-2.1,1.5-2.6,4.3-3,6.8c-2.5,15.8-5,31.7-7.5,47.5c2.3-8.5,4.5-16.9,6.8-25.4c1.7-6.2,3.4-12.6,6.9-18.1
		c7-11,17.8-17,17.3-31.4c-0.2-5,0.2-10.1,2.1-14.7c5.3-12.9,21.4-20.7,32.8-27.2c2.5-1.4,9.9-7.4,12.7-4.5c0.5,0.5,0.8,1.2,1,1.8
		c2.9,7.4,0.8,14.8-0.1,22.6c-0.6,5.2-1.2,10.4-1.8,15.6c-0.2,2.2-0.7,4.5-0.1,6.7c0.5,2.2,2.1,3.6,4,4.8c3.8,2.4,7.9,4.4,11.8,6.5
		c-6.2,1.1-15.5-1.8-17.6,3.5c-2,5.1,4,20.8,5.1,26.5c0.4,2,0.8,4.1,1.9,5.9c1.3,2.1,3.5,3.5,5.5,4.8c7.3,4.7,14.6,9.3,22.5,13
		c-13.8-5-27.9-9.1-42.2-12.3c6.8,11.7,11.9,24.3,15.2,37.4c0.6,2.5,1.2,5.1,2.8,7.2c1.4,1.9,3.5,3.2,5.6,4.4
		c17,10.2,34,20.3,51,30.5c-9.7,0.9-19.5,0.2-28.9-2c2.6,0.6,8.6,13.6,10.4,16.1c2.7,4,5.5,8,8.5,11.8h158.6
		c-7.3-10.5-13.7-21.5-19.2-33c-0.8-1.6-1.5-3.2-2.8-4.4c-1.3-1.2-3-1.8-4.7-2.3c-22.2-7.6-43.6-17.8-63.4-30.4
		c13.8,22.7,27.6,45.4,41.4,68.1c-18.7-27-38.2-53.4-59.1-78.6c5.5-3.5,10.8-7.5,16.1-11.3c5.6-4.1,11.2-8.2,16.8-12.3
		c14.6-10.8,29.1-21.5,44.4-31.1c-5.9,17.8-13.4,35-22.3,51.5c4.2-5.2,10.8-11.5,12.8-14c5.8-7.3,11.7-14.6,17.5-22
		c10.1-12.7,18.8-26.5,29.3-38.6c7.5-8.5,14.3-18.4,24.5-23.5c5.5-2.8,13.5-4.8,17.4-9.8c-0.2,8.3-1.2,16.7-2.2,25
		c3.8,1.7,6.3,5.6,7.3,9.7c1,4.1,0.8,8.3,0.6,12.5c-1.1,24.4-1.3,48.9-0.8,73.3c0.7-10.5,2.5-20.9,4.3-31.2
		c2.8-15.8,5.5-31.6,8.3-47.3c0.2-1.4,0.5-2.8,0-4.1c-0.4-1-1.2-1.8-1.8-2.6c-5.1-6.3-2.6-14.5-1.8-21.7c1.1-9.3,2.2-18.7,3.3-28
		c0.4-3.5,0.9-7.1,2.7-10c0.6-1,1.4-1.8,2.2-2.6c11.2-7.6,22.3-15.4,33.3-23.4c11.7-8.5,23.3-17.2,34.3-26.6
		c3.3,18.5,9.9,37.2,14.7,55.3c0.4,1.6,0.9,3.3,1.8,4.7c1.2,1.9,3,3.2,4.8,4.5c12.9,9.3,25.2,19.5,36.6,30.6
		c-17.3-8.1-34.7-16.3-52-24.4c5.7,2.7,10.4,17,14.1,22.2c8.1,11.1,12.6,25.2,18,37.9c0.5,1.2,1.1,2.5,2,3.4
		c1.1,1.1,2.6,1.6,4.1,2.1c40.4,13.7,80.4,28.7,119.9,44.9c-17.1-4.8-34.1-9.7-51.1-14.5c-13.9-4-33-13.3-47.3-12.7
		c4.6,8.8,11,17.1,16.5,25.4l0,0c3.2,4.9,15.4,17.8,15.4,23.4c1.2,1.8,2.5,3.8,4.3,5c1.6,1.1,3.6,1.7,5.4,2.3
		c7.2,2.1,14.4,4.3,21.7,6.4c-18.8-0.2-37.6-0.5-56.4-0.7c4.2,0,15.7,14.4,18.9,17.5c6.1,5.8,13.9,11.8,18.8,18.8
		c3.7,5.3,8,10.8,11.4,16.6h148.8c-0.7-1.7-1.4-3.4-2.2-5.1c-2.8-6.8-3-6.9-10.7-8.6c-8.3-1.8-16.2-5-24.1-8.1
		c-7.9-3.1-15.7-6.3-23.6-9.4c-9.3-3.7-18.7-7.5-27.6-12.1c19.1,5.4,38.3,10.8,57.4,16.2c-6.5-2-20.7-31.3-24.5-37.8
		c-6.8-11.5-13.9-22.3-21.8-33.2c-11.2-15.8-29.6-8.3-43.5-22.5c-13.2-13.5-16.6-35.8-33-45.2c-11.5-6.6-21.6-2.7-30.5-12.1
		c-10.1-10.7-17.5-26.1-26-38.2c-17.6-25.2-36-50-55-74.2c-26.8,21-53.1,42.2-81.6,61c-1.8,1.2-3.6,2.5-4.3,4.5
		c-0.6,1.7-0.2,3.5-0.4,5.3c-0.4,5.5-5.5,9.3-10.2,12.4l-53.6,35.2c-2.7,1.8-10.2,8.8-13.3,8.5c-3.4-0.3-5.9-5.5-7.9-7.6
		c-5.4-5.6-11.1-7.3-19.5-8.3c-2.6-0.6-5.2-1.1-7.8-1.6c-1.1-0.2-2.2-0.4-3.2-1c-1-0.6-1.9-1.6-2.8-2.4
		c-13.9-12.7-28.9-24.5-40.5-39.3c-10.8,10.5-21.3,26.1-34.3,33.5c-10.5,6-24.4,7.5-36.1,10.4c-1.1,0.3-2.3,0.5-3.3,0.1
		c-0.9-0.4-1.5-1.1-2.1-1.9c-11.2-14.7-21.8-29.9-31.9-45.4c-45.2,28.1-87.8,59.7-134.2,86.1c-3.5,2-7.2,4-11.3,4.3
		c-9.7,0.6-11.2-11.2-15.4-17.7c-0.2-0.4-0.7-0.4-1.1-0.3c-0.1-0.2-0.3-0.4-0.6-0.5c-8.3-2.7-16.6-5.4-24.9-8.4
		c-8.2-2.9-16.4-6.1-24.6-9.2c-2.3-0.9-4.6-1.8-6.9-2.6c-2-0.7-4.1-1.7-6.2-2.1c0-0.2-0.1-0.3-0.2-0.5
		c-13.2-16.7-26.7-33.1-40.2-49.6c-4.8-5.9-10-11.5-14.8-17.5c-2.7,0.9-5.5,1.8-8.2,2.6c-1.4,0.4-3,0.9-4.3,0.3
		c-1.1-0.4-1.8-1.5-2.5-2.4c-10.4-14.7-20.7-29.4-31.1-44c-31.2,25-59.3,53.8-87.8,81.9c-2.4-1.9-4.8-3.8-7.2-5.7
		c-25.1,26.8-49.9,54-74.1,81.5c-5-4.4-10.5-8.4-16.5-11.3c-0.6-0.5-1.4-0.7-2.2,0c-11.8,10.9-23.2,22.2-34.7,33.4
		c-11.5,11.2-22.8,22.6-34,34.1S83,631.8,72,643.5c-11,11.8-21.7,23.6-32.4,35.6c-1.2,1.3-2.3,2.6-3.5,3.9H69.4z M725.8,517
		c0.1-0.6,0.5-1.2,1-1.6c4-4.4,8.3-5.2,13.8-6.8c5.7-1.7,11.4-3.5,17.2-5.2c5.8-1.8,10.8-3.3,16.9-2.9c-0.2,5.1-0.8,10.2-1.6,15.2
		c-0.2,1-0.4,2.1-1,3c-1.3,1.9-4.1,2.3-5.6,4.1c-0.8,1-1.1,2.3-1.4,3.6c-1.3,6-2.6,11.9-3.8,17.9c2.7-8.4,6-17.6,13.7-22
		c1.3-0.7,2.8-1.4,3.4-2.8c0.5-1.1,0.4-2.4,0.3-3.6c-0.5-4.8-0.4-9.6,0.2-14.4c0.2-1.7,0.5-3.4,1.3-5c0.9-2,2.5-3.6,4-5.2
		c3-3.1,6-6.4,9-9.5c1.6-1.6,10-7,10.1-9c0,0.3-0.1,0.6-0.1,0.9c0,0.4,0.2,0.7,0.3,1.1c0.3,0.8,0.6,1.7,0.8,2.5
		c0.5,1.6,1.1,3.2,1.7,4.8c1.1,3.2,2.2,6.4,3.3,9.6c2.1,6.5,4.1,13.1,5.9,19.7c1,3.7,1.9,7.5,2.9,11.3c0.3,1,1.2,1.3,1.9,1.1
		c1.5,1.1,3.5,1.4,5.3,1.9c1.9,0.5,3.9,1.1,5.8,1.7c7.4,2.2,20.8,8,17.6,18.6c-0.6,2.1-2.3,3.6-4,5c-17.4,14.7-35.5,28.5-54.2,41.5
		c-1.5,1-3,2.1-4.8,2.2c-8.3,0.8-25-28-29.8-34.2h0c-5.5-7.1-10.9-14.3-16.2-21.6c-4.5-6.2-11.3-13-13.7-20.4
		C725.8,518.1,725.7,517.5,725.8,517z"/>
	<path class="st0" d="M904.5,682.5c0.1,0.2,0.2,0.4,0.3,0.6h1.5C905.6,682.9,905.1,682.7,904.5,682.5z"/>
</g>
</svg>
