<svg width="552" height="373" viewBox="0 0 552 373" fill="none" xmlns="http://www.w3.org/2000/svg">
<path d="M65.6839 168.132L65.4943 159.632C65.4344 156.828 65.3443 154.052 65.3197 151.288L65.6839 151.652C59.0396 151.721 52.3959 151.864 45.7527 151.871L25.8219 151.953L26.4875 151.288L26.4161 168.132L25.8219 167.539C29.1099 167.561 32.3912 167.549 35.688 167.612L45.5989 167.761L65.6839 168.132ZM65.6839 168.132L45.9063 168.504L35.8869 168.653C32.5396 168.717 29.1771 168.704 25.8219 168.727L25.2297 168.731L25.2271 168.132L25.1557 151.288L25.1531 150.619L25.8219 150.621L45.7527 150.707C52.3959 150.713 59.0396 150.856 65.6839 150.924L66.0511 150.928L66.0473 151.288C66.0224 154.141 65.9328 156.979 65.8729 159.788L65.6839 168.132Z" fill="#E7E8E5"/>
<path d="M43.4473 189.372L43.2578 180.872C43.1978 178.067 43.1084 175.291 43.0833 172.528L43.4473 172.892C36.8036 172.96 30.1598 173.104 23.5161 173.111L3.58537 173.193L4.25152 172.528L4.17965 189.372L3.58537 188.779C6.87444 188.801 10.1552 188.788 13.4521 188.851L23.3625 189L43.4473 189.372ZM43.4473 189.372L23.6697 189.744L13.6505 189.893C10.3036 189.956 6.94059 189.944 3.58537 189.967L2.99371 189.971L2.99111 189.372L2.91923 172.528L2.91663 171.86L3.58537 171.863L23.5161 171.945C30.1598 171.952 36.8036 172.096 43.4473 172.165L43.8145 172.168L43.8114 172.528C43.7864 175.381 43.6969 178.219 43.6369 181.029L43.4473 189.372Z" fill="#E7E8E5"/>
<path d="M423.089 43.1892L422.901 34.6892C422.841 31.8838 422.752 29.1078 422.727 26.3452L423.089 26.7092C416.447 26.7772 409.804 26.9198 403.159 26.9265L383.228 27.0105L383.895 26.3452L383.823 43.1892L383.228 42.5945C386.517 42.6185 389.799 42.6052 393.095 42.6679L403.005 42.8172L423.089 43.1892ZM423.089 43.1892L403.313 43.5612L393.293 43.7105C389.947 43.7732 386.584 43.7598 383.228 43.7838L382.637 43.7878L382.635 43.1892L382.563 26.3452L382.56 25.6759L383.228 25.6785L403.159 25.7625C409.804 25.7692 416.447 25.9132 423.089 25.9812L423.457 25.9852L423.455 26.3452C423.428 29.1972 423.34 32.0358 423.28 34.8452L423.089 43.1892Z" fill="#E7E8E5"/>
<path d="M400.855 64.4292L400.664 55.9278C400.604 53.1238 400.516 50.3478 400.489 47.5852L400.855 47.9478C394.209 48.0172 387.567 48.1598 380.923 48.1665L360.992 48.2505L361.657 47.5852L361.585 64.4292L360.992 63.8345C364.281 63.8585 367.561 63.8452 370.859 63.9078L380.769 64.0572L400.855 64.4292ZM400.855 64.4292L381.077 64.8012L371.057 64.9492C367.709 65.0132 364.348 64.9998 360.992 65.0238L360.401 65.0278L360.399 64.4292L360.327 47.5852L360.323 46.9158L360.992 46.9185L380.923 47.0025C387.567 47.0092 394.209 47.1532 400.855 47.2212L401.221 47.2238L401.217 47.5852C401.193 50.4372 401.103 53.2758 401.043 56.0852L400.855 64.4292Z" fill="#E7E8E5"/>
<path d="M378.705 43.1892L378.516 34.6892C378.456 31.8838 378.365 29.1078 378.341 26.3452L378.705 26.7092C372.061 26.7772 365.419 26.9198 358.775 26.9265L338.844 27.0105L339.509 26.3452L339.437 43.1892L338.844 42.5945C342.132 42.6185 345.413 42.6052 348.709 42.6679L358.621 42.8172L378.705 43.1892ZM378.705 43.1892L358.928 43.5612L348.909 43.7105C345.561 43.7732 342.197 43.7598 338.844 43.7838L338.252 43.7878L338.249 43.1892L338.177 26.3452L338.175 25.6759L338.844 25.6785L358.775 25.7625C365.419 25.7692 372.061 25.9132 378.705 25.9812L379.073 25.9852L379.069 26.3452C379.044 29.1972 378.955 32.0358 378.895 34.8452L378.705 43.1892Z" fill="#E7E8E5"/>
<path d="M547.417 189.372L547.228 180.872C547.168 178.067 547.079 175.291 547.053 172.528L547.417 172.892C540.773 172.96 534.131 173.104 527.485 173.111L507.556 173.193L508.221 172.528L508.149 189.372L507.556 188.779C510.844 188.801 514.125 188.788 517.421 188.851L527.332 189L547.417 189.372ZM547.417 189.372L527.64 189.744L517.62 189.893C514.273 189.956 510.911 189.944 507.556 189.967L506.964 189.971L506.961 189.372L506.889 172.528L506.887 171.86L507.556 171.863L527.485 171.945C534.131 171.952 540.773 172.096 547.417 172.165L547.784 172.168L547.781 172.528C547.756 175.381 547.667 178.219 547.607 181.029L547.417 189.372Z" fill="#E7E8E5"/>
<path d="M64.9391 120.555C59.0027 123.739 51.6156 121.509 48.4328 115.573C45.2495 109.637 47.4729 102.24 53.4093 99.056C59.3459 95.8733 66.7479 98.108 69.9317 104.044C73.1151 109.98 70.8751 117.372 64.9391 120.555ZM77.5412 129.952L85.3907 117.299L81.5151 114.897C80.3751 114.192 79.7573 112.903 79.8719 111.567C79.9349 110.829 79.9584 110.087 79.9421 109.341C79.9131 108.004 80.6115 106.76 81.7896 106.128L85.8068 103.975L78.7661 90.8466L74.75 93C73.5713 93.6333 72.1484 93.5266 71.0516 92.7626C70.4402 92.336 69.8079 91.9453 69.1579 91.5906C67.9818 90.9453 67.25 89.7186 67.2921 88.3786L67.4369 83.8213L52.5527 83.3586L52.4156 87.932C52.3751 89.2733 51.5527 90.4413 50.3401 91.0133C50.0104 91.168 49.6844 91.332 49.3609 91.5066C49.0369 91.68 48.7193 91.8613 48.4084 92.0493C47.2651 92.7386 45.8459 92.78 44.7109 92.076L40.8073 89.6586L32.9579 102.313L36.8407 104.723C37.9797 105.429 38.5964 106.72 38.4803 108.056C38.4167 108.791 38.3921 109.531 38.4079 110.273C38.4349 111.609 37.7369 112.851 36.5599 113.483L32.5417 115.637L39.5812 128.764L43.6005 126.609C44.7765 125.979 46.1984 126.084 47.2959 126.845C47.9052 127.269 48.5355 127.659 49.1828 128.012C50.3599 128.655 51.0932 129.883 51.0521 131.223L50.9115 135.789L65.7948 136.252L65.9369 131.683C65.9787 130.345 66.7979 129.184 68.0073 128.612C68.338 128.456 68.6667 128.291 68.9937 128.115C69.3172 127.943 69.6349 127.761 69.9469 127.572C71.0953 126.879 72.5214 126.839 73.662 127.547L77.5412 129.952Z" fill="#E7E8E5"/>
<path d="M60.6151 150.392C43.1907 167.451 40.2656 193.843 43.938 216.959C44.0334 217.484 44.8443 217.34 44.8443 216.847C44.8443 211.585 44.685 206.371 44.7011 201.171C44.7964 200.933 44.8755 200.711 44.9714 200.472C49.5183 197.165 53.6995 193.429 56.2912 188.309C59.2 182.587 60.3443 176.132 62.5703 170.155C62.7776 169.581 62.1678 169.749 61.7678 170.045C51.1688 177.861 47.7907 186.275 44.7484 197.515C44.8912 191.68 45.3364 185.845 46.5927 180.011C48.8823 169.343 53.4136 158.771 61.076 150.853C61.3626 150.552 60.9172 150.091 60.6151 150.392Z" fill="#17282F"/>
<path d="M63.8901 152.381C66.8875 152.483 68.7672 157.275 71.1031 158.671C72.3385 159.416 73.5421 159.371 74.4109 158.152C76.726 154.92 73.5495 150.935 70.5631 148.705C72.6989 149.583 74.4708 151.127 76.7735 151.564C78.1683 151.82 79.2521 151.303 79.5776 149.885C80.5927 145.48 75.0672 143.52 71.276 143.428C73.114 142.151 78.3817 138.676 75.5833 136.969C72.7473 135.255 66.5667 140.221 64.55 141.856C61.5875 144.26 58.0531 147.853 57.9197 151.613C57.7464 156.003 61.5833 153.301 63.8901 152.381Z" fill="#FABB1E"/>
<path d="M72.6447 159.163C72.1526 159.163 71.6306 158.989 71.103 158.671C69.3718 157.636 67.8917 154.736 66.0207 153.263C65.7994 153.088 65.5729 152.933 65.339 152.805C64.8838 152.553 64.403 152.399 63.8901 152.381C62.5515 152.915 60.6973 154.049 59.4109 154.049C59.0567 154.049 58.7453 153.963 58.4994 153.755C58.3155 153.599 58.1687 153.375 58.0682 153.067C57.9677 152.76 57.9135 152.372 57.9139 151.885C57.9139 151.797 57.9161 151.708 57.9197 151.613C58.053 147.853 61.5874 144.26 64.5499 141.856C66.2765 140.456 71.0557 136.615 74.1745 136.615C74.6978 136.615 75.1754 136.723 75.5833 136.969C76.1515 137.316 76.3874 137.736 76.3863 138.195C76.3827 139.997 72.7406 142.409 71.2759 143.428C74.7562 143.512 79.6973 145.171 79.6999 148.849C79.6999 149.179 79.6609 149.524 79.5775 149.885C79.3051 151.072 78.5015 151.627 77.4286 151.627C77.2197 151.627 77.001 151.607 76.7734 151.564C74.4707 151.127 72.6989 149.583 70.563 148.705C72.8322 150.399 75.2109 153.107 75.2073 155.727C75.2062 156.556 74.9671 157.376 74.4109 158.152C73.913 158.851 73.3057 159.163 72.6447 159.163Z" fill="#F4AC12"/>
<path d="M63.0224 153.12C66.8546 151.379 74.2177 153.887 74.8437 152.436C76.1136 149.483 70.2292 147.457 67.0536 147.065C69.9786 146.273 75.5828 145.009 75.4098 142.189C75.2 138.745 66.8145 141.708 62.5702 144.961C57.2234 149.061 57.2584 153.017 58.1426 153.809C59.3546 154.896 62.3901 153.408 63.0224 153.12Z" fill="#FABB1E"/>
<path d="M20.9323 148.704C38.9927 165.088 42.9198 191.348 40.1293 214.588C40.0542 215.115 39.2386 215.003 39.2194 214.511C39.0189 209.252 38.9798 204.036 38.7662 198.84C38.6615 198.607 38.5735 198.388 38.4694 198.152C33.8001 195.02 29.4798 191.445 26.6954 186.429C23.5703 180.821 22.1813 174.415 19.7298 168.525C19.5017 167.961 20.1173 168.107 20.5282 168.387C31.4167 175.793 35.1126 184.072 38.5798 195.188C38.2141 189.364 37.5474 183.551 36.0709 177.768C33.3777 167.195 28.4474 156.803 20.4891 149.181C20.1913 148.891 20.6189 148.413 20.9323 148.704Z" fill="#17282F"/>
<path d="M17.7359 150.816C14.7442 151.031 13.0484 155.891 10.7671 157.376C9.56035 158.165 8.35619 158.165 7.44161 156.983C5.00515 153.841 8.02754 149.737 10.927 147.396C8.82598 148.355 7.11453 149.964 4.83015 150.489C3.44578 150.797 2.34369 150.323 1.96401 148.917C0.782751 144.555 6.22911 142.387 10.0135 142.149C8.12911 140.941 2.73327 137.672 5.46401 135.859C8.23327 134.039 14.5983 138.765 16.675 140.324C19.7281 142.613 23.3953 146.068 23.6718 149.821C24.0125 154.201 20.0754 151.648 17.7359 150.816Z" fill="#FABB1E"/>
<path d="M9.16672 157.927C8.53598 157.927 7.94484 157.633 7.44172 156.983C6.8136 156.173 6.54797 155.299 6.55005 154.408C6.55526 151.843 8.77505 149.135 10.9271 147.396C8.82609 148.355 7.11464 149.964 4.83026 150.489C4.56256 150.548 4.30526 150.579 4.06202 150.579C3.04693 150.579 2.27036 150.051 1.96412 148.917C1.85213 148.504 1.80005 148.111 1.80005 147.736C1.79953 144.161 6.58756 142.364 10.0136 142.149C8.49693 141.177 4.70682 138.871 4.70734 137.061C4.70734 136.623 4.93078 136.213 5.46412 135.859C5.90005 135.572 6.42505 135.448 7.00838 135.448C10.1308 135.448 14.9251 139.011 16.6751 140.324C19.7282 142.613 23.3954 146.068 23.6719 149.821C23.686 149.999 23.6922 150.165 23.6927 150.32C23.6927 150.853 23.6151 151.259 23.4755 151.56C23.349 151.583 23.2626 151.704 23.2412 151.916C23.2194 151.94 23.197 151.961 23.174 151.983C22.9172 152.219 22.5782 152.313 22.187 152.313C20.9042 152.313 19.0631 151.288 17.736 150.816C14.7443 151.031 13.0485 155.891 10.7672 157.376C10.2245 157.731 9.68234 157.927 9.16672 157.927Z" fill="#F4AC12"/>
<path d="M18.6302 151.521C14.7344 149.927 7.47183 152.712 6.7911 151.285C5.41089 148.384 11.213 146.136 14.3718 145.623C11.4187 144.944 5.77079 143.895 5.83588 141.069C5.91454 137.619 14.4068 140.261 18.7713 143.351C24.2708 147.245 24.386 151.199 23.5333 152.024C22.3625 153.157 19.2734 151.784 18.6302 151.521Z" fill="#FABB1E"/>
<path d="M39.401 191.975C40.7349 200.608 42.3879 209.536 45.0087 217.88C45.2593 218.64 46.3874 218.445 46.2713 217.624C45.0849 209.641 42.9223 201.805 41.7354 193.823C40.5306 185.745 39.8859 177.557 40.3489 169.387C41.1093 155.935 44.7625 141.624 53.5406 131.099C53.7327 130.849 53.3239 130.497 53.125 130.728C35.551 151.22 38.3469 176.343 38.3625 178.595C35.875 170.112 33.3114 160.388 23.8999 151.749C23.4942 151.377 23.177 151.555 23.2447 152.187C24.9275 167.921 29.3021 176.137 38.4245 184.549C38.6838 187.043 39.0051 189.524 39.401 191.975Z" fill="#17282F"/>
<path d="M53.6995 133.456C56.8604 132.052 61.2214 136.077 64.3495 136.352C66.0058 136.503 67.2318 135.848 67.5198 134.148C68.2959 129.629 62.9938 127.092 58.773 126.281C59.7875 126.219 60.7964 126.284 61.8011 126.349C63.4271 126.453 65.0422 126.559 66.6547 126.123C68.2312 125.685 69.0959 124.604 68.7194 122.969C67.5547 117.888 60.836 118.635 56.8563 120.447C58.1198 118.197 61.8364 111.943 58.0735 111.579C54.2683 111.227 50.3547 119.491 49.086 122.203C47.2219 126.189 45.364 131.696 47.1188 135.664C49.1479 140.305 51.7688 135.572 53.6995 133.456Z" fill="#FABB1E"/>
<path d="M49.127 137.635C49.0806 137.635 49.0344 137.632 48.988 137.628C48.7338 137.601 48.4817 137.5 48.2349 137.307C47.8494 137.004 47.4745 136.479 47.1188 135.664C46.6213 134.54 46.4145 133.293 46.415 131.992C46.4172 128.699 47.75 125.06 49.086 122.203C50.3286 119.547 54.1073 111.568 57.8364 111.568C57.9156 111.568 57.9948 111.572 58.0734 111.579C59.2754 111.695 59.714 112.412 59.7136 113.407C59.713 115.528 57.7161 118.916 56.8562 120.447C58.5776 119.663 60.8109 119.079 62.886 119.079C65.6084 119.079 68.0584 120.085 68.7193 122.969C68.7781 123.225 68.8068 123.467 68.8068 123.695C68.8084 124.925 67.9849 125.753 66.6546 126.123C65.7526 126.367 64.8494 126.441 63.9442 126.441C63.2317 126.441 62.5172 126.395 61.801 126.349C61.0849 126.303 60.3666 126.256 59.6453 126.256C59.3552 126.256 59.064 126.264 58.7729 126.281C62.7136 127.039 67.5964 129.3 67.5958 133.273C67.5958 133.556 67.5708 133.848 67.5197 134.148C67.3245 135.303 66.6969 135.975 65.7953 136.24C65.7828 136.244 65.7702 136.247 65.7573 136.251C65.4636 136.333 65.1406 136.373 64.7953 136.373C64.6505 136.373 64.5021 136.367 64.3494 136.352C64.05 136.325 63.7396 136.265 63.4193 136.179C60.8912 135.491 57.7912 133.16 55.1718 133.16C54.6604 133.16 54.1661 133.249 53.6994 133.456C53.1021 134.111 52.4396 135.016 51.7478 135.816C50.8932 136.805 49.9964 137.635 49.127 137.635Z" fill="#F4AC12"/>
<path d="M53.1713 134.66C56.2708 130.923 65.1724 129.819 65.0917 127.999C64.9224 124.296 57.7984 125.156 54.3063 126.347C56.9417 124.053 62.1203 119.923 60.5224 117.083C58.5697 113.613 51.3604 120.908 48.5953 126.421C45.1115 133.368 47.1385 137.453 48.4552 137.832C50.2604 138.348 52.6593 135.277 53.1713 134.66Z" fill="#FABB1E"/>
<path d="M27.8385 196.709L20.088 255.931H67.2527C66.2812 250.682 57.5027 196.641 57.5027 196.641L27.8385 196.709Z" fill="#FABB1E"/>
<path d="M0 256.131L68.8751 255.807L137.751 255.688L275.501 255.465L413.251 255.686L482.128 255.804L551.003 256.131L482.128 256.456L413.251 256.573L275.501 256.796L137.751 256.572L68.8751 256.455L0 256.131Z" fill="#17282F"/>
<path d="M474.244 343.993C474.244 359.512 385.263 372.093 275.501 372.093C165.739 372.093 76.7593 359.512 76.7593 343.993C76.7593 328.474 165.739 315.892 275.501 315.892C385.263 315.892 474.244 328.474 474.244 343.993Z" fill="#E7E8E5"/>
<path d="M302.971 167.612H255.62V163.732H302.971V167.612Z" fill="#273E47"/>
<path d="M302.971 172.665H255.62V168.785H302.971V172.665Z" fill="#273E47"/>
<path d="M302.971 177.717H255.62V173.837H302.971V177.717Z" fill="#273E47"/>
<path d="M302.971 182.769H255.62V178.889H302.971V182.769Z" fill="#273E47"/>
<path d="M302.971 187.821H255.62V183.943H302.971V187.821Z" fill="#273E47"/>
<path d="M323.468 288.61H233.445V284.731H323.468V288.61Z" fill="#273E47"/>
<path d="M323.468 293.663H233.445V289.783H323.468V293.663Z" fill="#273E47"/>
<path d="M323.468 298.715H233.445V294.834H323.468V298.715Z" fill="#273E47"/>
<path d="M323.468 303.767H233.445V299.888H323.468V303.767Z" fill="#273E47"/>
<path d="M233.445 308.82H323.468V304.941H233.445V308.82Z" fill="#273E47"/>
<path d="M193.947 131.671C193.991 131.147 174.243 124.532 174.243 124.532L175.409 56.6826L201.595 51.064L193.947 131.671Z" fill="#FABB1E"/>
<path d="M191.991 130.757C187.011 128.808 174.243 124.532 174.243 124.532L175.409 56.6827L198.741 51.6773C196.045 78.2346 193.583 109.336 191.991 130.757Z" fill="#D59814"/>
<path d="M374.82 158.303C374.959 157.795 395.777 158.38 395.777 158.38L418.031 94.2746L395.379 79.9879L374.82 158.303Z" fill="#FABB1E"/>
<path d="M395.777 158.38C395.777 158.38 385.657 158.096 379.483 158.096C378.229 158.096 377.137 158.107 376.327 158.135C382.517 136.691 391.499 105.519 398.317 81.8399L418.031 94.2746L395.777 158.38Z" fill="#D59814"/>
<path d="M190.145 156.653C190.145 156.653 197.467 46.9226 203.888 10.8253C203.888 10.8253 336.443 20.8506 408.003 48.2013C408.003 48.2013 371.109 176.372 369.201 182.732C369.201 182.732 275.857 164.344 190.145 156.653Z" fill="#FABB1E"/>
<path d="M383.427 125.517L380.059 124.764C380.064 124.739 380.071 124.713 380.076 124.688L383.427 125.517ZM302.86 107.023L294.445 105.056L293.996 104.951L294.077 104.497L301.151 64.9667C303.529 51.7947 305.983 38.6347 308.464 25.4787C306.308 38.692 304.129 51.9 301.871 65.0933L295.116 104.212L303.092 106.107C303.012 106.409 302.935 106.716 302.86 107.023Z" fill="#F4AC12"/>
<path d="M301.031 35.5972C300.427 35.5972 299.799 35.3812 299.313 34.9598C298.767 34.4825 298.44 33.7505 298.436 33.0092C298.439 32.2692 298.764 31.5358 299.312 31.0585C299.795 30.6345 300.425 30.4198 301.029 30.4198C301.108 30.4198 301.185 30.4238 301.263 30.4305C302.651 30.5532 303.615 31.7998 303.591 33.0092C303.616 34.2198 302.649 35.4652 301.263 35.5865C301.187 35.5932 301.108 35.5972 301.031 35.5972ZM301.497 30.9198C301.419 30.9198 301.34 30.9252 301.263 30.9332C300.144 31.0625 299.419 32.0665 299.435 33.0092C299.419 33.9518 300.143 34.9612 301.263 35.0878C301.34 35.0972 301.417 35.1012 301.495 35.1012C301.972 35.1012 302.469 34.9385 302.86 34.6065C303.315 34.2198 303.585 33.6198 303.591 33.0092C303.585 32.3985 303.315 31.7998 302.86 31.4132C302.468 31.0825 301.972 30.9198 301.497 30.9198Z" fill="#F4AC12"/>
<path d="M298.703 51.9253C298.099 51.9253 297.471 51.7093 296.985 51.2866C296.439 50.8106 296.112 50.0786 296.108 49.3373C296.112 48.5973 296.437 47.8626 296.984 47.3866C297.467 46.9626 298.097 46.7479 298.701 46.7479C298.78 46.7479 298.857 46.7506 298.935 46.7586C300.323 46.88 301.288 48.1266 301.263 49.3373C301.288 50.548 300.321 51.7933 298.935 51.9146C298.859 51.9213 298.78 51.9253 298.703 51.9253ZM299.169 47.2479C299.091 47.2479 299.012 47.252 298.935 47.2613C297.816 47.3906 297.091 48.3933 297.107 49.3373C297.089 50.28 297.813 51.2893 298.935 51.416C299.012 51.4253 299.089 51.4293 299.167 51.4293C299.644 51.4293 300.141 51.2666 300.532 50.9346C300.987 50.548 301.256 49.948 301.263 49.3373C301.257 48.7266 300.987 48.1266 300.531 47.7413C300.14 47.4106 299.645 47.2479 299.169 47.2479Z" fill="#F4AC12"/>
<path d="M295.836 69.176C295.232 69.176 294.604 68.9614 294.12 68.5387C293.573 68.0614 293.247 67.3293 293.243 66.5893C293.245 65.8493 293.571 65.1147 294.119 64.6387C294.601 64.2147 295.231 64 295.835 64C295.913 64 295.992 64.0027 296.069 64.0107C297.457 64.132 298.42 65.3787 298.396 66.5893C298.42 67.8 297.456 69.044 296.069 69.1653C295.992 69.172 295.915 69.176 295.836 69.176ZM296.303 64.4987C296.224 64.4987 296.145 64.504 296.069 64.512C294.951 64.6413 294.224 65.6453 294.241 66.5893C294.223 67.532 294.948 68.54 296.069 68.668C296.145 68.676 296.223 68.6813 296.3 68.6813C296.777 68.6813 297.275 68.5173 297.665 68.1853C298.121 67.8 298.391 67.2 298.396 66.5893C298.391 65.9787 298.12 65.3787 297.665 64.9933C297.275 64.6627 296.777 64.4987 296.303 64.4987Z" fill="#F4AC12"/>
<path d="M292.971 86.428C292.367 86.428 291.737 86.2133 291.252 85.7893C290.705 85.3146 290.379 84.5813 290.375 83.84C290.379 83.1013 290.704 82.3666 291.252 81.8893C291.733 81.4666 292.363 81.2506 292.967 81.2506C293.045 81.2506 293.124 81.2546 293.201 81.2626C294.589 81.384 295.555 82.6307 295.529 83.84C295.555 85.052 294.588 86.296 293.201 86.4173C293.125 86.424 293.048 86.428 292.971 86.428ZM293.433 81.7506C293.355 81.7506 293.279 81.7546 293.201 81.764C292.084 81.8933 291.359 82.8973 291.373 83.84C291.357 84.7827 292.081 85.792 293.201 85.92C293.277 85.928 293.355 85.9333 293.432 85.9333C293.909 85.9333 294.407 85.7693 294.8 85.4373C295.253 85.052 295.524 84.4507 295.529 83.84C295.525 83.2293 295.253 82.6293 294.799 82.244C294.407 81.9133 293.909 81.7506 293.433 81.7506Z" fill="#F4AC12"/>
<path d="M302.735 113.941C302.131 113.941 301.504 113.725 301.02 113.303C300.473 112.828 300.145 112.095 300.143 111.353C300.145 110.613 300.472 109.88 301.019 109.403C301.5 108.98 302.129 108.764 302.735 108.764C302.813 108.764 302.892 108.768 302.971 108.776C303.496 108.821 303.963 109.029 304.336 109.336C304.319 109.409 304.303 109.485 304.287 109.56C303.952 109.361 303.572 109.264 303.204 109.264C303.125 109.264 303.047 109.269 302.971 109.279C301.851 109.407 301.125 110.411 301.143 111.353C301.124 112.296 301.849 113.305 302.971 113.433C303.045 113.441 303.123 113.445 303.2 113.445C303.353 113.445 303.511 113.429 303.665 113.395C303.651 113.524 303.637 113.653 303.624 113.781C303.42 113.859 303.2 113.911 302.971 113.931C302.892 113.937 302.815 113.941 302.735 113.941Z" fill="#F4AC12"/>
<path d="M290.101 103.68C289.499 103.68 288.871 103.464 288.387 103.043C287.839 102.565 287.512 101.833 287.508 101.092C287.512 100.352 287.837 99.6173 288.384 99.1413C288.868 98.7173 289.496 98.5026 290.1 98.5026C290.179 98.5026 290.259 98.5066 290.336 98.5132C291.724 98.6359 292.688 99.8826 292.663 101.092C292.688 102.303 291.721 103.548 290.336 103.669C290.259 103.676 290.18 103.68 290.101 103.68ZM290.571 99.0026C290.492 99.0026 290.413 99.0079 290.336 99.0159C289.217 99.1453 288.491 100.149 288.508 101.092C288.489 102.035 289.215 103.044 290.336 103.171C290.412 103.18 290.489 103.184 290.567 103.184C291.044 103.184 291.54 103.021 291.932 102.689C292.388 102.303 292.657 101.703 292.663 101.092C292.657 100.481 292.387 99.8826 291.932 99.4973C291.54 99.1653 291.045 99.0026 290.571 99.0026Z" fill="#F4AC12"/>
<path d="M240.125 139.332C238.124 139.332 236.099 139.172 234.06 138.841C213.539 135.517 199.597 116.187 202.923 95.6654C205.916 77.1827 221.896 64.0374 240.033 64.0374C242.035 64.0374 244.06 64.1974 246.1 64.5267C266.621 67.852 280.561 87.1827 277.237 107.705C274.243 126.187 258.263 139.332 240.125 139.332Z" fill="#D59814"/>
<path d="M269.88 106.512C267.213 122.971 251.709 134.151 235.252 131.485C218.795 128.819 207.613 113.315 210.28 96.8574C212.947 80.3987 228.449 69.2187 244.908 71.8854C261.365 74.552 272.545 90.0547 269.88 106.512Z" fill="#17282F"/>
<path d="M237.111 97.6641L230.053 96.5201L231.196 89.4627L238.253 90.6067L237.111 97.6641Z" fill="#FABB1E"/>
<path d="M231.196 89.4626L224.139 88.32L225.281 81.2626L232.339 82.4053L231.196 89.4626Z" fill="#FABB1E"/>
<path d="M259.425 94.0374L252.368 92.8933L253.511 85.836L260.568 86.98L259.425 94.0374Z" fill="#FABB1E"/>
<path d="M226.648 117.533L219.591 116.389L220.735 109.333L227.792 110.476L226.648 117.533Z" fill="#FABB1E"/>
<path d="M254.877 122.108L247.82 120.964L248.964 113.907L256.021 115.051L254.877 122.108Z" fill="#FABB1E"/>
<path d="M234.849 111.619L227.792 110.476L228.935 103.419L235.992 104.561L234.849 111.619Z" fill="#FABB1E"/>
<path d="M243.036 105.784L235.979 104.641L237.123 97.5839L244.18 98.7266L243.036 105.784Z" fill="#FABB1E"/>
<path d="M251.224 99.9507L244.168 98.808L245.311 91.7493L252.368 92.8933L251.224 99.9507Z" fill="#FABB1E"/>
<path d="M248.964 113.907L241.907 112.763L243.049 105.705L250.107 106.848L248.964 113.907Z" fill="#FABB1E"/>
<path d="M377.712 126.163C372.905 146.388 352.612 158.888 332.387 154.081C312.161 149.275 299.661 128.981 304.469 108.756C309.275 88.5307 329.568 76.0307 349.793 80.8374C370.02 85.644 382.519 105.937 377.712 126.163Z" fill="#FABB1E"/>
<path d="M341.121 155.109C338.24 155.109 335.312 154.776 332.387 154.081C315.085 149.969 303.436 134.524 303.44 117.483C303.44 114.785 303.733 112.045 304.343 109.307C304.095 110.44 303.9 111.567 303.751 112.692L311.069 114.253C309.459 129.152 319.149 143.273 334.111 146.831C336.457 147.388 338.804 147.655 341.115 147.655C353.995 147.655 365.739 139.353 369.804 126.781L377.123 128.341C377.167 128.197 377.211 128.052 377.253 127.907C372.549 144.241 357.58 155.109 341.121 155.109Z" fill="#D59814"/>
<path d="M377.253 127.907C377.42 127.332 377.572 126.749 377.712 126.163C377.804 125.776 377.889 125.389 377.969 125.003L377.972 125.004C377.893 125.391 377.807 125.781 377.715 126.168C377.577 126.76 377.423 127.335 377.253 127.907Z" fill="#D59814"/>
<path d="M304.343 109.307C304.383 109.121 304.424 108.937 304.468 108.752C304.559 108.367 304.656 107.983 304.759 107.604H304.761C304.659 107.984 304.56 108.369 304.469 108.756C304.425 108.94 304.383 109.123 304.343 109.307Z" fill="#D59814"/>
<path d="M377.123 128.341L369.804 126.781C370.052 126.016 370.271 125.236 370.46 124.44C370.552 124.052 370.636 123.665 370.712 123.277L377.969 125.003C377.889 125.389 377.804 125.776 377.712 126.163C377.572 126.749 377.42 127.332 377.253 127.907C377.211 128.052 377.167 128.197 377.123 128.341ZM311.069 114.253L303.751 112.692C303.9 111.567 304.095 110.44 304.343 109.307C304.383 109.123 304.425 108.94 304.469 108.756C304.56 108.369 304.659 107.984 304.761 107.604L312.017 109.328C311.912 109.708 311.812 110.093 311.72 110.48C311.421 111.739 311.205 112.999 311.069 114.253Z" fill="#A27619"/>
<path d="M370.46 124.44C366.605 140.66 350.331 150.684 334.111 146.831C317.889 142.975 307.864 126.7 311.72 110.48C315.576 94.2587 331.849 84.2334 348.071 88.0894C364.291 91.944 374.315 108.219 370.46 124.44Z" fill="#17282F"/>
<path d="M340.455 135.597L333.499 133.942L341.727 99.3225L348.683 100.974L340.455 135.597Z" fill="#FABB1E"/>
<path d="M379.9 125.461L302.831 107.145C307.888 85.8678 329.244 72.7212 350.521 77.7785C371.799 82.8345 384.956 104.184 379.9 125.461Z" fill="#FABB1E"/>
<path d="M379.9 125.461L344.843 117.129L337.888 115.477L302.831 107.145C307.156 88.9465 323.405 76.6959 341.329 76.6959C344.363 76.6959 347.441 77.0465 350.521 77.7785C368.723 82.1038 380.983 98.3532 380.981 116.281C380.981 119.056 380.687 121.871 380.076 124.688C380.071 124.713 380.064 124.739 380.059 124.764C380.008 124.996 379.955 125.229 379.9 125.461Z" fill="#D59814"/>
<path d="M296.627 142.968C296.124 140.011 295.36 137.141 293.972 134.784C292.595 132.411 290.417 130.935 287.82 130.704C287.401 130.652 286.984 130.625 286.571 130.625C284.368 130.625 282.26 131.364 280.508 132.844C278.425 134.599 276.837 137.111 275.596 139.835C275.791 136.827 276.897 133.775 279.079 131.36C280.155 130.144 281.589 129.189 283.172 128.608C284.355 128.173 285.608 128.005 286.844 128.005C287.268 128.005 287.689 128.025 288.105 128.06C289.763 128.253 291.456 128.837 292.836 129.883C294.192 130.949 295.229 132.339 295.84 133.836C297.096 136.821 297.235 140.009 296.627 142.968Z" fill="#F4AC12"/>
<path d="M200.456 63.0586C200.769 59.0373 201.22 55.0346 201.601 51.0239C202.029 47.0186 202.469 43.0146 202.957 39.0173C203.42 35.0173 203.941 31.0253 204.452 27.0306C204.953 23.0359 205.532 19.0519 206.069 15.0626L206.212 13.9973L207.292 14.0639C215.977 14.6119 224.644 15.3133 233.299 16.2026C237.625 16.6466 241.947 17.1493 246.261 17.7053C250.569 18.3239 254.884 18.8932 259.167 19.6772L233.143 18.0666L207.148 16.3853L208.371 15.3879C207.78 19.3706 207.231 23.3586 206.605 27.3359C205.991 31.3146 205.384 35.2946 204.72 39.2666C204.08 43.2426 203.392 47.2106 202.693 51.1772C201.947 55.1386 201.271 59.1079 200.456 63.0586Z" fill="white"/>
<path d="M206.717 93.4812C207.591 88.6465 209.788 84.0385 212.739 80.0279C213.473 79.0185 214.309 78.0852 215.113 77.1265C215.984 76.2279 216.891 75.3599 217.784 74.4772C218.757 73.6852 219.743 72.8999 220.743 72.1386C221.805 71.4639 222.853 70.7612 223.935 70.1145C225.072 69.5692 226.203 69.0052 227.351 68.4865L230.927 67.2492L234.628 66.4852C235.871 66.3025 237.133 66.2652 238.38 66.1706C243.4 66.0412 248.339 67.1119 252.872 68.9479C248.047 68.0452 243.239 67.5426 238.499 67.9959C233.771 68.4359 229.176 69.8492 225.068 72.1639C220.928 74.4239 217.261 77.5412 214.164 81.1625C211.079 84.8025 208.525 88.9252 206.717 93.4812Z" fill="white"/>
<path d="M310.549 103.649C312.084 98.9814 314.896 94.7227 318.372 91.1574C319.239 90.2587 320.196 89.4494 321.125 88.6121C322.111 87.8414 323.128 87.1067 324.136 86.3561C325.209 85.7067 326.293 85.0641 327.388 84.4467C328.533 83.9267 329.669 83.3761 330.829 82.8854C332.031 82.5001 333.229 82.0988 334.437 81.7428L338.151 81.0107L341.921 80.7667C343.177 80.7574 344.433 80.8934 345.681 80.9734C350.671 81.5388 355.415 83.2801 359.651 85.7241C354.996 84.1641 350.305 83.0027 345.547 82.7961C340.804 82.5801 336.057 83.3454 331.669 85.0708C327.256 86.7374 323.196 89.3187 319.628 92.4774C316.069 95.6574 312.972 99.3867 310.549 103.649Z" fill="white"/>
<path d="M194.357 224.276C184.715 224.276 163.605 222.108 150.021 204.643C132.643 182.299 138.923 139.424 139.199 137.609L146.744 138.755C146.681 139.167 140.685 180.209 156.045 199.957C171.063 219.267 198.301 216.495 198.575 216.46L199.433 224.044C199.135 224.077 197.267 224.276 194.357 224.276Z" fill="#FABB1E"/>
<path d="M193.753 224.272C183.857 224.181 163.328 221.751 150.021 204.643C140.059 191.835 137.872 172.279 137.871 157.579C137.871 146.636 139.081 138.383 139.199 137.609L146.744 138.755C146.717 138.936 145.54 146.981 145.54 157.617C145.539 171.157 147.443 188.897 156.045 199.957C166.756 213.728 183.683 216.268 192.609 216.58L193.753 224.272Z" fill="#FCD361"/>
<path d="M148.965 143.945C147.588 143.945 146.184 143.832 144.752 143.6C132.025 141.539 126.39 133.921 123.903 127.895C121.411 121.855 120.835 114.549 122.192 106.18L138.333 108.796C137.493 113.981 137.737 118.549 139.02 121.66C139.935 123.877 141.711 126.541 147.368 127.457C149.952 127.876 152.745 127.656 155.671 123.243C157.928 119.837 159.285 115.203 159.76 112.268L175.901 114.883C175.528 117.192 173.947 125.272 169.299 132.279C164.244 139.901 157.131 143.945 148.965 143.945Z" fill="#FABB1E"/>
<path d="M210.301 246.116C210.273 245.769 196.627 243.588 196.627 243.588L190.003 199.048L206.531 192.519L210.301 246.116Z" fill="#FABB1E"/>
<path d="M208.469 245.637C204.743 244.885 196.627 243.588 196.627 243.588L190.003 199.048L204.78 193.211C205.267 209.295 206.801 228.44 208.469 245.637Z" fill="#D59814"/>
<path d="M345.229 246.198C345.265 245.852 358.957 243.974 358.957 243.974L366.564 199.591L350.184 192.699L345.229 246.198Z" fill="#FABB1E"/>
<path d="M361.996 226.24L365.969 199.34L366.564 199.591L361.996 226.24ZM350.459 201.845C350.793 198.6 351.093 195.683 351.351 193.189L364.977 198.923L361.168 198.224L350.459 201.845Z" fill="#D59814"/>
<path d="M204.623 182.547C204.623 182.547 315.004 177.827 352.291 184.041C352.291 184.041 341.341 290.848 340.751 292.92C340.751 292.92 230.948 292.624 213.784 292.92C213.784 292.92 204.481 221.897 204.623 182.547Z" fill="#FABB1E"/>
<path d="M312.463 267.47C312.463 267.47 285.821 267.404 265.285 267.404C257.523 267.404 250.637 267.413 246.387 267.44L241.911 211.677C249.095 211.434 265.519 210.948 281.917 210.948C296.309 210.948 310.681 211.322 318.763 212.566L312.463 267.47Z" fill="#D59814"/>
<path d="M243.148 267.474C243.148 267.474 239.036 230.607 238.147 211.811C238.147 211.811 239.517 211.757 241.911 211.677C239.519 211.759 238.151 211.813 238.151 211.813C239.033 230.609 243.151 267.47 243.151 267.47C243.913 267.458 245.012 267.448 246.387 267.44V267.446C245.007 267.446 243.913 267.465 243.148 267.474Z" fill="#D59814"/>
<path d="M243.151 267.47C243.151 267.47 239.033 230.609 238.151 211.813C238.151 211.813 239.519 211.758 241.911 211.678L246.387 267.44C245.012 267.448 243.913 267.458 243.151 267.47Z" fill="#A27619"/>
<path d="M267.6 232.906C266.665 235.874 263.507 237.52 260.543 236.586C257.579 235.652 255.932 232.494 256.867 229.525C257.801 226.561 260.96 224.916 263.928 225.851C266.889 226.784 268.535 229.944 267.6 232.906ZM264.161 225.104C260.783 224.04 257.185 225.914 256.12 229.289C255.056 232.669 256.932 236.265 260.309 237.33C263.684 238.393 267.279 236.52 268.343 233.142C269.407 229.769 267.535 226.166 264.161 225.104ZM267.6 232.906C266.665 235.874 263.507 237.52 260.543 236.586C257.579 235.652 255.932 232.494 256.867 229.525C257.801 226.561 260.96 224.916 263.928 225.851C266.889 226.784 268.535 229.944 267.6 232.906ZM264.161 225.104C260.783 224.04 257.185 225.914 256.12 229.289C255.056 232.669 256.932 236.265 260.309 237.33C263.684 238.393 267.279 236.52 268.343 233.142C269.407 229.769 267.535 226.166 264.161 225.104ZM267.6 232.906C266.665 235.874 263.507 237.52 260.543 236.586C257.579 235.652 255.932 232.494 256.867 229.525C257.801 226.561 260.96 224.916 263.928 225.851C266.889 226.784 268.535 229.944 267.6 232.906ZM268.343 233.142C269.407 229.769 267.535 226.166 264.161 225.104C260.783 224.04 257.185 225.914 256.12 229.289C255.056 232.669 256.932 236.265 260.309 237.33C263.684 238.393 267.279 236.52 268.343 233.142ZM269.296 233.441C268.068 237.337 263.903 239.508 260.008 238.281C256.115 237.054 253.944 232.889 255.172 228.993C256.4 225.096 260.568 222.928 264.461 224.156C268.352 225.382 270.523 229.548 269.296 233.441ZM266.296 218.333C259.175 216.091 251.592 220.046 249.349 227.157C247.108 234.272 251.056 241.86 258.173 244.101C265.285 246.341 272.875 242.389 275.115 235.276C277.359 228.165 273.408 220.572 266.296 218.333ZM267.6 232.906C266.665 235.874 263.507 237.52 260.543 236.586C257.579 235.652 255.932 232.494 256.867 229.525C257.801 226.561 260.96 224.916 263.928 225.851C266.889 226.784 268.535 229.944 267.6 232.906ZM264.161 225.104C260.783 224.04 257.185 225.914 256.12 229.289C255.056 232.669 256.932 236.265 260.309 237.33C263.684 238.393 267.279 236.52 268.343 233.142C269.407 229.769 267.535 226.166 264.161 225.104ZM267.6 232.906C266.665 235.874 263.507 237.52 260.543 236.586C257.579 235.652 255.932 232.494 256.867 229.525C257.801 226.561 260.96 224.916 263.928 225.851C266.889 226.784 268.535 229.944 267.6 232.906ZM264.161 225.104C260.783 224.04 257.185 225.914 256.12 229.289C255.056 232.669 256.932 236.265 260.309 237.33C263.684 238.393 267.279 236.52 268.343 233.142C269.407 229.769 267.535 226.166 264.161 225.104ZM267.6 232.906C266.665 235.874 263.507 237.52 260.543 236.586C257.579 235.652 255.932 232.494 256.867 229.525C257.801 226.561 260.96 224.916 263.928 225.851C266.889 226.784 268.535 229.944 267.6 232.906ZM264.161 225.104C260.783 224.04 257.185 225.914 256.12 229.289C255.056 232.669 256.932 236.265 260.309 237.33C263.684 238.393 267.279 236.52 268.343 233.142C269.407 229.769 267.535 226.166 264.161 225.104Z" fill="#FABB1E"/>
<path d="M260.819 244.346L255.864 242.786L255.033 246.379L259.44 247.767L260.819 244.346Z" fill="#FABB1E"/>
<path d="M251.916 239.707L249.516 235.1L246.388 237.053L248.523 241.149L251.916 239.707Z" fill="#FABB1E"/>
<path d="M248.901 230.129L250.463 225.175L246.869 224.344L245.48 228.751L248.901 230.129Z" fill="#FABB1E"/>
<path d="M253.541 221.225L258.148 218.828L256.196 215.699L252.097 217.833L253.541 221.225Z" fill="#FABB1E"/>
<path d="M263.117 218.212L268.072 219.773L268.903 216.179L264.497 214.791L263.117 218.212Z" fill="#FABB1E"/>
<path d="M272.021 222.852L274.42 227.458L277.548 225.505L275.415 221.408L272.021 222.852Z" fill="#FABB1E"/>
<path d="M275.036 232.429L273.475 237.383L277.068 238.215L278.456 233.808L275.036 232.429Z" fill="#FABB1E"/>
<path d="M270.395 241.332L265.788 243.731L267.741 246.858L271.839 244.725L270.395 241.332Z" fill="#FABB1E"/>
<path d="M286.767 249.639C285.625 251.393 283.279 251.889 281.525 250.748C279.772 249.607 279.276 247.262 280.419 245.504C281.56 243.752 283.907 243.256 285.661 244.397C287.413 245.54 287.909 247.885 286.767 249.639ZM285.948 243.956C283.951 242.655 281.277 243.221 279.977 245.217C278.676 247.217 279.243 249.888 281.24 251.188C283.236 252.489 285.907 251.924 287.207 249.925C288.507 247.931 287.944 245.256 285.948 243.956ZM286.767 249.639C285.625 251.393 283.279 251.889 281.525 250.748C279.772 249.607 279.276 247.262 280.419 245.504C281.56 243.752 283.907 243.256 285.661 244.397C287.413 245.54 287.909 247.885 286.767 249.639ZM285.948 243.956C283.951 242.655 281.277 243.221 279.977 245.217C278.676 247.217 279.243 249.888 281.24 251.188C283.236 252.489 285.907 251.924 287.207 249.925C288.507 247.931 287.944 245.256 285.948 243.956ZM286.767 249.639C285.625 251.393 283.279 251.889 281.525 250.748C279.772 249.607 279.276 247.262 280.419 245.504C281.56 243.752 283.907 243.256 285.661 244.397C287.413 245.54 287.909 247.885 286.767 249.639ZM287.207 249.925C288.507 247.931 287.944 245.256 285.948 243.956C283.951 242.655 281.277 243.221 279.977 245.217C278.676 247.217 279.243 249.888 281.24 251.188C283.236 252.489 285.907 251.924 287.207 249.925ZM287.771 250.291C286.269 252.596 283.176 253.251 280.872 251.751C278.569 250.251 277.916 247.157 279.416 244.852C280.917 242.548 284.012 241.895 286.315 243.395C288.616 244.893 289.271 247.988 287.771 250.291ZM288.557 239.951C284.345 237.209 278.712 238.403 275.972 242.609C273.232 246.819 274.42 252.452 278.631 255.193C282.837 257.932 288.473 256.741 291.212 252.533C293.953 248.328 292.764 242.689 288.557 239.951ZM286.767 249.639C285.625 251.393 283.279 251.889 281.525 250.748C279.772 249.607 279.276 247.262 280.419 245.504C281.56 243.752 283.907 243.256 285.661 244.397C287.413 245.54 287.909 247.885 286.767 249.639ZM285.948 243.956C283.951 242.655 281.277 243.221 279.977 245.217C278.676 247.217 279.243 249.888 281.24 251.188C283.236 252.489 285.907 251.924 287.207 249.925C288.507 247.931 287.944 245.256 285.948 243.956ZM286.767 249.639C285.625 251.393 283.279 251.889 281.525 250.748C279.772 249.607 279.276 247.262 280.419 245.504C281.56 243.752 283.907 243.256 285.661 244.397C287.413 245.54 287.909 247.885 286.767 249.639ZM285.948 243.956C283.951 242.655 281.277 243.221 279.977 245.217C278.676 247.217 279.243 249.888 281.24 251.188C283.236 252.489 285.907 251.924 287.207 249.925C288.507 247.931 287.944 245.256 285.948 243.956ZM286.767 249.639C285.625 251.393 283.279 251.889 281.525 250.748C279.772 249.607 279.276 247.262 280.419 245.504C281.56 243.752 283.907 243.256 285.661 244.397C287.413 245.54 287.909 247.885 286.767 249.639ZM285.948 243.956C283.951 242.655 281.277 243.221 279.977 245.217C278.676 247.217 279.243 249.888 281.24 251.188C283.236 252.489 285.907 251.924 287.207 249.925C288.507 247.931 287.944 245.256 285.948 243.956Z" fill="#D4D6D3"/>
<path d="M280.301 255.831L277.371 253.923L276.183 256.103L278.789 257.799L280.301 255.831Z" fill="#D4D6D3"/>
<path d="M275.367 251.212L274.644 247.789L272.261 248.492L272.905 251.534L275.367 251.212Z" fill="#D4D6D3"/>
<path d="M275.143 244.456L277.052 241.525L274.872 240.336L273.175 242.944L275.143 244.456Z" fill="#D4D6D3"/>
<path d="M279.763 239.521L283.184 238.797L282.483 236.416L279.44 237.059L279.763 239.521Z" fill="#D4D6D3"/>
<path d="M286.519 239.297L289.449 241.207L290.637 239.027L288.031 237.329L286.519 239.297Z" fill="#D4D6D3"/>
<path d="M291.453 243.917L292.176 247.337L294.557 246.637L293.916 243.595L291.453 243.917Z" fill="#D4D6D3"/>
<path d="M291.676 250.672L289.768 253.604L291.948 254.792L293.644 252.185L291.676 250.672Z" fill="#D4D6D3"/>
<path d="M287.057 255.608L283.636 256.331L284.336 258.712L287.379 258.069L287.057 255.608Z" fill="#D4D6D3"/>
<path d="M349.628 280.492L353.868 281.28L366.003 199.112L361.168 198.224L349.628 280.492Z" fill="#FABB1E"/>
<path d="M312.463 267.47L318.763 212.567L361.168 198.224C361.168 198.224 349.628 281.38 349.628 280.492L312.463 267.47Z" fill="#FABB1E"/>
<path d="M349.628 280.499C349.628 280.499 349.628 280.496 349.628 280.492L342.484 277.988L312.463 267.47L318.763 212.567L361.168 198.224C361.129 198.504 349.867 279.655 349.631 280.492C349.631 280.496 349.629 280.499 349.628 280.499Z" fill="#FCD361"/>
<path d="M209.688 214.791C208.997 210.243 208.624 205.659 208.34 201.069C208.211 198.775 208.152 196.475 208.101 194.176C208.055 191.877 208.015 189.576 208.084 187.276L208.101 186.672L208.689 186.64C217.113 186.188 225.532 185.635 233.961 185.267C242.387 184.851 250.815 184.473 259.248 184.209C250.84 184.971 242.429 185.619 234.016 186.228C225.607 186.887 217.185 187.357 208.771 187.932L209.377 187.296L209.343 194.163L209.423 201.031C209.435 203.323 209.476 205.613 209.543 207.905L209.688 214.791Z" fill="white"/>
<path d="M324.679 213.373C327.305 212.125 329.973 210.965 332.673 209.893C335.364 208.797 338.083 207.761 340.829 206.808C343.581 205.868 346.343 204.948 349.149 204.168C351.953 203.379 354.783 202.649 357.673 202.176L358.384 202.06L358.256 202.739C357.591 206.293 356.895 209.843 356.072 213.373C356.38 209.763 356.815 206.171 357.28 202.584L357.863 203.147C355.063 203.815 352.284 204.596 349.513 205.415C346.745 206.241 343.985 207.113 341.233 208.011L324.679 213.373Z" fill="white"/>
<path d="M231.808 292.695L231.092 278.963L230.481 265.225L229.424 237.749L228.599 210.264L228.267 196.517L228.103 186.664C228.149 186.66 228.195 186.657 228.24 186.655L228.752 196.501L229.364 210.237L230.423 237.715L231.251 265.2L231.581 278.945L231.808 292.695ZM228.084 185.549L228.039 182.769L228.183 185.544C228.151 185.547 228.117 185.548 228.084 185.549Z" fill="#F4AC12"/>
<path d="M228.103 186.664L228.084 185.549C228.117 185.548 228.151 185.547 228.183 185.544L228.24 186.655C228.195 186.657 228.149 186.66 228.103 186.664Z" fill="#E0E1DE"/>
<path d="M221.589 194.14C221.148 194.14 220.697 194.031 220.299 193.803C219.668 193.445 219.203 192.791 219.053 192.065C218.909 191.339 219.084 190.556 219.527 189.98C219.967 189.401 220.643 189.051 221.313 188.979C221.407 188.968 221.5 188.963 221.591 188.963C222.855 188.963 223.904 189.935 224.105 191.047C223.979 190.448 223.596 189.915 223.073 189.627C222.756 189.452 222.404 189.371 222.06 189.371C221.837 189.371 221.617 189.405 221.413 189.471C220.343 189.82 219.829 190.945 220.032 191.868C220.192 192.747 221.017 193.552 222.06 193.552C222.117 193.552 222.176 193.549 222.235 193.545C222.78 193.499 223.335 193.225 223.704 192.756C224.075 192.288 224.221 191.647 224.105 191.047C224.369 192.228 223.668 193.64 222.333 194.032C222.096 194.104 221.844 194.14 221.589 194.14Z" fill="#F4AC12"/>
<path d="M222.535 210.605C222.093 210.605 221.644 210.496 221.244 210.269C220.613 209.909 220.148 209.256 219.999 208.531C219.856 207.805 220.028 207.02 220.472 206.445C220.912 205.868 221.588 205.515 222.26 205.445C222.353 205.435 222.445 205.429 222.536 205.429C223.8 205.429 224.851 206.401 225.051 207.512C224.925 206.915 224.541 206.38 224.019 206.092C223.701 205.917 223.351 205.836 223.008 205.836C222.784 205.836 222.564 205.871 222.359 205.937C221.288 206.284 220.775 207.412 220.977 208.333C221.137 209.212 221.961 210.017 223.004 210.017C223.061 210.017 223.121 210.015 223.18 210.009C223.724 209.963 224.28 209.691 224.651 209.221C225.02 208.753 225.165 208.111 225.051 207.512C225.315 208.695 224.613 210.105 223.279 210.499C223.041 210.569 222.789 210.605 222.535 210.605Z" fill="#F4AC12"/>
<path d="M223.135 228.084C222.693 228.084 222.243 227.975 221.844 227.747C221.213 227.387 220.748 226.733 220.597 226.008C220.455 225.283 220.629 224.499 221.072 223.924C221.512 223.345 222.188 222.993 222.86 222.923C222.952 222.912 223.045 222.907 223.136 222.907C224.4 222.907 225.451 223.879 225.651 224.991C225.525 224.392 225.14 223.857 224.619 223.569C224.303 223.396 223.951 223.313 223.608 223.313C223.384 223.313 223.164 223.348 222.959 223.415C221.888 223.763 221.375 224.889 221.577 225.812C221.737 226.689 222.561 227.495 223.603 227.495C223.661 227.495 223.72 227.493 223.78 227.488C224.324 227.441 224.88 227.168 225.251 226.7C225.62 226.231 225.767 225.589 225.651 224.991C225.915 226.172 225.213 227.583 223.879 227.976C223.641 228.047 223.389 228.084 223.135 228.084Z" fill="#F4AC12"/>
<path d="M223.735 245.562C223.293 245.562 222.843 245.452 222.444 245.224C221.813 244.865 221.348 244.212 221.199 243.486C221.055 242.762 221.228 241.976 221.671 241.401C222.112 240.824 222.788 240.47 223.46 240.4C223.553 240.389 223.645 240.385 223.736 240.385C225 240.385 226.051 241.357 226.251 242.468C226.124 241.87 225.741 241.334 225.219 241.048C224.901 240.874 224.551 240.792 224.207 240.792C223.984 240.792 223.764 240.827 223.559 240.892C222.488 241.24 221.975 242.368 222.177 243.289C222.337 244.168 223.161 244.974 224.203 244.974C224.261 244.974 224.32 244.97 224.38 244.965C224.924 244.919 225.48 244.646 225.851 244.177C226.22 243.709 226.365 243.067 226.251 242.468C226.515 243.651 225.813 245.06 224.479 245.453C224.241 245.525 223.989 245.562 223.735 245.562Z" fill="#F4AC12"/>
<path d="M224.335 263.04C223.893 263.04 223.443 262.931 223.044 262.703C222.413 262.343 221.948 261.689 221.797 260.964C221.655 260.239 221.829 259.453 222.271 258.88C222.711 258.301 223.388 257.948 224.059 257.879C224.152 257.868 224.245 257.863 224.336 257.863C225.6 257.863 226.649 258.835 226.851 259.945C226.724 259.348 226.34 258.813 225.819 258.525C225.501 258.351 225.151 258.269 224.807 258.269C224.584 258.269 224.364 258.304 224.159 258.37C223.088 258.719 222.575 259.845 222.777 260.768C222.937 261.645 223.761 262.451 224.803 262.451C224.861 262.451 224.92 262.448 224.98 262.444C225.524 262.396 226.08 262.124 226.449 261.656C226.82 261.187 226.965 260.545 226.851 259.945C227.113 261.128 226.413 262.539 225.079 262.932C224.841 263.003 224.589 263.04 224.335 263.04Z" fill="#F4AC12"/>
<path d="M224.935 280.517C224.493 280.517 224.043 280.408 223.643 280.18C223.013 279.821 222.548 279.167 222.397 278.443C222.255 277.717 222.428 276.932 222.871 276.357C223.311 275.779 223.988 275.427 224.659 275.356C224.752 275.345 224.844 275.341 224.936 275.341C226.2 275.341 227.249 276.312 227.451 277.424C227.324 276.827 226.941 276.291 226.417 276.003C226.101 275.829 225.751 275.748 225.407 275.748C225.184 275.748 224.964 275.781 224.759 275.848C223.688 276.196 223.175 277.324 223.377 278.245C223.537 279.124 224.361 279.929 225.403 279.929C225.461 279.929 225.52 279.927 225.58 279.921C226.124 279.875 226.68 279.603 227.049 279.133C227.42 278.665 227.565 278.024 227.451 277.424C227.715 278.607 227.013 280.016 225.679 280.409C225.441 280.481 225.189 280.517 224.935 280.517Z" fill="#F4AC12"/>
<path d="M172.585 330.389L170.372 323.086L232.873 304.146L235.087 311.45L172.585 330.389Z" fill="#FABB1E"/>
<path d="M181.101 327.808L179.725 320.252L232.873 304.146L235.087 311.45L181.101 327.808Z" fill="#FCD361"/>
<path d="M199.093 323.825L195.659 313.024L202.931 310.712L206.365 321.512L199.093 323.825Z" fill="#FABB1E"/>
<path d="M172.071 341.091L155.943 271.252L107.263 282.792L131.233 350.856L172.071 341.091Z" fill="#FABB1E"/>
<path d="M182.872 337.539L172.071 341.091L155.943 271.252L171.479 274.95L182.872 337.539Z" fill="#FABB1E"/>
<path d="M172.071 341.091L155.943 271.252L171.479 274.95L182.872 337.539L172.071 341.091Z" fill="#D59814"/>
<path d="M242.267 307.799C242.267 312.375 238.557 316.084 233.98 316.084C229.404 316.084 225.695 312.375 225.695 307.799C225.695 303.223 229.404 299.512 233.98 299.512C238.557 299.512 242.267 303.223 242.267 307.799Z" fill="#FABB1E"/>
<path d="M379.485 330.328L317.025 311.256L319.252 303.957L381.715 323.029L379.485 330.328Z" fill="#FABB1E"/>
<path d="M370.976 327.729L317.025 311.256L319.252 303.957L372.367 320.174L370.976 327.729Z" fill="#FCD361"/>
<path d="M352.991 323.708L345.724 321.379L349.184 310.585L356.451 312.913L352.991 323.708Z" fill="#FABB1E"/>
<path d="M379.977 341.029L396.253 271.224L444.911 282.869L420.795 350.882L379.977 341.029Z" fill="#FABB1E"/>
<path d="M369.184 337.455L379.977 341.029L396.253 271.224L380.709 274.891L369.184 337.455Z" fill="#FABB1E"/>
<path d="M379.977 341.029L369.184 337.455L380.709 274.891L396.253 271.224L379.977 341.029Z" fill="#D59814"/>
<path d="M309.853 307.589C309.844 312.165 313.545 315.882 318.121 315.892C322.697 315.901 326.416 312.2 326.424 307.624C326.435 303.048 322.733 299.331 318.156 299.32C313.581 299.31 309.863 303.012 309.853 307.589Z" fill="#FABB1E"/>
<path d="M372.384 221.448C372.581 221.265 392.656 202.645 416.271 209.013C440.42 215.529 460.36 251.903 460.557 252.27L467.269 248.641C466.397 247.027 445.601 209.009 418.257 201.647C390.448 194.147 368.068 215.024 367.129 215.917L372.384 221.448Z" fill="#FABB1E"/>
<path d="M460.557 252.27C460.36 251.903 440.42 215.529 416.271 209.013C412.824 208.084 409.453 207.687 406.209 207.687C387.22 207.687 372.552 221.292 372.384 221.448L367.129 215.917C367.925 215.16 384.147 200.024 406.027 200.024C409.94 200.024 414.039 200.508 418.257 201.647C445.601 209.009 466.397 247.027 467.269 248.641L460.557 252.27Z" fill="#FCD361"/>
<path d="M451.657 288.889L466.12 281.253C464.731 278.624 463.023 274.108 462.773 270.029C462.452 264.744 464.549 262.885 466.863 261.664C471.931 258.988 474.953 260.049 477.02 261.265C479.917 262.976 482.863 266.476 485.315 271.12L499.776 263.486C495.817 255.991 490.959 250.504 485.331 247.182C479.716 243.875 470.632 241.184 459.228 247.204C450.34 251.896 445.803 260.355 446.452 271.022C446.963 279.416 450.567 286.819 451.657 288.889Z" fill="#FABB1E"/>
<path d="M375.433 195.969C378.568 193.803 381.777 191.764 384.996 189.743C388.208 187.709 391.473 185.765 394.74 183.821C398.021 181.905 401.305 179.992 404.64 178.167L409.644 175.433C411.339 174.564 413.008 173.656 414.723 172.823C413.161 173.916 411.557 174.937 409.976 175.997L405.16 179.051C401.948 181.084 398.683 183.028 395.417 184.969C392.135 186.884 388.851 188.797 385.515 190.621C382.187 192.459 378.848 194.277 375.433 195.969Z" fill="#17282F"/>
<path d="M367.129 227.171C371.617 229.728 375.871 232.613 380.068 235.581C384.241 238.58 388.356 241.663 392.235 245.076C387.744 242.522 383.489 239.635 379.295 236.667C375.123 233.665 371.008 230.581 367.129 227.171Z" fill="#17282F"/>
<path d="M374.5 223.333C377.964 224.385 381.375 225.573 384.777 226.783C388.185 227.979 391.555 229.272 394.925 230.564C398.284 231.888 401.64 233.213 404.961 234.633L409.94 236.771C411.581 237.528 413.24 238.243 414.867 239.039C413.131 238.524 411.424 237.931 409.703 237.38L404.589 235.589C401.183 234.393 397.811 233.101 394.443 231.807C391.085 230.481 387.727 229.157 384.408 227.735C381.083 226.327 377.764 224.897 374.5 223.333Z" fill="#17282F"/>
<path d="M384.341 198.896C387.661 198.033 391.007 197.315 394.356 196.617C397.7 195.905 401.065 195.296 404.429 194.688C407.8 194.112 411.169 193.537 414.557 193.063L419.64 192.359C421.344 192.172 423.037 191.94 424.749 191.792C423.091 192.237 421.419 192.599 419.753 193.003L414.736 194.073C411.389 194.784 408.025 195.393 404.66 196C401.291 196.576 397.92 197.152 394.531 197.623C391.145 198.111 387.756 198.575 384.341 198.896Z" fill="#17282F"/>
<path d="M304.331 219.656C304.893 216.957 305.799 214.329 306.969 211.823C308.141 209.32 309.576 206.917 311.376 204.783C313.181 202.671 315.403 200.808 318.076 199.777C320.749 198.78 323.809 198.788 326.491 199.859C329.204 200.916 331.344 203.197 332.497 205.817C333.095 207.127 333.472 208.531 333.625 209.967C333.76 211.4 333.703 212.892 333.132 214.323C332.841 215.027 332.387 215.737 331.659 216.211C331.307 216.456 330.876 216.596 330.453 216.661C330.036 216.721 329.611 216.703 329.125 216.535C328.233 216.156 327.787 215.437 327.404 214.791C327.061 214.119 326.796 213.432 326.616 212.736C325.867 209.953 325.791 207.121 325.923 204.324C326.32 198.749 327.784 193.173 330.788 188.376C332.305 186.005 334.205 183.824 336.569 182.228C338.903 180.623 341.635 179.519 344.423 179.199C345.796 178.865 347.213 178.897 348.615 178.829C349.316 178.755 350.015 178.924 350.713 178.961C351.409 179.055 352.12 179.041 352.797 179.243C355.567 179.739 358.172 180.852 360.603 182.197C363.021 183.591 365.173 185.38 367.139 187.321C369.087 189.281 370.859 191.428 372.283 193.789C369.129 189.289 365.069 185.384 360.281 182.767C357.873 181.515 355.327 180.488 352.645 180.071C351.992 179.889 351.307 179.92 350.636 179.845C349.963 179.827 349.292 179.672 348.617 179.763C347.271 179.861 345.917 179.855 344.604 180.208C341.916 180.587 339.423 181.667 337.228 183.173C335.024 184.683 333.244 186.755 331.815 189.021C328.984 193.607 327.599 199.023 327.252 204.404C327.101 207.093 327.169 209.843 327.841 212.397C328.163 213.619 328.74 214.996 329.581 215.38C329.689 215.389 329.76 215.448 329.891 215.452C330.023 215.443 330.161 215.471 330.285 215.44C330.537 215.397 330.785 215.329 330.997 215.177C331.435 214.903 331.781 214.415 332.015 213.855C332.481 212.723 332.568 211.379 332.449 210.083C332.319 208.78 331.985 207.488 331.447 206.287C330.392 203.889 328.521 201.817 326.097 200.801C323.687 199.779 320.863 199.695 318.363 200.565C315.847 201.468 313.675 203.203 311.863 205.212C308.236 209.277 305.787 214.364 304.331 219.656Z" fill="#17282F"/>
<path d="M181.124 254.211C182.412 251.785 184.304 249.687 186.513 248.028C188.72 246.369 191.253 245.082 193.98 244.451C196.692 243.801 199.605 243.791 202.317 244.615C205.032 245.428 207.477 247.02 209.435 249.046C211.405 251.074 212.879 253.536 213.891 256.153C214.885 258.776 215.48 261.585 215.269 264.458C215.127 265.872 214.84 267.397 213.723 268.62C213.168 269.222 212.311 269.619 211.476 269.632C210.673 269.624 209.915 269.505 209.177 269.112C208.447 268.736 207.86 268.079 207.524 267.353C207.185 266.627 207.057 265.857 207.024 265.113C206.971 263.62 207.292 262.203 207.732 260.853C208.627 258.151 210.096 255.716 211.813 253.508C213.54 251.304 215.572 249.341 217.849 247.708C222.367 244.427 228.12 242.605 233.735 243.339C236.505 243.715 239.255 244.513 241.68 245.927C244.127 247.293 246.248 249.191 247.977 251.358C249.705 253.536 251.052 255.983 252.089 258.532C253.127 261.082 253.892 263.745 254.268 266.463C253.148 261.12 250.951 255.931 247.451 251.789C245.719 249.721 243.629 247.945 241.257 246.693C238.907 245.395 236.269 244.699 233.615 244.401C228.281 243.821 222.871 245.523 218.568 248.705C214.272 251.867 210.755 256.279 208.977 261.269C208.559 262.512 208.267 263.815 208.305 265.067C208.335 266.312 208.772 267.507 209.771 268.011C210.24 268.281 210.879 268.388 211.437 268.396C211.977 268.382 212.457 268.167 212.841 267.768C213.62 266.955 213.955 265.627 214.072 264.353C214.281 261.748 213.743 259.055 212.811 256.564C211.865 254.068 210.464 251.74 208.651 249.793C206.843 247.848 204.563 246.331 202.039 245.505C199.52 244.667 196.759 244.597 194.136 245.155C188.885 246.269 184.021 249.552 181.124 254.211Z" fill="#17282F"/>
<path d="M413.861 1.76784C408.491 0.633169 402.848 0.475837 397.571 1.83584C394.955 2.52517 392.417 3.65848 390.463 5.47982C388.54 7.30382 387.32 9.8505 387.124 12.4612C386.915 15.0812 387.899 17.6945 389.545 19.7318C390.364 20.7612 391.36 21.6505 392.457 22.3638C393.555 23.0625 394.788 23.6038 396.009 23.7065C396.613 23.7572 397.205 23.6718 397.651 23.4105C397.883 23.2905 398.057 23.1025 398.209 22.8972L398.403 22.5532L398.48 22.2438C398.524 21.3198 397.565 20.1758 396.628 19.3305C394.667 17.5612 392.253 16.2398 389.796 15.1398C384.855 12.9798 379.405 11.7265 374.032 12.1398C371.363 12.3692 368.707 12.9998 366.355 14.2678C364.009 15.5265 361.905 17.2465 360.336 19.4612C359.419 20.4665 358.805 21.6732 358.099 22.8238C357.709 23.3825 357.539 24.0478 357.248 24.6558C357.007 25.2838 356.664 25.8798 356.525 26.5451C355.665 29.1171 355.412 31.8518 355.419 34.5665C355.548 40.0198 357.156 45.4198 359.709 50.2852C358.263 47.9372 357.169 45.3785 356.32 42.7478C355.497 40.1118 354.895 37.3785 354.765 34.5905C354.685 31.8132 354.891 28.9878 355.72 26.2985C355.852 25.6052 356.189 24.9785 356.425 24.3185C356.713 23.6798 356.883 22.9825 357.271 22.3918C357.973 21.1785 358.596 19.9038 359.521 18.8372C361.085 16.5065 363.32 14.5852 365.816 13.2478C368.317 11.8798 371.129 11.1918 373.931 10.9305C379.572 10.4625 385.197 11.7185 390.333 13.9225C392.881 15.0878 395.363 16.4545 397.491 18.3958C398.027 18.8758 398.516 19.4265 398.956 20.0385C399.355 20.6758 399.787 21.4025 399.715 22.3692C399.643 22.8772 399.463 23.2638 399.219 23.6078C398.967 23.9518 398.644 24.2705 398.265 24.4718C397.512 24.9012 396.671 24.9785 395.913 24.9145C394.379 24.7652 393.028 24.1332 391.815 23.3545C390.609 22.5585 389.535 21.5825 388.645 20.4492C386.845 18.2225 385.801 15.2758 386.105 12.3798C386.384 9.50515 387.781 6.7825 389.892 4.86383C392.033 2.96117 394.708 1.84117 397.415 1.20651C400.137 0.585175 402.928 0.413155 405.691 0.519822C408.455 0.629155 411.205 1.02917 413.861 1.76784Z" fill="#17282F"/>
<path d="M179.709 261.404C178.883 264.029 176.088 265.487 173.467 264.66C170.844 263.834 169.388 261.039 170.215 258.413C171.041 255.791 173.835 254.335 176.461 255.163C179.08 255.988 180.536 258.781 179.709 261.404ZM176.668 254.501C173.679 253.558 170.496 255.22 169.555 258.205C168.613 261.196 170.273 264.376 173.26 265.317C176.245 266.258 179.425 264.601 180.367 261.613C181.308 258.628 179.652 255.443 176.668 254.501ZM179.709 261.404C178.883 264.029 176.088 265.487 173.467 264.66C170.844 263.834 169.388 261.039 170.215 258.413C171.041 255.791 173.835 254.335 176.461 255.163C179.08 255.988 180.536 258.781 179.709 261.404ZM176.668 254.501C173.679 253.558 170.496 255.22 169.555 258.205C168.613 261.196 170.273 264.376 173.26 265.317C176.245 266.258 179.425 264.601 180.367 261.613C181.308 258.628 179.652 255.443 176.668 254.501ZM179.709 261.404C178.883 264.029 176.088 265.487 173.467 264.66C170.844 263.834 169.388 261.039 170.215 258.413C171.041 255.791 173.835 254.335 176.461 255.163C179.08 255.988 180.536 258.781 179.709 261.404ZM180.367 261.613C181.308 258.628 179.652 255.443 176.668 254.501C173.679 253.558 170.496 255.22 169.555 258.205C168.613 261.196 170.273 264.376 173.26 265.317C176.245 266.258 179.425 264.601 180.367 261.613ZM181.209 261.877C180.123 265.324 176.439 267.244 172.995 266.16C169.549 265.074 167.629 261.389 168.716 257.943C169.801 254.495 173.489 252.577 176.933 253.664C180.375 254.748 182.295 258.434 181.209 261.877ZM178.557 248.512C172.257 246.528 165.549 250.028 163.564 256.319C161.583 262.612 165.075 269.325 171.371 271.307C177.663 273.288 184.375 269.793 186.357 263.5C188.341 257.21 184.848 250.493 178.557 248.512ZM179.709 261.404C178.883 264.029 176.088 265.487 173.467 264.66C170.844 263.834 169.388 261.039 170.215 258.413C171.041 255.791 173.835 254.335 176.461 255.163C179.08 255.988 180.536 258.781 179.709 261.404ZM176.668 254.501C173.679 253.558 170.496 255.22 169.555 258.205C168.613 261.196 170.273 264.376 173.26 265.317C176.245 266.258 179.425 264.601 180.367 261.613C181.308 258.628 179.652 255.443 176.668 254.501ZM179.709 261.404C178.883 264.029 176.088 265.487 173.467 264.66C170.844 263.834 169.388 261.039 170.215 258.413C171.041 255.791 173.835 254.335 176.461 255.163C179.08 255.988 180.536 258.781 179.709 261.404ZM176.668 254.501C173.679 253.558 170.496 255.22 169.555 258.205C168.613 261.196 170.273 264.376 173.26 265.317C176.245 266.258 179.425 264.601 180.367 261.613C181.308 258.628 179.652 255.443 176.668 254.501ZM179.709 261.404C178.883 264.029 176.088 265.487 173.467 264.66C170.844 263.834 169.388 261.039 170.215 258.413C171.041 255.791 173.835 254.335 176.461 255.163C179.08 255.988 180.536 258.781 179.709 261.404ZM176.668 254.501C173.679 253.558 170.496 255.22 169.555 258.205C168.613 261.196 170.273 264.376 173.26 265.317C176.245 266.258 179.425 264.601 180.367 261.613C181.308 258.628 179.652 255.443 176.668 254.501Z" fill="#33535F"/>
<path d="M173.711 271.524L169.328 270.143L168.593 273.321L172.491 274.551L173.711 271.524Z" fill="#33535F"/>
<path d="M165.835 267.419L163.712 263.344L160.945 265.07L162.833 268.696L165.835 267.419Z" fill="#33535F"/>
<path d="M163.168 258.946L164.549 254.564L161.371 253.831L160.141 257.727L163.168 258.946Z" fill="#33535F"/>
<path d="M167.273 251.07L171.348 248.948L169.62 246.181L165.996 248.069L167.273 251.07Z" fill="#33535F"/>
<path d="M175.745 248.404L180.127 249.785L180.863 246.608L176.964 245.38L175.745 248.404Z" fill="#33535F"/>
<path d="M183.62 252.509L185.743 256.585L188.511 254.857L186.623 251.232L183.62 252.509Z" fill="#33535F"/>
<path d="M186.287 260.981L184.907 265.364L188.085 266.098L189.313 262.201L186.287 260.981Z" fill="#33535F"/>
<path d="M182.183 268.857L178.108 270.98L179.835 273.746L183.46 271.86L182.183 268.857Z" fill="#33535F"/>
<path d="M389.916 210.604C387.105 214.389 381.765 215.179 377.983 212.372C374.197 209.563 373.408 204.223 376.217 200.437C379.024 196.655 384.364 195.864 388.149 198.673C391.932 201.481 392.723 206.821 389.916 210.604ZM397.733 216.405C403.744 208.307 402.049 196.867 393.952 190.856C385.851 184.843 374.409 186.537 368.4 194.635C362.387 202.736 364.081 214.177 372.181 220.189C380.28 226.2 391.721 224.507 397.733 216.405Z" fill="#17282F"/>
<path d="M375.452 221.672L369.812 217.487L367.161 221.711L372.177 225.433L375.452 221.672Z" fill="#17282F"/>
<path d="M366.128 211.805L365.099 204.857L360.239 205.969L361.152 212.149L366.128 211.805Z" fill="#17282F"/>
<path d="M366.512 198.233L370.696 192.595L366.473 189.944L362.751 194.959L366.512 198.233Z" fill="#17282F"/>
<path d="M376.377 188.909L383.325 187.881L382.213 183.02L376.033 183.935L376.377 188.909Z" fill="#17282F"/>
<path d="M389.949 189.293L395.588 193.479L398.24 189.256L393.224 185.532L389.949 189.293Z" fill="#17282F"/>
<path d="M399.273 199.161L400.303 206.109L405.163 204.997L404.249 198.817L399.273 199.161Z" fill="#17282F"/>
<path d="M398.891 212.731L394.704 218.372L398.928 221.023L402.651 216.005L398.891 212.731Z" fill="#17282F"/>
<path d="M389.023 222.056L382.076 223.084L383.188 227.945L389.367 227.031L389.023 222.056Z" fill="#17282F"/>
<path d="M383.879 203.892C384.759 204.547 384.941 205.783 384.289 206.663C383.639 207.54 382.4 207.725 381.52 207.072C380.643 206.423 380.46 205.179 381.109 204.303C381.763 203.423 383.003 203.243 383.879 203.892ZM376.524 206.396L380.404 211.289L386.583 210.373L388.875 204.568L384.999 199.677L378.819 200.589L376.524 206.396Z" fill="#17282F"/>
<path d="M363.135 57.268C362.411 59.564 359.965 60.8386 357.671 60.1146C355.376 59.392 354.101 56.9466 354.825 54.6506C355.549 52.356 357.993 51.0813 360.291 51.8053C362.584 52.528 363.857 54.972 363.135 57.268ZM360.472 51.2267C357.857 50.4027 355.072 51.8547 354.248 54.4667C353.423 57.084 354.876 59.8667 357.491 60.692C360.103 61.5147 362.885 60.064 363.709 57.4493C364.532 54.8373 363.084 52.0507 360.472 51.2267ZM363.135 57.268C362.411 59.564 359.965 60.8386 357.671 60.1146C355.376 59.392 354.101 56.9466 354.825 54.6506C355.549 52.356 357.993 51.0813 360.291 51.8053C362.584 52.528 363.857 54.972 363.135 57.268ZM360.472 51.2267C357.857 50.4027 355.072 51.8547 354.248 54.4667C353.423 57.084 354.876 59.8667 357.491 60.692C360.103 61.5147 362.885 60.064 363.709 57.4493C364.532 54.8373 363.084 52.0507 360.472 51.2267ZM363.135 57.268C362.411 59.564 359.965 60.8386 357.671 60.1146C355.376 59.392 354.101 56.9466 354.825 54.6506C355.549 52.356 357.993 51.0813 360.291 51.8053C362.584 52.528 363.857 54.972 363.135 57.268ZM363.709 57.4493C364.532 54.8373 363.084 52.0507 360.472 51.2267C357.857 50.4027 355.072 51.8547 354.248 54.4667C353.423 57.084 354.876 59.8667 357.491 60.692C360.103 61.5147 362.885 60.064 363.709 57.4493ZM364.447 57.68C363.496 60.6973 360.271 62.3773 357.257 61.428C354.244 60.4773 352.563 57.2533 353.513 54.2373C354.464 51.2213 357.691 49.5427 360.704 50.4933C363.716 51.4427 365.396 54.6666 364.447 57.68ZM362.125 45.9853C356.612 44.2506 350.743 47.312 349.007 52.816C347.271 58.324 350.327 64.1973 355.837 65.932C361.343 67.6667 367.216 64.608 368.951 59.1013C370.688 53.596 367.629 47.72 362.125 45.9853ZM363.135 57.268C362.411 59.564 359.965 60.8386 357.671 60.1146C355.376 59.392 354.101 56.9466 354.825 54.6506C355.549 52.356 357.993 51.0813 360.291 51.8053C362.584 52.528 363.857 54.972 363.135 57.268ZM360.472 51.2267C357.857 50.4027 355.072 51.8547 354.248 54.4667C353.423 57.084 354.876 59.8667 357.491 60.692C360.103 61.5147 362.885 60.064 363.709 57.4493C364.532 54.8373 363.084 52.0507 360.472 51.2267ZM363.135 57.268C362.411 59.564 359.965 60.8386 357.671 60.1146C355.376 59.392 354.101 56.9466 354.825 54.6506C355.549 52.356 357.993 51.0813 360.291 51.8053C362.584 52.528 363.857 54.972 363.135 57.268ZM360.472 51.2267C357.857 50.4027 355.072 51.8547 354.248 54.4667C353.423 57.084 354.876 59.8667 357.491 60.692C360.103 61.5147 362.885 60.064 363.709 57.4493C364.532 54.8373 363.084 52.0507 360.472 51.2267ZM363.135 57.268C362.411 59.564 359.965 60.8386 357.671 60.1146C355.376 59.392 354.101 56.9466 354.825 54.6506C355.549 52.356 357.993 51.0813 360.291 51.8053C362.584 52.528 363.857 54.972 363.135 57.268ZM360.472 51.2267C357.857 50.4027 355.072 51.8547 354.248 54.4667C353.423 57.084 354.876 59.8667 357.491 60.692C360.103 61.5147 362.885 60.064 363.709 57.4493C364.532 54.8373 363.084 52.0507 360.472 51.2267Z" fill="#17282F"/>
<path d="M357.884 66.1226L354.049 64.9146L353.407 67.6946L356.817 68.7693L357.884 66.1226Z" fill="#17282F"/>
<path d="M350.992 62.5306L349.136 58.964L346.713 60.476L348.365 63.6479L350.992 62.5306Z" fill="#17282F"/>
<path d="M348.659 55.1172L349.867 51.2825L347.085 50.6385L346.012 54.0492L348.659 55.1172Z" fill="#17282F"/>
<path d="M352.252 48.2253L355.816 46.368L354.305 43.9467L351.135 45.5987L352.252 48.2253Z" fill="#17282F"/>
<path d="M359.664 45.8918L363.499 47.0999L364.141 44.3185L360.732 43.2438L359.664 45.8918Z" fill="#17282F"/>
<path d="M366.556 49.4839L368.413 53.0505L370.835 51.5372L369.184 48.3666L366.556 49.4839Z" fill="#17282F"/>
<path d="M368.889 56.8972L367.681 60.7318L370.463 61.3745L371.537 57.9638L368.889 56.8972Z" fill="#17282F"/>
<path d="M365.299 63.7892L361.732 65.6452L363.244 68.0679L366.416 66.4159L365.299 63.7892Z" fill="#17282F"/>
<path d="M424.288 63.8574C420.7 58.3947 418.685 52.2534 418.685 45.76C418.685 22.832 443.863 4.24138 474.901 4.24138C505.94 4.24138 531.093 22.832 531.093 45.76C531.093 68.6867 505.94 87.2773 474.901 87.2773C459.851 87.2773 446.207 82.916 436.127 75.7894L416.761 80.7133L424.288 63.8574Z" fill="white"/>
<path d="M424.288 63.8572L416.896 80.7733L416.727 80.5719L436.051 75.4959L436.184 75.4599L436.303 75.5413C446.272 82.4253 458.299 86.0066 470.335 86.6506C476.365 87.0239 482.432 86.5293 488.359 85.4586C494.277 84.3586 500.109 82.5999 505.501 79.9093C510.896 77.2506 515.921 73.7973 520.096 69.4919C524.263 65.2013 527.557 60.0106 529.221 54.2759C530.936 48.5586 530.773 42.3506 529.001 36.6812C527.241 30.9839 523.871 25.8492 519.649 21.6172C515.419 17.3706 510.357 13.9786 504.937 11.3812C503.556 10.7866 502.215 10.0919 500.8 9.57857L496.545 8.06125L492.184 6.8746C490.729 6.4826 489.231 6.27859 487.755 5.97059C481.815 4.96393 475.755 4.59724 469.729 4.98257C463.711 5.41057 457.737 6.50526 451.995 8.36659C446.252 10.2159 440.747 12.8693 435.849 16.4026C430.951 19.9133 426.637 24.2999 423.525 29.4759C420.359 34.6279 418.777 40.6866 418.847 46.7373C418.972 52.7999 420.981 58.7626 424.288 63.8572ZM424.288 63.8572C420.904 58.8159 418.783 52.8626 418.56 46.7466C418.393 40.6439 419.896 34.4692 423.029 29.1879C426.093 23.8666 430.461 19.3826 435.395 15.7746C440.333 12.1453 445.895 9.40657 451.697 7.47857C457.504 5.5399 463.553 4.37591 469.655 3.88925C475.765 3.44258 481.919 3.82124 487.957 4.81857C489.456 5.12657 490.979 5.33191 492.461 5.72525L496.901 6.91991L501.239 8.45191C502.681 8.97191 504.051 9.67457 505.461 10.2772C510.999 12.9106 516.189 16.3612 520.553 20.7172C524.908 25.0559 528.419 30.3572 530.271 36.2892C532.12 42.1986 532.253 48.6879 530.456 54.6319C528.705 60.5959 525.275 65.9519 520.979 70.3479C516.675 74.7612 511.525 78.2733 506.017 80.9666C500.511 83.6919 494.577 85.4666 488.56 86.5599C482.532 87.5946 476.381 88.0386 470.277 87.6079C464.175 87.2226 458.111 86.1066 452.304 84.1892C446.501 82.2786 440.919 79.6106 435.951 76.0373L436.2 76.0839L416.799 80.8546L416.504 80.9266L416.629 80.6532L424.288 63.8572Z" fill="#17282F"/>
<path d="M446.051 46.0909C446.051 48.3921 445.636 50.3807 444.805 52.0568C443.974 53.733 442.834 55.0256 441.385 55.9347C439.936 56.8438 438.281 57.2983 436.42 57.2983C434.56 57.2983 432.905 56.8438 431.456 55.9347C430.007 55.0256 428.867 53.733 428.036 52.0568C427.205 50.3807 426.79 48.3921 426.79 46.0909C426.79 43.7898 427.205 41.8012 428.036 40.125C428.867 38.4489 430.007 37.1563 431.456 36.2472C432.905 35.3381 434.56 34.8835 436.42 34.8835C438.281 34.8835 439.936 35.3381 441.385 36.2472C442.834 37.1563 443.974 38.4489 444.805 40.125C445.636 41.8012 446.051 43.7898 446.051 46.0909ZM443.494 46.0909C443.494 44.2017 443.178 42.6073 442.546 41.3076C441.921 40.0078 441.072 39.0242 440 38.3566C438.935 37.6889 437.741 37.3551 436.42 37.3551C435.099 37.3551 433.903 37.6889 432.83 38.3566C431.765 39.0242 430.916 40.0078 430.284 41.3076C429.659 42.6073 429.347 44.2017 429.347 46.0909C429.347 47.9801 429.659 49.5746 430.284 50.8743C430.916 52.174 431.765 53.1577 432.83 53.8253C433.903 54.4929 435.099 54.8267 436.42 54.8267C437.741 54.8267 438.935 54.4929 440 53.8253C441.072 53.1577 441.921 52.174 442.546 50.8743C443.178 49.5746 443.494 47.9801 443.494 46.0909Z" fill="black"/>
<path d="M456.8 57.3409C455.323 57.3409 454.027 56.9894 452.912 56.2862C451.804 55.5831 450.938 54.5995 450.313 53.3353C449.695 52.071 449.386 50.5938 449.386 48.9034C449.386 47.1989 449.695 45.711 450.313 44.4397C450.938 43.1683 451.804 42.1811 452.912 41.478C454.027 40.7749 455.323 40.4233 456.8 40.4233C458.278 40.4233 459.57 40.7749 460.678 41.478C461.793 42.1811 462.66 43.1683 463.278 44.4397C463.903 45.711 464.215 47.1989 464.215 48.9034C464.215 50.5938 463.903 52.071 463.278 53.3353C462.66 54.5995 461.793 55.5831 460.678 56.2862C459.57 56.9894 458.278 57.3409 456.8 57.3409ZM456.8 55.0824C457.923 55.0824 458.846 54.7948 459.57 54.2195C460.295 53.6442 460.831 52.8878 461.179 51.9503C461.527 51.0128 461.701 49.9972 461.701 48.9034C461.701 47.8097 461.527 46.7905 461.179 45.8459C460.831 44.9013 460.295 44.1378 459.57 43.5554C458.846 42.973 457.923 42.6818 456.8 42.6818C455.678 42.6818 454.755 42.973 454.031 43.5554C453.306 44.1378 452.77 44.9013 452.422 45.8459C452.074 46.7905 451.9 47.8097 451.9 48.9034C451.9 49.9972 452.074 51.0128 452.422 51.9503C452.77 52.8878 453.306 53.6442 454.031 54.2195C454.755 54.7948 455.678 55.0824 456.8 55.0824Z" fill="black"/>
<path d="M474.701 57.3409C473.224 57.3409 471.927 56.9894 470.812 56.2862C469.704 55.5831 468.838 54.5995 468.213 53.3353C467.595 52.071 467.286 50.5938 467.286 48.9034C467.286 47.1989 467.595 45.711 468.213 44.4397C468.838 43.1683 469.704 42.1811 470.812 41.478C471.927 40.7749 473.224 40.4233 474.701 40.4233C476.178 40.4233 477.471 40.7749 478.579 41.478C479.694 42.1811 480.56 43.1683 481.178 44.4397C481.803 45.711 482.116 47.1989 482.116 48.9034C482.116 50.5938 481.803 52.071 481.178 53.3353C480.56 54.5995 479.694 55.5831 478.579 56.2862C477.471 56.9894 476.178 57.3409 474.701 57.3409ZM474.701 55.0824C475.823 55.0824 476.746 54.7948 477.471 54.2195C478.195 53.6442 478.731 52.8878 479.079 51.9503C479.427 51.0128 479.601 49.9972 479.601 48.9034C479.601 47.8097 479.427 46.7905 479.079 45.8459C478.731 44.9013 478.195 44.1378 477.471 43.5554C476.746 42.973 475.823 42.6818 474.701 42.6818C473.579 42.6818 472.655 42.973 471.931 43.5554C471.207 44.1378 470.67 44.9013 470.322 45.8459C469.974 46.7905 469.8 47.8097 469.8 48.9034C469.8 49.9972 469.974 51.0128 470.322 51.9503C470.67 52.8878 471.207 53.6442 471.931 54.2195C472.655 54.7948 473.579 55.0824 474.701 55.0824Z" fill="black"/>
<path d="M485.954 63.1364V40.6364H488.382V43.2358H488.681C488.865 42.9517 489.121 42.5895 489.448 42.1492C489.782 41.7017 490.257 41.304 490.875 40.956C491.5 40.6009 492.346 40.4233 493.411 40.4233C494.789 40.4233 496.003 40.7678 497.054 41.4567C498.105 42.1456 498.926 43.1222 499.515 44.3864C500.105 45.6506 500.4 47.1421 500.4 48.8608C500.4 50.5938 500.105 52.0959 499.515 53.3672C498.926 54.6314 498.109 55.6115 497.065 56.3076C496.021 56.9965 494.817 57.3409 493.454 57.3409C492.402 57.3409 491.561 57.1669 490.929 56.8189C490.297 56.4638 489.81 56.0625 489.469 55.6151C489.128 55.1605 488.865 54.7841 488.681 54.4858H488.468V63.1364H485.954ZM488.425 48.8182C488.425 50.054 488.606 51.1442 488.968 52.0888C489.331 53.0263 489.86 53.7614 490.556 54.2941C491.252 54.8196 492.104 55.0824 493.113 55.0824C494.164 55.0824 495.041 54.8054 495.744 54.2514C496.454 53.6904 496.987 52.9375 497.342 51.9929C497.704 51.0412 497.885 49.983 497.885 48.8182C497.885 47.6676 497.708 46.6307 497.353 45.7074C497.005 44.777 496.476 44.0419 495.765 43.5022C495.062 42.9553 494.178 42.6818 493.113 42.6818C492.09 42.6818 491.23 42.9411 490.534 43.4595C489.838 43.9709 489.313 44.6882 488.958 45.6115C488.603 46.5277 488.425 47.5966 488.425 48.8182Z" fill="black"/>
<path d="M515.826 44.3012L513.567 44.9404C513.425 44.5639 513.216 44.1982 512.939 43.8431C512.669 43.4808 512.299 43.1826 511.831 42.9482C511.362 42.7138 510.762 42.5966 510.03 42.5966C509.029 42.5966 508.194 42.8274 507.527 43.2891C506.866 43.7436 506.536 44.3225 506.536 45.0256C506.536 45.6506 506.763 46.1442 507.218 46.5064C507.672 46.8686 508.382 47.1705 509.348 47.412L511.777 48.0085C513.24 48.3637 514.331 48.907 515.048 49.6385C515.765 50.3629 516.124 51.2969 516.124 52.4404C516.124 53.3779 515.854 54.2159 515.314 54.9546C514.782 55.6932 514.036 56.2756 513.077 56.7017C512.118 57.1279 511.003 57.3409 509.732 57.3409C508.063 57.3409 506.681 56.9787 505.588 56.2543C504.494 55.5299 503.802 54.4716 503.51 53.0796L505.897 52.483C506.124 53.3637 506.554 54.0242 507.186 54.4645C507.825 54.9049 508.659 55.125 509.689 55.125C510.861 55.125 511.792 54.8764 512.48 54.3793C513.177 53.875 513.525 53.2713 513.525 52.5682C513.525 52 513.326 51.5242 512.928 51.1406C512.53 50.75 511.919 50.4588 511.096 50.2671L508.368 49.6279C506.87 49.2728 505.769 48.7223 505.066 47.9766C504.37 47.2237 504.022 46.2827 504.022 45.1534C504.022 44.2301 504.281 43.4134 504.799 42.7031C505.325 41.9929 506.039 41.4354 506.941 41.0306C507.85 40.6257 508.88 40.4233 510.03 40.4233C511.65 40.4233 512.921 40.7784 513.844 41.4887C514.775 42.1989 515.435 43.1364 515.826 44.3012Z" fill="black"/>
<path d="M523.232 35.1818L523.019 50.8637H520.548L520.335 35.1818H523.232ZM521.784 57.1705C521.258 57.1705 520.807 56.9823 520.431 56.6058C520.054 56.2294 519.866 55.7784 519.866 55.2529C519.866 54.7273 520.054 54.2763 520.431 53.8999C520.807 53.5235 521.258 53.3353 521.784 53.3353C522.309 53.3353 522.76 53.5235 523.137 53.8999C523.513 54.2763 523.701 54.7273 523.701 55.2529C523.701 55.6009 523.612 55.9205 523.435 56.2117C523.264 56.5029 523.034 56.7372 522.742 56.9148C522.458 57.0852 522.139 57.1705 521.784 57.1705Z" fill="black"/>
</svg>
