<svg width="56" height="56" viewBox="0 0 56 56" fill="none" xmlns="http://www.w3.org/2000/svg">
<circle cx="28" cy="28" r="27.5" fill="#F0EEFE" stroke="#7B61FF"/>
<path d="M39.2431 22.0072L31.8931 14.6572C31.7955 14.5597 31.6797 14.4824 31.5522 14.4297C31.4247 14.377 31.2881 14.3499 31.1502 14.35H18.5502C17.9932 14.35 17.4591 14.5713 17.0653 14.9651C16.6714 15.3589 16.4502 15.8931 16.4502 16.45V39.55C16.4502 40.107 16.6714 40.6411 17.0653 41.035C17.4591 41.4288 17.9932 41.65 18.5502 41.65H37.4502C38.0071 41.65 38.5413 41.4288 38.9351 41.035C39.3289 40.6411 39.5502 40.107 39.5502 39.55V22.75C39.5503 22.6121 39.5232 22.4755 39.4705 22.348C39.4178 22.2206 39.3405 22.1047 39.2431 22.0072ZM32.2002 17.9345L35.9658 21.7H32.2002V17.9345ZM37.4502 39.55H18.5502V16.45H30.1002V22.75C30.1002 23.0285 30.2108 23.2956 30.4077 23.4925C30.6046 23.6894 30.8717 23.8 31.1502 23.8H37.4502V39.55ZM31.8931 29.3572C31.9906 29.4547 32.068 29.5705 32.1208 29.698C32.1736 29.8255 32.2008 29.9621 32.2008 30.1C32.2008 30.238 32.1736 30.3746 32.1208 30.5021C32.068 30.6295 31.9906 30.7454 31.8931 30.8429C31.7955 30.9405 31.6797 31.0179 31.5522 31.0706C31.4248 31.1234 31.2882 31.1506 31.1502 31.1506C31.0122 31.1506 30.8756 31.1234 30.7482 31.0706C30.6207 31.0179 30.5049 30.9405 30.4073 30.8429L29.0502 29.4845V35.35C29.0502 35.6285 28.9396 35.8956 28.7427 36.0925C28.5457 36.2894 28.2787 36.4 28.0002 36.4C27.7217 36.4 27.4546 36.2894 27.2577 36.0925C27.0608 35.8956 26.9502 35.6285 26.9502 35.35V29.4845L25.5931 30.8429C25.4955 30.9405 25.3797 31.0179 25.2522 31.0706C25.1248 31.1234 24.9882 31.1506 24.8502 31.1506C24.7122 31.1506 24.5756 31.1234 24.4482 31.0706C24.3207 31.0179 24.2049 30.9405 24.1073 30.8429C24.0098 30.7454 23.9324 30.6295 23.8796 30.5021C23.8268 30.3746 23.7996 30.238 23.7996 30.1C23.7996 29.9621 23.8268 29.8255 23.8796 29.698C23.9324 29.5705 24.0098 29.4547 24.1073 29.3572L27.2573 26.2072C27.3548 26.1095 27.4706 26.0321 27.5981 25.9792C27.7256 25.9264 27.8622 25.8992 28.0002 25.8992C28.1382 25.8992 28.2748 25.9264 28.4023 25.9792C28.5297 26.0321 28.6456 26.1095 28.7431 26.2072L31.8931 29.3572Z" fill="#7B61FF"/>
</svg>
