<svg width="19" height="18" viewBox="0 0 19 18" fill="none" xmlns="http://www.w3.org/2000/svg">
<path d="M9.27092 0C4.32667 0 0.299492 4.04 0.299492 9C0.299492 13.96 4.32667 18 9.27092 18C14.2152 18 18.2423 13.96 18.2423 9C18.2423 4.04 14.2152 0 9.27092 0ZM9.27092 16.62C5.08425 16.62 1.67511 13.2 1.67511 9C1.67511 4.8 5.08425 1.38 9.27092 1.38C13.4576 1.38 16.8667 4.8 16.8667 9C16.8667 13.2 13.4576 16.62 9.27092 16.62Z" fill="#212B36"/>
<path d="M14.7036 8.50006C14.7036 7.84006 14.1653 7.31006 13.5174 7.31006H10.9655V4.75006C10.9655 4.43006 10.8359 4.13009 10.6166 3.90009C10.3874 3.67009 10.0684 3.56005 9.7793 3.55005H8.78248C8.46349 3.55005 8.16444 3.67009 7.94514 3.90009C7.71587 4.13009 7.59625 4.43005 7.59625 4.74005V7.31006H5.04438C4.74533 7.33006 4.42635 7.43003 4.19708 7.66003C3.96781 7.89003 3.84819 8.19007 3.84819 8.51007V9.50006C3.84819 9.82006 3.96781 10.12 4.19708 10.35C4.42635 10.58 4.7254 10.7001 5.04438 10.7001H7.59625V13.2601C7.59625 13.9201 8.12457 14.4501 8.78248 14.4501H9.7793C10.0983 14.4501 10.3973 14.33 10.6266 14.1C10.8459 13.87 10.9755 13.5701 10.9755 13.2601V10.7001H13.5373C13.8563 10.7001 14.1554 10.58 14.3747 10.35C14.594 10.12 14.7236 9.82007 14.7236 9.51007V8.51007L14.7036 8.50006Z" fill="#212B36"/>
</svg>
