<svg width="13" height="8" viewBox="0 0 13 8" fill="none" xmlns="http://www.w3.org/2000/svg">
<path d="M12.0792 0.368262L12.0743 0.362364L12.069 0.356857C11.868 0.148655 11.5454 0.148236 11.3439 0.3556L4.99458 6.73267L1.87374 3.59006C1.67222 3.38256 1.34953 3.38293 1.14844 3.59118C0.95078 3.79587 0.95078 4.1186 1.14844 4.32329L1.14843 4.32331L1.1504 4.32529L4.3253 7.52235C4.505 7.70782 4.75024 7.80039 4.97696 7.80039C5.22379 7.80039 5.45072 7.706 5.62855 7.52243L12.0286 1.09441C12.2489 0.890772 12.2474 0.571414 12.0792 0.368262ZM5.05066 6.78915L5.05019 6.78867C5.05036 6.78884 5.0505 6.789 5.05065 6.78916L5.05066 6.78915Z" fill="#3056D3" stroke="#3056D3" stroke-width="0.4"/>
</svg>
