<svg width="12" height="12" viewBox="0 0 12 12" fill="none" xmlns="http://www.w3.org/2000/svg">
<path d="M6.00008 11.8337C2.77833 11.8337 0.166748 9.22208 0.166748 6.00033C0.166748 2.77858 2.77833 0.166992 6.00008 0.166992C9.22183 0.166992 11.8334 2.77858 11.8334 6.00033C11.8334 9.22208 9.22183 11.8337 6.00008 11.8337ZM6.00008 10.667C7.23776 10.667 8.42474 10.1753 9.29991 9.30016C10.1751 8.42499 10.6667 7.238 10.6667 6.00033C10.6667 4.76265 10.1751 3.57566 9.29991 2.70049C8.42474 1.82532 7.23776 1.33366 6.00008 1.33366C4.7624 1.33366 3.57542 1.82532 2.70025 2.70049C1.82508 3.57566 1.33341 4.76265 1.33341 6.00033C1.33341 7.238 1.82508 8.42499 2.70025 9.30016C3.57542 10.1753 4.7624 10.667 6.00008 10.667ZM6.58342 6.00033H8.91675V7.16699H5.41675V3.08366H6.58342V6.00033Z" fill="#FFC300"/>
</svg>
