<?xml version="1.0" encoding="UTF-8"?>
<svg id="Capa_2" data-name="Capa 2" xmlns="http://www.w3.org/2000/svg" viewBox="0 0 134 125.12">
  <defs>
    <style>
      .cls-1 {
        fill: #787c84;
      }
    </style>
  </defs>
  <g id="Capa_2-2" data-name="Capa 2">
    <g>
      <path class="cls-1" d="m115.65,70.67c-1.12,0-2.08-.85-2.21-1.99-1.4-13.07-8.31-25.05-18.98-32.85-.99-.72-1.2-2.11-.48-3.1.72-.99,2.11-1.2,3.1-.48,11.67,8.54,19.24,21.65,20.77,35.96.13,1.22-.75,2.31-1.97,2.44-.08,0-.16.01-.24.01Z"/>
      <path class="cls-1" d="m66.78,125.12c-7.12,0-14.02-1.43-20.5-4.26-1.12-.49-1.64-1.8-1.15-2.92s1.8-1.64,2.92-1.15c5.92,2.58,12.22,3.89,18.73,3.89s13.03-1.35,19.04-4.02c1.12-.5,2.43,0,2.93,1.13.5,1.12,0,2.43-1.13,2.93-6.58,2.92-13.59,4.41-20.84,4.41Z"/>
      <path class="cls-1" d="m17.89,70.77c-.08,0-.16,0-.23-.01-1.22-.13-2.11-1.22-1.98-2.44,1.51-14.36,9.08-27.5,20.78-36.07.99-.72,2.38-.51,3.1.48.72.99.51,2.38-.48,3.1-10.69,7.83-17.61,19.83-18.99,32.94-.12,1.14-1.08,1.99-2.21,1.99Z"/>
      <path class="cls-1" d="m115.92,74.61c-2.07-.57-4.25-.87-6.5-.87-13.57,0-24.58,11-24.58,24.58,0,6.86,2.81,13.06,7.34,17.51,4.44,4.37,10.52,7.06,17.24,7.06,13.57,0,24.58-11,24.58-24.58,0-11.32-7.66-20.86-18.08-23.71Zm-15.06,33.73c-2.71,0-4.92-2.2-4.92-4.92s2.2-4.92,4.92-4.92,4.92,2.2,4.92,4.92-2.2,4.92-4.92,4.92Zm8.44-14.75c-2.71,0-4.92-2.2-4.92-4.92s2.2-4.92,4.92-4.92,4.92,2.2,4.92,4.92-2.2,4.92-4.92,4.92Zm8.53,14.75c-2.71,0-4.92-2.2-4.92-4.92s2.2-4.92,4.92-4.92,4.92,2.2,4.92,4.92-2.2,4.92-4.92,4.92Z"/>
      <path class="cls-1" d="m24.58,73.74c-2.41,0-4.74.35-6.95,1C7.44,77.73,0,87.15,0,98.32c0,13.57,11,24.58,24.58,24.58,6.63,0,12.65-2.63,17.07-6.9,4.63-4.47,7.5-10.74,7.5-17.68,0-13.57-11-24.58-24.58-24.58Zm.03,29.48c-2.71,0-4.92-2.2-4.92-4.92s2.2-4.92,4.92-4.92,4.92,2.2,4.92,4.92-2.2,4.92-4.92,4.92Z"/>
      <path class="cls-1" d="m66.78,0c-13.57,0-24.58,11-24.58,24.58,0,2.12.27,4.18.77,6.14,2.73,10.6,12.35,18.44,23.81,18.44s21.08-7.83,23.81-18.44c.51-1.96.77-4.02.77-6.14,0-13.57-11-24.58-24.58-24.58Zm-8.56,29.12c-2.71,0-4.92-2.2-4.92-4.92s2.2-4.92,4.92-4.92,4.92,2.2,4.92,4.92-2.2,4.92-4.92,4.92Zm16.97,0c-2.71,0-4.92-2.2-4.92-4.92s2.2-4.92,4.92-4.92,4.92,2.2,4.92,4.92-2.2,4.92-4.92,4.92Z"/>
    </g>
  </g>
</svg>