<svg width="18" height="16" viewBox="0 0 18 16" fill="none" xmlns="http://www.w3.org/2000/svg">
<path d="M10.198 7.40997C10.8146 7.40997 11.3144 6.91748 11.3144 6.30997C11.3144 5.70245 10.8146 5.20996 10.198 5.20996C9.58139 5.20996 9.08154 5.70245 9.08154 6.30997C9.08154 6.91748 9.58139 7.40997 10.198 7.40997Z" fill="#FFB300"/>
<path d="M9.55004 9.82956H10.8359C11.3842 9.82956 11.7829 9.42956 11.6533 9.01956C11.5537 8.71956 11.3244 8.44957 10.9855 8.27957L10.8758 8.21957C10.6765 8.10957 10.4372 8.05957 10.198 8.05957C9.95874 8.05957 9.7195 8.11957 9.52013 8.21957L9.41048 8.27957C9.08153 8.45957 8.84229 8.71957 8.74261 9.02957C8.61302 9.43957 9.01175 9.83957 9.56001 9.83957L9.55004 9.82956Z" fill="#FFB300"/>
<path d="M15.0824 7.40947C15.7004 7.36947 16.159 6.84945 16.129 6.23945C16.0892 5.62945 15.5609 5.16945 14.9428 5.20945C14.3248 5.24945 13.8663 5.76947 13.8962 6.37947C13.9261 6.98947 14.4643 7.44947 15.0824 7.40947Z" fill="#FFB300"/>
<path d="M14.3747 9.82956H15.6606C16.2089 9.82956 16.6076 9.42956 16.478 9.01956C16.3784 8.71956 16.1491 8.44957 15.8102 8.27957L15.7005 8.21957C15.5012 8.10957 15.2619 8.05957 15.0227 8.05957C14.7834 8.05957 14.5442 8.11957 14.3448 8.21957L14.2352 8.27957C13.9062 8.45957 13.667 8.71957 13.5673 9.02957C13.4377 9.43957 13.8365 9.83957 14.3847 9.83957L14.3747 9.82956Z" fill="#FFB300"/>
<path d="M1.45581 4.41003C1.45581 5.34003 1.90438 6.16003 2.59219 6.69003V7.89005C2.59219 8.54005 3.15041 9.07004 3.83822 9.07004H4.79517C5.48298 9.07004 6.04121 8.54005 6.04121 7.89005V6.69003C6.72902 6.17003 7.17759 5.34003 7.17759 4.41003C7.17759 2.83003 5.89168 1.54004 4.3167 1.54004C2.74171 1.54004 1.45581 2.83003 1.45581 4.41003ZM5.68235 4.41003C5.68235 5.16003 5.07429 5.78003 4.3167 5.78003C3.55911 5.78003 2.95105 5.17003 2.95105 4.41003C2.95105 3.65003 3.55911 3.04004 4.3167 3.04004C5.07429 3.04004 5.68235 3.65003 5.68235 4.41003Z" fill="#FFB300"/>
<path d="M1.76484 1.25H1.65519C1.3524 1.25 1.10693 1.49623 1.10693 1.79999V1.91C1.10693 2.21376 1.3524 2.45999 1.65519 2.45999H1.76484C2.06763 2.45999 2.3131 2.21376 2.3131 1.91V1.79999C2.3131 1.49623 2.06763 1.25 1.76484 1.25Z" fill="#FFB300"/>
<path d="M4.41645 0.129883H4.3068C4.00401 0.129883 3.75854 0.376114 3.75854 0.679871V0.789886C3.75854 1.09364 4.00401 1.33987 4.3068 1.33987H4.41645C4.71925 1.33987 4.96471 1.09364 4.96471 0.789886V0.679871C4.96471 0.376114 4.71925 0.129883 4.41645 0.129883Z" fill="#FFB300"/>
<path d="M1.41596 6.22949H1.30631C1.00352 6.22949 0.758057 6.47572 0.758057 6.77948V6.8895C0.758057 7.19325 1.00352 7.43948 1.30631 7.43948H1.41596C1.71875 7.43948 1.96421 7.19325 1.96421 6.8895V6.77948C1.96421 6.47572 1.71875 6.22949 1.41596 6.22949Z" fill="#FFB300"/>
<path d="M0.648383 3.55957H0.538732C0.235939 3.55957 -0.00952148 3.8058 -0.00952148 4.10956V4.21957C-0.00952148 4.52333 0.235939 4.76956 0.538732 4.76956H0.648383C0.951175 4.76956 1.19664 4.52333 1.19664 4.21957V4.10956C1.19664 3.8058 0.951175 3.55957 0.648383 3.55957Z" fill="#FFB300"/>
<path d="M7.04804 1.25H6.93839C6.6356 1.25 6.39014 1.49623 6.39014 1.79999V1.91C6.39014 2.21376 6.6356 2.45999 6.93839 2.45999H7.04804C7.35083 2.45999 7.59629 2.21376 7.59629 1.91V1.79999C7.59629 1.49623 7.35083 1.25 7.04804 1.25Z" fill="#FFB300"/>
<path d="M7.40693 6.22949H7.29728C6.99449 6.22949 6.74902 6.47572 6.74902 6.77948V6.8895C6.74902 7.19325 6.99449 7.43948 7.29728 7.43948H7.40693C7.70972 7.43948 7.95519 7.19325 7.95519 6.8895V6.77948C7.95519 6.47572 7.70972 6.22949 7.40693 6.22949Z" fill="#FFB300"/>
<path d="M8.17451 3.55957H8.06486C7.76207 3.55957 7.5166 3.8058 7.5166 4.10956V4.21957C7.5166 4.52333 7.76207 4.76956 8.06486 4.76956H8.17451C8.4773 4.76956 8.72276 4.52333 8.72276 4.21957V4.10956C8.72276 3.8058 8.4773 3.55957 8.17451 3.55957Z" fill="#FFB300"/>
<path d="M16.5577 10.4395H2.19349C1.4359 10.4395 0.817871 11.0595 0.817871 11.8195V12.2394C0.817871 12.9994 1.4359 13.6194 2.19349 13.6194H2.45266V14.0794C2.45266 15.0694 3.26009 15.8795 4.24695 15.8795H14.5142C15.5011 15.8795 16.3085 15.0694 16.3085 14.0794V13.6194H16.5677C17.3253 13.6194 17.9433 12.9994 17.9433 12.2394V11.8195C17.9433 11.0595 17.3253 10.4395 16.5677 10.4395H16.5577Z" fill="#FFB300"/>
</svg>
