<svg width="32" height="32" viewBox="0 0 32 32" fill="none" xmlns="http://www.w3.org/2000/svg">
<path d="M27.3312 9.43125L18.65 0.665625C18.5094 0.525 18.3562 0.40625 18.1906 0.30625C18.1469 0.28125 18.1031 0.25625 18.0562 0.234375C18.0281 0.21875 17.9969 0.20625 17.9688 0.19375C17.6875 0.06875 17.3781 0 17.0625 0H6.28125C5.0375 0 4 1.00625 4 2.25V29.75C4 30.9937 5.0375 32 6.28125 32H25.75C26.9937 32 27.9688 30.9937 27.9688 29.75V11.0156C27.9688 10.4219 27.75 9.85312 27.3312 9.43125ZM18.2188 3.45L24.4937 9.75H18.2188V3.45ZM25.7188 29.75H6.25V2.25H15.9688V9.75C15.9688 10.9937 17.0063 12 18.25 12H25.7188V29.75ZM10.9375 21.7656C10.9375 22.5219 10.7031 22.7469 10.2531 22.7469C9.97188 22.7469 9.67812 22.5656 9.47812 22.1688L8.52812 22.875C8.94687 23.5906 9.5375 23.9438 10.4438 23.9438C11.7438 23.9438 12.3438 23.0094 12.3438 21.875V18.0312H10.9375V21.7656ZM15.6656 18.0312H13.6562V23.8438H15.0312V21.9062H15.7063C16.9281 21.9062 17.9906 21.2938 17.9906 19.9188C17.9906 18.4875 16.9437 18.0312 15.6656 18.0312ZM15.6406 20.8125H15.0312V19.1562H15.6C16.2719 19.1562 16.6437 19.35 16.6437 19.9344C16.6437 20.5 16.3156 20.8125 15.6406 20.8125ZM21.3438 20.5312V21.6562H22.2812V22.5969C22.1562 22.6875 21.9375 22.7437 21.7281 22.7437C20.6562 22.7437 20.1437 22.075 20.1437 20.925C20.1437 19.7969 20.7594 19.1313 21.6156 19.1313C22.0938 19.1313 22.3969 19.325 22.6781 19.5812L23.4188 18.6969C23.0219 18.2969 22.4156 17.9406 21.5688 17.9406C20.0188 17.9406 18.7219 19.0437 18.7219 20.9719C18.7219 22.9312 19.9719 23.9438 21.5812 23.9438C22.3906 23.9438 23.1187 23.625 23.5031 23.2375V20.5312H21.3438Z" fill="#5D5D5D"/>
</svg>
