<svg width="13" height="9" viewBox="0 0 13 9" fill="none" xmlns="http://www.w3.org/2000/svg">
<path d="M12.0792 0.867773L12.0743 0.861876L12.069 0.856369C11.868 0.648167 11.5454 0.647748 11.3439 0.855112L4.99458 7.23218L1.87374 4.08957C1.67222 3.88207 1.34953 3.88244 1.14844 4.09069C0.95078 4.29538 0.95078 4.61811 1.14844 4.8228L1.14843 4.82282L1.1504 4.82481L4.3253 8.02186C4.505 8.20734 4.75024 8.2999 4.97696 8.2999C5.22379 8.2999 5.45072 8.20551 5.62855 8.02194L12.0286 1.59392C12.2489 1.39028 12.2474 1.07093 12.0792 0.867773ZM5.05066 7.28866L5.05019 7.28818C5.05036 7.28835 5.0505 7.28852 5.05065 7.28867L5.05066 7.28866Z" fill="#3AB523" stroke="#3AB523" stroke-width="0.4"/>
</svg>
