<svg width="32" height="32" viewBox="0 0 32 32" fill="none" xmlns="http://www.w3.org/2000/svg">
<path d="M26.3121 18.4216C25.8861 18.0016 24.9401 17.7796 23.5001 17.7596C22.369 17.7608 21.2394 17.8437 20.1201 18.0076C19.5681 17.6896 18.9981 17.3416 18.5521 16.9236C17.3501 15.8016 16.3461 14.2436 15.7221 12.5296C15.7621 12.3696 15.7981 12.2296 15.8301 12.0856C15.8301 12.0856 16.5081 8.23957 16.3281 6.93957C16.3149 6.81361 16.2853 6.6899 16.2401 6.57157L16.1821 6.41957C15.9981 5.99557 15.6361 5.54557 15.0701 5.56957L14.7281 5.55957C14.0961 5.55957 13.5821 5.88157 13.4481 6.36557C13.0381 7.87957 13.4621 10.1436 14.2281 13.0756L14.0321 13.5536C13.4821 14.8936 12.7941 16.2436 12.1861 17.4336L12.1061 17.5876C11.4661 18.8396 10.8861 19.9016 10.3601 20.8016L9.81814 21.0896C9.77814 21.1096 8.84814 21.6036 8.63014 21.7356C6.77814 22.8416 5.55214 24.0956 5.34814 25.0916C5.28414 25.4096 5.33214 25.8156 5.66014 26.0036L6.18614 26.2676C6.40737 26.38 6.65195 26.439 6.90014 26.4396C8.21814 26.4396 9.75014 24.7976 11.8601 21.1156C14.3541 20.3093 16.9081 19.7021 19.4981 19.2996C21.3501 20.3416 23.6281 21.0656 25.0641 21.0656C25.3201 21.0656 25.5401 21.0416 25.7181 20.9936C25.9815 20.9294 26.2126 20.7716 26.3681 20.5496C26.6461 20.1296 26.7041 19.5516 26.6281 18.9596C26.5803 18.7514 26.4709 18.5626 26.3141 18.4176L26.3121 18.4216ZM6.61414 25.4396C6.85414 24.7816 7.80614 23.4816 9.21414 22.3276C9.30214 22.2556 9.52014 22.0516 9.72014 21.8616C8.24814 24.2096 7.26214 25.1456 6.61414 25.4376V25.4396ZM14.9521 6.23957C15.3761 6.23957 15.6181 7.30757 15.6381 8.30957C15.6581 9.31157 15.4241 10.0156 15.1341 10.5356C14.8941 9.76557 14.7761 8.55157 14.7761 7.75757C14.7761 7.75757 14.7581 6.23957 14.9521 6.23957ZM12.4641 19.9216C12.7601 19.3936 13.0661 18.8356 13.3801 18.2436C14.1461 16.7956 14.6281 15.6636 14.9881 14.7336C15.6641 15.9862 16.5644 17.1041 17.6441 18.0316C17.7741 18.1416 17.9141 18.2536 18.0581 18.3636C15.9261 18.7856 14.0861 19.2976 12.4641 19.9216ZM25.9041 19.8016C25.7741 19.8836 25.4021 19.9296 25.1641 19.9296C24.3921 19.9296 23.4361 19.5776 22.0981 19.0016C22.6121 18.9636 23.0841 18.9436 23.5081 18.9436C24.2821 18.9436 24.5121 18.9396 25.2681 19.1336C26.0241 19.3276 26.0341 19.7196 25.9041 19.7996V19.8016Z" fill="#5D5D5D"/>
<path d="M28.682 7.158C27.988 6.212 27.02 5.104 25.958 4.042C24.896 2.98 23.788 2.012 22.842 1.318C21.23 0.136 20.448 0 20 0H4.5C3.122 0 2 1.122 2 2.5V29.5C2 30.878 3.122 32 4.5 32H27.5C28.878 32 30 30.878 30 29.5V10C30 9.552 29.864 8.77 28.682 7.158ZM24.542 5.458C25.502 6.418 26.254 7.282 26.81 8H21.998V3.19C22.716 3.746 23.584 4.498 24.542 5.458ZM28 29.5C28 29.772 27.772 30 27.5 30H4.5C4.36788 29.9984 4.2416 29.9453 4.14817 29.8518C4.05474 29.7584 4.00156 29.6321 4 29.5V2.5C4 2.23 4.23 2 4.5 2H20V9C20 9.26522 20.1054 9.51957 20.2929 9.70711C20.4804 9.89464 20.7348 10 21 10H28V29.5Z" fill="#5D5D5D"/>
</svg>
