<svg width="80" height="80" viewBox="0 0 80 80" fill="none" xmlns="http://www.w3.org/2000/svg">
<path d="M27.615 52.12C28.315 51.71 29.08 51.31 29.91 50.93C29.2088 51.9754 28.458 52.9866 27.66 53.96C26.26 55.645 25.17 56.54 24.485 56.82C24.4281 56.8441 24.3696 56.8641 24.31 56.88C24.2601 56.8108 24.2166 56.7372 24.18 56.66C23.9 56.11 23.91 55.58 24.38 54.86C24.91 54.035 25.975 53.09 27.615 52.12ZM39.89 43.885C39.295 44.01 38.705 44.135 38.11 44.275C38.9915 42.5484 39.8252 40.7977 40.61 39.025C41.3999 40.4899 42.2507 41.9211 43.16 43.315C42.075 43.475 40.98 43.665 39.89 43.885ZM52.515 48.58C51.7385 47.9535 51.0113 47.2682 50.34 46.53C51.48 46.555 52.51 46.64 53.4 46.8C54.985 47.085 55.73 47.535 55.99 47.845C56.0719 47.9316 56.1183 48.0458 56.12 48.165C56.1025 48.5178 55.9995 48.8609 55.82 49.165C55.7192 49.4086 55.5573 49.6222 55.35 49.785C55.2468 49.8484 55.1252 49.8748 55.005 49.86C54.555 49.845 53.715 49.53 52.515 48.58ZM41.39 24.85C41.19 26.07 40.85 27.47 40.39 28.995C40.2205 28.424 40.0721 27.847 39.945 27.265C39.565 25.5 39.51 24.115 39.715 23.155C39.905 22.27 40.265 21.915 40.695 21.74C40.9256 21.6384 41.1699 21.571 41.42 21.54C41.485 21.69 41.56 22 41.58 22.53C41.605 23.14 41.545 23.915 41.39 24.855V24.85Z" fill="#5D5D5D"/>
<path fill-rule="evenodd" clip-rule="evenodd" d="M20 0H60C62.6522 0 65.1957 1.05357 67.0711 2.92893C68.9464 4.8043 70 7.34784 70 10V70C70 72.6522 68.9464 75.1957 67.0711 77.0711C65.1957 78.9464 62.6522 80 60 80H20C17.3478 80 14.8043 78.9464 12.9289 77.0711C11.0536 75.1957 10 72.6522 10 70V10C10 7.34784 11.0536 4.8043 12.9289 2.92893C14.8043 1.05357 17.3478 0 20 0ZM20.825 58.34C21.275 59.24 21.975 60.055 23.015 60.435C24.05 60.81 25.075 60.635 25.915 60.285C27.505 59.635 29.09 58.105 30.545 56.355C32.21 54.35 33.96 51.72 35.65 48.805C38.9126 47.8377 42.2537 47.1585 45.635 46.775C47.135 48.69 48.685 50.34 50.185 51.525C51.585 52.625 53.2 53.54 54.855 53.61C55.7565 53.6546 56.649 53.4131 57.405 52.92C58.18 52.415 58.755 51.685 59.175 50.84C59.625 49.935 59.9 48.99 59.865 48.025C59.8333 47.0736 59.4809 46.1608 58.865 45.435C57.735 44.085 55.885 43.435 54.065 43.11C51.8572 42.768 49.6172 42.6842 47.39 42.86C45.5093 40.2013 43.8695 37.3801 42.49 34.43C43.74 31.13 44.675 28.01 45.09 25.46C45.27 24.37 45.365 23.33 45.33 22.39C45.3238 21.4569 45.1067 20.5373 44.695 19.7C44.4578 19.2379 44.1207 18.8344 43.7082 18.5187C43.2957 18.203 42.8181 17.9832 42.31 17.875C41.3 17.66 40.26 17.875 39.305 18.26C37.42 19.01 36.425 20.61 36.05 22.375C35.685 24.075 35.85 26.055 36.28 28.055C36.72 30.085 37.47 32.295 38.43 34.53C36.8943 38.3489 35.1208 42.0679 33.12 45.665C30.5432 46.4757 28.0594 47.5568 25.71 48.89C23.86 49.99 22.215 51.29 21.225 52.825C20.175 54.455 19.85 56.395 20.825 58.34Z" fill="#5D5D5D"/>
</svg>
