<svg width="25" height="24" viewBox="0 0 25 24" fill="none" xmlns="http://www.w3.org/2000/svg">
<path d="M14.8594 21H10.6628C9.77562 21 9.00807 20.33 8.89841 19.44L7.67232 9.98999C7.60254 9.47999 7.76203 8.97002 8.10095 8.58002C8.43987 8.19002 8.92832 7.96997 9.4367 7.96997H16.3148C16.8331 7.96997 17.3316 8.20003 17.6705 8.59003C18.0094 8.99003 18.1589 9.51003 18.0792 10.03L16.6238 19.48C16.4843 20.36 15.7466 20.99 14.8594 20.99V21ZM9.4367 9.35999C9.27721 9.35999 9.17753 9.45 9.13765 9.5C9.08781 9.55 9.01803 9.66001 9.03797 9.82001L10.2641 19.27C10.294 19.47 10.4634 19.62 10.6628 19.62H14.8594C15.0588 19.62 15.2283 19.48 15.2582 19.28L16.7135 9.83002C16.7335 9.67002 16.6637 9.56001 16.6238 9.51001C16.574 9.46001 16.4843 9.37 16.3148 9.37H9.4367V9.35999Z" fill="#212B36"/>
<path d="M16.7135 6.95001H9.14762C8.36013 6.95001 7.7421 6.42 7.7421 5.75V5.06C7.7421 4.47 8.22057 3.97 8.88844 3.88C9.38686 3.81 9.89524 3.65999 10.4335 3.48999C11.2011 3.24999 12.0085 3 12.8458 3C13.6832 3 14.5305 3.24998 15.3279 3.47998C15.8862 3.64998 16.4145 3.81 16.9328 3.87C17.6107 3.96 18.1091 4.46 18.1091 5.06V5.73999C18.1091 6.40999 17.491 6.94 16.7036 6.94L16.7135 6.95001ZM9.12768 5.56C9.12768 5.56 9.13765 5.56 9.14762 5.56H16.7135C16.7135 5.56 16.7235 5.56 16.7335 5.56V5.25C16.0855 5.15 15.5074 4.98 14.9392 4.81C14.2015 4.59 13.5137 4.38 12.8458 4.38C12.178 4.38 11.55 4.58999 10.8422 4.79999C10.284 4.96999 9.71581 5.14998 9.11772 5.22998V5.54999L9.12768 5.56Z" fill="#212B36"/>
</svg>
