<svg width="16" height="16" viewBox="0 0 16 16" fill="none" xmlns="http://www.w3.org/2000/svg">
<path d="M15.6377 7.39493L0.988524 0.0703241C0.873708 0.0129037 0.744741 -0.0101035 0.617152 0.00407308C0.489563 0.0182496 0.368792 0.0690053 0.269381 0.150229C0.174443 0.229796 0.103582 0.334267 0.064764 0.451899C0.0259456 0.56953 0.0207089 0.695658 0.0496425 0.816102L1.81421 7.32169H9.34524V8.65343H1.81421L0.0230075 15.139C-0.00414248 15.2396 -0.00731172 15.3452 0.0137547 15.4472C0.0348212 15.5492 0.0795356 15.6449 0.144302 15.7265C0.209069 15.8081 0.292081 15.8734 0.386663 15.9171C0.481246 15.9608 0.584759 15.9816 0.688881 15.978C0.793118 15.9774 0.895753 15.9523 0.988524 15.9048L15.6377 8.58019C15.7468 8.52431 15.8383 8.43941 15.9023 8.33485C15.9662 8.23029 16 8.11011 16 7.98756C16 7.86501 15.9662 7.74483 15.9023 7.64027C15.8383 7.53571 15.7468 7.45081 15.6377 7.39493Z" fill="#212B36"/>
</svg>
