<?xml version="1.0" encoding="UTF-8"?>
<svg id="Capa_2" data-name="Capa 2" xmlns="http://www.w3.org/2000/svg" viewBox="0 0 47.26 42.88">
  <defs>
    <style>
      .cls-1 {
        fill: #7a3528;
      }

      .cls-1, .cls-2, .cls-3, .cls-4, .cls-5, .cls-6, .cls-7, .cls-8, .cls-9, .cls-10, .cls-11, .cls-12, .cls-13, .cls-14 {
        stroke-width: 0px;
      }

      .cls-2 {
        fill: #282336;
      }

      .cls-3 {
        fill: #9f2320;
      }

      .cls-4 {
        fill: #c6ddb6;
      }

      .cls-5 {
        fill: #090a0c;
      }

      .cls-6 {
        fill: #e4d8b3;
      }

      .cls-7 {
        fill: #ddd4bf;
      }

      .cls-8 {
        fill: #f1e5bc;
      }

      .cls-9 {
        fill: #c94428;
      }

      .cls-10 {
        fill: #f2eee1;
      }

      .cls-11 {
        fill: #6e2f28;
      }

      .cls-12 {
        fill: #15162a;
      }

      .cls-13 {
        fill: #e9e1c3;
      }

      .cls-14 {
        fill: #cc7336;
      }
    </style>
  </defs>
  <g id="Capa_4" data-name="Capa 4">
    <g>
      <path class="cls-14" d="m24.88,42.88c3.04-.04,7.6-3.31,10.88-4.96,3.28-1.64,7.88-3.36,7.88-3.36,0,0,1.86-.2,1.97-.74s-.29-.79-.31-.96,1.51-.46,1.69-1.09-.46-.74-.48-.87,1.09-.9.67-2.08c-.42-1.18-1.49-.96-1.74-1.31s.27-1.62-.09-1.76-4.41,2.13-5.33,1.22c-.92-.91-.13-2.4-.13-2.4,0,0,1.28-2.42,3.28-6.34,1.99-3.92.24-10.07.24-10.07,0,0-.8-5.2-1.02-6.22s.25-1.74-.19-1.93-7.43,6.4-7.43,6.4l-3.9,3.11s-2.08,1.64-2.99,1.56-3.17-.29-4.67-.33-4.2.19-5.1.21-3.9-1.86-3.9-1.86c0,0-7.53-5.13-8.16-5.79S3.3,1.01,3.03,1.26s.13,1.31.07,1.64-.16.79-.22,1.05.1,1.66.09,2.08-.25.41-.36.95-.3,3.22-.3,3.22c0,0-.65,4.7,1.21,8.75,1.86,4.05,2.62,4.48,3.29,5.61s1.64,2.92,1.44,3.6-3.99.12-3.99.12c0,0-2.61-.9-2.8-.68s.21.7.09,1.01-1.02.5-1.09.73.34.58.28.87S.04,30.75,0,31.06s.95.82,1.02,1.33-.31,1.01-.34,1.23,1.47.81,1.64,1.05-.13.72.2.94,3.59.84,4.93,1.24,9.26,3.43,9.26,3.43c0,0,5.13,2.65,8.17,2.61Z"/>
      <path class="cls-10" d="m16.13,20.46c2.79-.24,4.57,1.87,4.61,5.3s-.19,5.09-3.99,5.36c-3.17.23-4.44-1.63-4.39-3.83.05-2.2.99-6.6,3.78-6.83Z"/>
      <path class="cls-10" d="m30.47,19.97c2.93-.42,4.77,2.9,5.05,6.22.29,3.33-1.39,4.04-3.09,4.33s-3.4.59-4.66-2.59c-1.25-3.18-.24-7.55,2.69-7.97Z"/>
      <path class="cls-4" d="m30.76,24.59c1.21-.14,2.08.99,2.15,2.01.07,1.02-.63,2.29-1.83,2.29-1.19,0-2.12-.83-2.11-2.14s.58-2.01,1.79-2.16Z"/>
      <path class="cls-2" d="m30.64,25.33c-.88.08-.97.83-1.05,1.45s.7,1.4,1.37,1.37,1.25-.67,1.24-1.48-.68-1.42-1.56-1.34Z"/>
      <path class="cls-4" d="m17.12,25.32c1.21-.14,2.08.99,2.15,2.01s-.63,2.29-1.83,2.29-2.12-.83-2.11-2.14c.01-1.31.58-2.01,1.79-2.16Z"/>
      <path class="cls-12" d="m17.01,26.06c-.88.08-.97.83-1.05,1.45s.7,1.4,1.37,1.37,1.25-.67,1.24-1.48-.68-1.42-1.56-1.34Z"/>
      <path class="cls-8" d="m24.88,30.07c3.77.27,3.98,1.8,6.32,1.85s6.02-2.11,6.53-2.15,1.02.22,1.37.18,1.5-1.01,1.99-.95.8.46,1,.6,1.33-.43,1.47-.28-.97,1.28-.82,1.43,1.35-1.07,1.58-.86-1.32,1.92-1.22,2.06,1.1-.87,1.35-.58-1.56,1.48-1.48,1.6,1.43-.37,1.57-.15-7.22,3.96-8.81,4.71c-1.59.75-5.92,4.72-10.04,5.02s-10.2-2.98-12.39-3.87c-2.19-.9-10.15-3.92-10.13-4.14s1.39-.08,1.42-.3-1.63-1.18-1.59-1.48,1.72.68,1.8.51-1.65-1.68-1.64-1.8,1.47.7,1.59.59-.52-1-.42-1.08.91.49,1.03.37-.24-.43-.16-.58,1.27.5,1.69.46,1.25-1.24,1.94-.92,3.52,1.65,6.74,2.17,5.54-2.68,9.31-2.41Z"/>
      <path class="cls-5" d="m24.26,27.67c2.05-.11,4.05,1.78,4.2,2.74.15.97-2.03,3.7-3.44,3.68s-4.29-1.41-4.42-3c-.13-1.59,1.62-3.31,3.66-3.42Z"/>
      <path class="cls-9" d="m36.57,32.41c-.12-.16-.34-.17-.64-.08-.42,1.03-1.07,2.49-1.34,2.48-.42-.02.12-.94-.51-.69s-3.88,2.74-8.99,3.07c-5.12.33-9.05-2.01-10.13-2.03-1.08-.02-.32.67-1,.59-.47-.06-.89-1.59-1.1-2.52-.4-.07-.69-.02-.84.24-.76,1.28,5.2,7.1,11.23,7.86.12-.46.5-.99,1.58-1.04,1.2-.05,1.43.52,1.44.95,6.04-1.17,10.94-7.99,10.29-8.83Z"/>
      <path class="cls-10" d="m13.97,35.75c.67.09-.08-.61,1-.59,1.08.02,5.01,2.36,10.13,2.03,5.12-.33,8.37-2.82,8.99-3.07s.09.67.51.69c.27.01.92-1.45,1.34-2.48-1.38.43-4.7,3.03-10.85,3.6-6.15.57-10.4-2.38-12.21-2.71.21.93.63,2.46,1.1,2.52Z"/>
      <path class="cls-3" d="m24.84,40.29c-1.08.04-1.46.58-1.58,1.04.61.08,1.22.1,1.82.07.41-.02.81-.08,1.21-.15,0-.43-.24-1-1.44-.95Z"/>
      <path class="cls-13" d="m40.22,4.92c1.6-.15,3,5 .64,2.59,8.75s-2.39,5-3.73,4.83-4.46-4.88-4.13-7.4,3.67-6.03,5.27-6.18Z"/>
      <path class="cls-7" d="m5.2,5.99c.72-.44,6.21,4.15,6.48,6.21.27,2.06-2.3,7.34-3.78,7.51s-4.22-1.68-4.68-5.62,1.27-7.65,1.98-8.1Z"/>
      <path class="cls-11" d="m21.13,16.17c.08,1.2-.59,1.68-2.03,1.59-4.67-.31-7.63,3.38-8.07,2.41s1.43-4.43,5.88-5.11c2.89-.64,4.13-.09,4.22,1.11Z"/>
      <path class="cls-1" d="m26.08,16.64c.18.71.39,1.15,2.5.74,5.22-.71,6.78,2.49,7.81,1.7s-3.43-4.68-7.71-4.49c-2.09-.12-2.77,1.34-2.59,2.05Z"/>
      <path class="cls-6" d="m23.45,12.85c1.08-.08,2.53-.77,3.32-.9s1.78.05,1.84-.42-.45-.67-1.07-.89-.98-1.06-1.33-1.05-.65.53-1.04.52-1.21-1.43-1.9-1.42-1.6,1.48-1.96,1.5-1.54-.58-1.84-.56-1.65,1.54-1.55,1.99,1.22.26,2.22.51,2.22.81,3.31.73Z"/>
    </g>
  </g>
</svg>